<svg width="910" height="203" viewBox="0 0 910 203" fill="none" xmlns="http://www.w3.org/2000/svg">
<path d="M19.712 18.688H26.688L46.208 64H36.992L32.768 53.632H13.12L9.024 64H0L19.712 18.688ZM29.952 46.72L22.976 28.288L15.872 46.72H29.952ZM50.6675 33.28H58.3475V64H50.6675V33.28ZM49.5795 22.848C49.5795 21.6107 50.0275 20.544 50.9235 19.648C51.8622 18.7093 53.0355 18.24 54.4435 18.24C55.8515 18.24 57.0248 18.688 57.9635 19.584C58.9448 20.4373 59.4355 21.5253 59.4355 22.848C59.4355 24.1707 58.9448 25.28 57.9635 26.176C57.0248 27.0293 55.8515 27.456 54.4435 27.456C53.0355 27.456 51.8622 27.008 50.9235 26.112C50.0275 25.1733 49.5795 24.0853 49.5795 22.848ZM67.1645 33.28H74.8445V38.144H74.9725C75.8258 36.352 77.0418 34.9653 78.6205 33.984C80.1992 33.0027 82.0125 32.512 84.0605 32.512C84.5298 32.512 84.9778 32.5547 85.4045 32.64C85.8738 32.7253 86.3432 32.832 86.8125 32.96V40.384C86.1725 40.2133 85.5325 40.0853 84.8925 40C84.2952 39.872 83.6978 39.808 83.1005 39.808C81.3085 39.808 79.8578 40.1493 78.7485 40.832C77.6818 41.472 76.8498 42.2187 76.2525 43.072C75.6978 43.9253 75.3138 44.7787 75.1005 45.632C74.9298 46.4853 74.8445 47.1253 74.8445 47.552V64H67.1645V33.28ZM92.0395 33.28H99.3355V37.888H99.4635C100.573 36.0107 102.066 34.6453 103.944 33.792C105.821 32.9387 107.848 32.512 110.024 32.512C112.37 32.512 114.482 32.9387 116.36 33.792C118.237 34.6027 119.837 35.7333 121.16 37.184C122.482 38.6347 123.485 40.3413 124.168 42.304C124.85 44.2667 125.192 46.3787 125.192 48.64C125.192 50.9013 124.829 53.0133 124.104 54.976C123.378 56.9387 122.354 58.6453 121.032 60.096C119.752 61.5467 118.194 62.6987 116.36 63.552C114.525 64.3627 112.52 64.768 110.344 64.768C108.893 64.768 107.613 64.6187 106.503 64.32C105.394 64.0213 104.413 63.6373 103.56 63.168C102.706 62.6987 101.981 62.208 101.384 61.696C100.786 61.1413 100.296 60.608 99.9115 60.096H99.7195V78.592H92.0395V33.28ZM117.512 48.64C117.512 47.4453 117.298 46.2933 116.872 45.184C116.488 44.0747 115.89 43.0933 115.08 42.24C114.312 41.3867 113.373 40.704 112.264 40.192C111.154 39.68 109.896 39.424 108.488 39.424C107.08 39.424 105.821 39.68 104.712 40.192C103.602 40.704 102.642 41.3867 101.832 42.24C101.064 43.0933 100.466 44.0747 100.04 45.184C99.6555 46.2933 99.4635 47.4453 99.4635 48.64C99.4635 49.8347 99.6555 50.9867 100.04 52.096C100.466 53.2053 101.064 54.1867 101.832 55.04C102.642 55.8933 103.602 56.576 104.712 57.088C105.821 57.6 107.08 57.856 108.488 57.856C109.896 57.856 111.154 57.6 112.264 57.088C113.373 56.576 114.312 55.8933 115.08 55.04C115.89 54.1867 116.488 53.2053 116.872 52.096C117.298 50.9867 117.512 49.8347 117.512 48.64ZM130.816 48.64C130.816 46.208 131.243 44.0107 132.096 42.048C132.992 40.0427 134.187 38.336 135.68 36.928C137.173 35.52 138.944 34.432 140.992 33.664C143.04 32.896 145.216 32.512 147.52 32.512C149.824 32.512 152 32.896 154.048 33.664C156.096 34.432 157.867 35.52 159.36 36.928C160.853 38.336 162.027 40.0427 162.88 42.048C163.776 44.0107 164.224 46.208 164.224 48.64C164.224 51.072 163.776 53.2907 162.88 55.296C162.027 57.2587 160.853 58.944 159.36 60.352C157.867 61.76 156.096 62.848 154.048 63.616C152 64.384 149.824 64.768 147.52 64.768C145.216 64.768 143.04 64.384 140.992 63.616C138.944 62.848 137.173 61.76 135.68 60.352C134.187 58.944 132.992 57.2587 132.096 55.296C131.243 53.2907 130.816 51.072 130.816 48.64ZM138.496 48.64C138.496 49.8347 138.688 50.9867 139.072 52.096C139.499 53.2053 140.096 54.1867 140.864 55.04C141.675 55.8933 142.635 56.576 143.744 57.088C144.853 57.6 146.112 57.856 147.52 57.856C148.928 57.856 150.187 57.6 151.296 57.088C152.405 56.576 153.344 55.8933 154.112 55.04C154.923 54.1867 155.52 53.2053 155.904 52.096C156.331 50.9867 156.544 49.8347 156.544 48.64C156.544 47.4453 156.331 46.2933 155.904 45.184C155.52 44.0747 154.923 43.0933 154.112 42.24C153.344 41.3867 152.405 40.704 151.296 40.192C150.187 39.68 148.928 39.424 147.52 39.424C146.112 39.424 144.853 39.68 143.744 40.192C142.635 40.704 141.675 41.3867 140.864 42.24C140.096 43.0933 139.499 44.0747 139.072 45.184C138.688 46.2933 138.496 47.4453 138.496 48.64ZM171.415 33.28H179.095V38.144H179.223C180.076 36.352 181.292 34.9653 182.871 33.984C184.449 33.0027 186.263 32.512 188.311 32.512C188.78 32.512 189.228 32.5547 189.655 32.64C190.124 32.7253 190.593 32.832 191.063 32.96V40.384C190.423 40.2133 189.783 40.0853 189.143 40C188.545 39.872 187.948 39.808 187.351 39.808C185.559 39.808 184.108 40.1493 182.999 40.832C181.932 41.472 181.1 42.2187 180.503 43.072C179.948 43.9253 179.564 44.7787 179.351 45.632C179.18 46.4853 179.095 47.1253 179.095 47.552V64H171.415V33.28ZM192.706 39.808V33.28H199.042V24.384H206.722V33.28H215.17V39.808H206.722V53.248C206.722 54.784 206.999 56 207.554 56.896C208.151 57.792 209.303 58.24 211.01 58.24C211.692 58.24 212.439 58.176 213.25 58.048C214.06 57.8773 214.7 57.6213 215.17 57.28V63.744C214.359 64.128 213.356 64.384 212.162 64.512C211.01 64.6827 209.986 64.768 209.09 64.768C207.042 64.768 205.356 64.5333 204.034 64.064C202.754 63.6373 201.73 62.976 200.962 62.08C200.236 61.1413 199.724 59.9893 199.426 58.624C199.17 57.2587 199.042 55.68 199.042 53.888V39.808H192.706ZM236.518 39.808V33.28H242.854V24.384H250.534V33.28H258.982V39.808H250.534V53.248C250.534 54.784 250.811 56 251.366 56.896C251.963 57.792 253.115 58.24 254.822 58.24C255.505 58.24 256.251 58.176 257.062 58.048C257.873 57.8773 258.513 57.6213 258.982 57.28V63.744C258.171 64.128 257.169 64.384 255.974 64.512C254.822 64.6827 253.798 64.768 252.902 64.768C250.854 64.768 249.169 64.5333 247.846 64.064C246.566 63.6373 245.542 62.976 244.774 62.08C244.049 61.1413 243.537 59.9893 243.238 58.624C242.982 57.2587 242.854 55.68 242.854 53.888V39.808H236.518ZM264.977 33.28H272.657V38.144H272.785C273.638 36.352 274.854 34.9653 276.433 33.984C278.012 33.0027 279.825 32.512 281.873 32.512C282.342 32.512 282.79 32.5547 283.217 32.64C283.686 32.7253 284.156 32.832 284.625 32.96V40.384C283.985 40.2133 283.345 40.0853 282.705 40C282.108 39.872 281.51 39.808 280.913 39.808C279.121 39.808 277.67 40.1493 276.561 40.832C275.494 41.472 274.662 42.2187 274.065 43.072C273.51 43.9253 273.126 44.7787 272.913 45.632C272.742 46.4853 272.657 47.1253 272.657 47.552V64H264.977V33.28ZM309.052 59.776H308.86C307.751 61.5253 306.343 62.8053 304.636 63.616C302.929 64.384 301.052 64.768 299.004 64.768C297.596 64.768 296.209 64.576 294.844 64.192C293.521 63.808 292.327 63.232 291.26 62.464C290.236 61.696 289.404 60.736 288.764 59.584C288.124 58.432 287.804 57.088 287.804 55.552C287.804 53.888 288.103 52.48 288.7 51.328C289.297 50.1333 290.087 49.152 291.068 48.384C292.092 47.5733 293.265 46.9333 294.588 46.464C295.911 45.9947 297.276 45.6533 298.684 45.44C300.135 45.184 301.585 45.0347 303.036 44.992C304.487 44.9067 305.852 44.864 307.132 44.864H309.052V44.032C309.052 42.112 308.391 40.6827 307.068 39.744C305.745 38.7627 304.06 38.272 302.012 38.272C300.391 38.272 298.876 38.5707 297.468 39.168C296.06 39.7227 294.844 40.4907 293.82 41.472L289.788 37.44C291.495 35.6907 293.479 34.432 295.74 33.664C298.044 32.896 300.412 32.512 302.844 32.512C305.02 32.512 306.855 32.768 308.348 33.28C309.841 33.7493 311.079 34.368 312.06 35.136C313.041 35.904 313.788 36.8 314.3 37.824C314.855 38.8053 315.239 39.808 315.452 40.832C315.708 41.856 315.857 42.8587 315.9 43.84C315.943 44.7787 315.964 45.6107 315.964 46.336V64H309.052V59.776ZM308.604 50.24H307.004C305.937 50.24 304.743 50.2827 303.42 50.368C302.097 50.4533 300.839 50.6667 299.644 51.008C298.492 51.3067 297.511 51.776 296.7 52.416C295.889 53.0133 295.484 53.8667 295.484 54.976C295.484 55.7013 295.633 56.32 295.932 56.832C296.273 57.3013 296.7 57.7067 297.212 58.048C297.724 58.3893 298.3 58.6453 298.94 58.816C299.58 58.944 300.22 59.008 300.86 59.008C303.505 59.008 305.447 58.3893 306.684 57.152C307.964 55.872 308.604 54.144 308.604 51.968V50.24ZM320.067 33.28H328.451L336.643 54.784H336.771L345.027 33.28H352.899L340.803 64H332.611L320.067 33.28ZM363.559 51.328C363.815 53.632 364.711 55.424 366.247 56.704C367.783 57.984 369.639 58.624 371.815 58.624C373.735 58.624 375.335 58.24 376.615 57.472C377.937 56.6613 379.089 55.6587 380.071 54.464L385.575 58.624C383.783 60.8427 381.777 62.4213 379.559 63.36C377.34 64.2987 375.015 64.768 372.583 64.768C370.279 64.768 368.103 64.384 366.055 63.616C364.007 62.848 362.236 61.76 360.743 60.352C359.249 58.944 358.055 57.2587 357.159 55.296C356.305 53.2907 355.879 51.072 355.879 48.64C355.879 46.208 356.305 44.0107 357.159 42.048C358.055 40.0427 359.249 38.336 360.743 36.928C362.236 35.52 364.007 34.432 366.055 33.664C368.103 32.896 370.279 32.512 372.583 32.512C374.716 32.512 376.657 32.896 378.407 33.664C380.199 34.3893 381.713 35.456 382.951 36.864C384.231 38.272 385.212 40.0213 385.895 42.112C386.62 44.16 386.983 46.528 386.983 49.216V51.328H363.559ZM379.303 45.568C379.26 43.3067 378.556 41.536 377.191 40.256C375.825 38.9333 373.927 38.272 371.495 38.272C369.191 38.272 367.356 38.9333 365.991 40.256C364.668 41.5787 363.857 43.3493 363.559 45.568H379.303ZM394.293 15.616H401.973V64H394.293V15.616ZM416.934 51.328C417.19 53.632 418.086 55.424 419.622 56.704C421.158 57.984 423.014 58.624 425.19 58.624C427.11 58.624 428.71 58.24 429.99 57.472C431.312 56.6613 432.464 55.6587 433.446 54.464L438.95 58.624C437.158 60.8427 435.152 62.4213 432.934 63.36C430.715 64.2987 428.39 64.768 425.958 64.768C423.654 64.768 421.478 64.384 419.43 63.616C417.382 62.848 415.611 61.76 414.118 60.352C412.624 58.944 411.43 57.2587 410.534 55.296C409.68 53.2907 409.254 51.072 409.254 48.64C409.254 46.208 409.68 44.0107 410.534 42.048C411.43 40.0427 412.624 38.336 414.118 36.928C415.611 35.52 417.382 34.432 419.43 33.664C421.478 32.896 423.654 32.512 425.958 32.512C428.091 32.512 430.032 32.896 431.782 33.664C433.574 34.3893 435.088 35.456 436.326 36.864C437.606 38.272 438.587 40.0213 439.27 42.112C439.995 44.16 440.358 46.528 440.358 49.216V51.328H416.934ZM432.678 45.568C432.635 43.3067 431.931 41.536 430.566 40.256C429.2 38.9333 427.302 38.272 424.87 38.272C422.566 38.272 420.731 38.9333 419.366 40.256C418.043 41.5787 417.232 43.3493 416.934 45.568H432.678ZM447.54 33.28H455.22V38.144H455.348C456.201 36.352 457.417 34.9653 458.996 33.984C460.574 33.0027 462.388 32.512 464.436 32.512C464.905 32.512 465.353 32.5547 465.78 32.64C466.249 32.7253 466.718 32.832 467.188 32.96V40.384C466.548 40.2133 465.908 40.0853 465.268 40C464.67 39.872 464.073 39.808 463.476 39.808C461.684 39.808 460.233 40.1493 459.124 40.832C458.057 41.472 457.225 42.2187 456.628 43.072C456.073 43.9253 455.689 44.7787 455.476 45.632C455.305 46.4853 455.22 47.1253 455.22 47.552V64H447.54V33.28ZM515.672 59.392H515.544C514.435 61.2693 512.941 62.6347 511.064 63.488C509.187 64.3413 507.16 64.768 504.984 64.768C502.595 64.768 500.461 64.3627 498.584 63.552C496.749 62.6987 495.171 61.5467 493.848 60.096C492.525 58.6453 491.523 56.9387 490.84 54.976C490.157 53.0133 489.816 50.9013 489.816 48.64C489.816 46.3787 490.179 44.2667 490.904 42.304C491.629 40.3413 492.632 38.6347 493.912 37.184C495.235 35.7333 496.813 34.6027 498.648 33.792C500.483 32.9387 502.488 32.512 504.664 32.512C506.115 32.512 507.395 32.6613 508.504 32.96C509.613 33.2587 510.595 33.6427 511.448 34.112C512.301 34.5813 513.027 35.0933 513.624 35.648C514.221 36.16 514.712 36.672 515.096 37.184H515.288V15.616H522.968V64H515.672V59.392ZM497.496 48.64C497.496 49.8347 497.688 50.9867 498.072 52.096C498.499 53.2053 499.096 54.1867 499.864 55.04C500.675 55.8933 501.635 56.576 502.744 57.088C503.853 57.6 505.112 57.856 506.52 57.856C507.928 57.856 509.187 57.6 510.296 57.088C511.405 56.576 512.344 55.8933 513.112 55.04C513.923 54.1867 514.52 53.2053 514.904 52.096C515.331 50.9867 515.544 49.8347 515.544 48.64C515.544 47.4453 515.331 46.2933 514.904 45.184C514.52 44.0747 513.923 43.0933 513.112 42.24C512.344 41.3867 511.405 40.704 510.296 40.192C509.187 39.68 507.928 39.424 506.52 39.424C505.112 39.424 503.853 39.68 502.744 40.192C501.635 40.704 500.675 41.3867 499.864 42.24C499.096 43.0933 498.499 44.0747 498.072 45.184C497.688 46.2933 497.496 47.4453 497.496 48.64ZM530.129 48.64C530.129 46.208 530.555 44.0107 531.409 42.048C532.305 40.0427 533.499 38.336 534.993 36.928C536.486 35.52 538.257 34.432 540.305 33.664C542.353 32.896 544.529 32.512 546.833 32.512C549.137 32.512 551.313 32.896 553.361 33.664C555.409 34.432 557.179 35.52 558.673 36.928C560.166 38.336 561.339 40.0427 562.193 42.048C563.089 44.0107 563.537 46.208 563.537 48.64C563.537 51.072 563.089 53.2907 562.193 55.296C561.339 57.2587 560.166 58.944 558.673 60.352C557.179 61.76 555.409 62.848 553.361 63.616C551.313 64.384 549.137 64.768 546.833 64.768C544.529 64.768 542.353 64.384 540.305 63.616C538.257 62.848 536.486 61.76 534.993 60.352C533.499 58.944 532.305 57.2587 531.409 55.296C530.555 53.2907 530.129 51.072 530.129 48.64ZM537.809 48.64C537.809 49.8347 538.001 50.9867 538.385 52.096C538.811 53.2053 539.409 54.1867 540.177 55.04C540.987 55.8933 541.947 56.576 543.057 57.088C544.166 57.6 545.425 57.856 546.833 57.856C548.241 57.856 549.499 57.6 550.609 57.088C551.718 56.576 552.657 55.8933 553.425 55.04C554.235 54.1867 554.833 53.2053 555.217 52.096C555.643 50.9867 555.857 49.8347 555.857 48.64C555.857 47.4453 555.643 46.2933 555.217 45.184C554.833 44.0747 554.235 43.0933 553.425 42.24C552.657 41.3867 551.718 40.704 550.609 40.192C549.499 39.68 548.241 39.424 546.833 39.424C545.425 39.424 544.166 39.68 543.057 40.192C541.947 40.704 540.987 41.3867 540.177 42.24C539.409 43.0933 538.811 44.0747 538.385 45.184C538.001 46.2933 537.809 47.4453 537.809 48.64ZM576.871 51.328C577.127 53.632 578.023 55.424 579.559 56.704C581.095 57.984 582.951 58.624 585.127 58.624C587.047 58.624 588.647 58.24 589.927 57.472C591.25 56.6613 592.402 55.6587 593.383 54.464L598.887 58.624C597.095 60.8427 595.09 62.4213 592.871 63.36C590.652 64.2987 588.327 64.768 585.895 64.768C583.591 64.768 581.415 64.384 579.367 63.616C577.319 62.848 575.548 61.76 574.055 60.352C572.562 58.944 571.367 57.2587 570.471 55.296C569.618 53.2907 569.191 51.072 569.191 48.64C569.191 46.208 569.618 44.0107 570.471 42.048C571.367 40.0427 572.562 38.336 574.055 36.928C575.548 35.52 577.319 34.432 579.367 33.664C581.415 32.896 583.591 32.512 585.895 32.512C588.028 32.512 589.97 32.896 591.719 33.664C593.511 34.3893 595.026 35.456 596.263 36.864C597.543 38.272 598.524 40.0213 599.207 42.112C599.932 44.16 600.295 46.528 600.295 49.216V51.328H576.871ZM592.615 45.568C592.572 43.3067 591.868 41.536 590.503 40.256C589.138 38.9333 587.239 38.272 584.807 38.272C582.503 38.272 580.668 38.9333 579.303 40.256C577.98 41.5787 577.17 43.3493 576.871 45.568H592.615ZM623.861 41.792C622.368 39.7013 620.362 38.656 617.845 38.656C616.821 38.656 615.818 38.912 614.837 39.424C613.856 39.936 613.365 40.768 613.365 41.92C613.365 42.8587 613.77 43.5413 614.581 43.968C615.392 44.3947 616.416 44.7573 617.653 45.056C618.89 45.3547 620.213 45.6747 621.621 46.016C623.072 46.3147 624.416 46.8053 625.653 47.488C626.89 48.128 627.914 49.024 628.725 50.176C629.536 51.328 629.941 52.9067 629.941 54.912C629.941 56.7467 629.536 58.304 628.725 59.584C627.957 60.8213 626.933 61.824 625.653 62.592C624.416 63.36 623.008 63.9147 621.429 64.256C619.85 64.5973 618.272 64.768 616.693 64.768C614.304 64.768 612.106 64.4267 610.101 63.744C608.096 63.0613 606.304 61.824 604.725 60.032L609.845 55.232C610.826 56.3413 611.872 57.2587 612.981 57.984C614.133 58.6667 615.52 59.008 617.141 59.008C617.696 59.008 618.272 58.944 618.869 58.816C619.466 58.688 620.021 58.4747 620.533 58.176C621.045 57.8773 621.45 57.5147 621.749 57.088C622.09 56.6187 622.261 56.0853 622.261 55.488C622.261 54.4213 621.856 53.632 621.045 53.12C620.234 52.608 619.21 52.2027 617.973 51.904C616.736 51.5627 615.392 51.264 613.941 51.008C612.533 50.7093 611.21 50.2613 609.973 49.664C608.736 49.024 607.712 48.1493 606.901 47.04C606.09 45.9307 605.685 44.3947 605.685 42.432C605.685 40.7253 606.026 39.2533 606.709 38.016C607.434 36.736 608.373 35.6907 609.525 34.88C610.677 34.0693 612 33.472 613.493 33.088C614.986 32.704 616.501 32.512 618.037 32.512C620.085 32.512 622.112 32.8747 624.117 33.6C626.122 34.2827 627.744 35.4773 628.981 37.184L623.861 41.792ZM635.915 33.28H643.211V38.208H643.339C644.064 36.672 645.173 35.3493 646.667 34.24C648.16 33.088 650.187 32.512 652.747 32.512C654.795 32.512 656.523 32.8533 657.931 33.536C659.381 34.2187 660.555 35.1147 661.451 36.224C662.347 37.3333 662.987 38.6133 663.371 40.064C663.755 41.5147 663.947 43.0293 663.947 44.608V64H656.267V48.448C656.267 47.5947 656.224 46.656 656.139 45.632C656.053 44.5653 655.819 43.584 655.435 42.688C655.093 41.7493 654.539 40.9813 653.771 40.384C653.003 39.744 651.957 39.424 650.635 39.424C649.355 39.424 648.267 39.6373 647.371 40.064C646.517 40.4907 645.792 41.0667 645.195 41.792C644.64 42.5173 644.235 43.3493 643.979 44.288C643.723 45.2267 643.595 46.208 643.595 47.232V64H635.915V33.28ZM676.121 18.688H683.929L678.489 35.584H671.641L676.121 18.688ZM686.893 39.808V33.28H693.229V24.384H700.909V33.28H709.357V39.808H700.909V53.248C700.909 54.784 701.186 56 701.741 56.896C702.338 57.792 703.49 58.24 705.197 58.24C705.88 58.24 706.626 58.176 707.437 58.048C708.248 57.8773 708.888 57.6213 709.357 57.28V63.744C708.546 64.128 707.544 64.384 706.349 64.512C705.197 64.6827 704.173 64.768 703.277 64.768C701.229 64.768 699.544 64.5333 698.221 64.064C696.941 63.6373 695.917 62.976 695.149 62.08C694.424 61.1413 693.912 59.9893 693.613 58.624C693.357 57.2587 693.229 55.68 693.229 53.888V39.808H686.893ZM741.97 37.568H742.098C742.695 36.288 743.74 35.136 745.234 34.112C746.77 33.0453 748.732 32.512 751.122 32.512C753.17 32.512 754.898 32.8533 756.306 33.536C757.756 34.2187 758.93 35.1147 759.826 36.224C760.722 37.3333 761.362 38.6133 761.746 40.064C762.13 41.5147 762.322 43.0293 762.322 44.608V64H754.642V48.448C754.642 47.5947 754.599 46.656 754.514 45.632C754.428 44.5653 754.194 43.584 753.81 42.688C753.468 41.7493 752.914 40.9813 752.146 40.384C751.378 39.744 750.332 39.424 749.01 39.424C747.73 39.424 746.642 39.6373 745.746 40.064C744.892 40.4907 744.167 41.0667 743.57 41.792C743.015 42.5173 742.61 43.3493 742.354 44.288C742.098 45.2267 741.97 46.208 741.97 47.232V64H734.29V15.616H741.97V37.568ZM790.24 59.776H790.048C788.938 61.5253 787.53 62.8053 785.824 63.616C784.117 64.384 782.24 64.768 780.192 64.768C778.784 64.768 777.397 64.576 776.032 64.192C774.709 63.808 773.514 63.232 772.448 62.464C771.424 61.696 770.592 60.736 769.952 59.584C769.312 58.432 768.992 57.088 768.992 55.552C768.992 53.888 769.29 52.48 769.888 51.328C770.485 50.1333 771.274 49.152 772.256 48.384C773.28 47.5733 774.453 46.9333 775.776 46.464C777.098 45.9947 778.464 45.6533 779.872 45.44C781.322 45.184 782.773 45.0347 784.224 44.992C785.674 44.9067 787.04 44.864 788.32 44.864H790.24V44.032C790.24 42.112 789.578 40.6827 788.256 39.744C786.933 38.7627 785.248 38.272 783.2 38.272C781.578 38.272 780.064 38.5707 778.656 39.168C777.248 39.7227 776.032 40.4907 775.008 41.472L770.976 37.44C772.682 35.6907 774.666 34.432 776.928 33.664C779.232 32.896 781.6 32.512 784.032 32.512C786.208 32.512 788.042 32.768 789.536 33.28C791.029 33.7493 792.266 34.368 793.248 35.136C794.229 35.904 794.976 36.8 795.488 37.824C796.042 38.8053 796.426 39.808 796.64 40.832C796.896 41.856 797.045 42.8587 797.088 43.84C797.13 44.7787 797.152 45.6107 797.152 46.336V64H790.24V59.776ZM789.792 50.24H788.192C787.125 50.24 785.93 50.2827 784.608 50.368C783.285 50.4533 782.026 50.6667 780.832 51.008C779.68 51.3067 778.698 51.776 777.888 52.416C777.077 53.0133 776.672 53.8667 776.672 54.976C776.672 55.7013 776.821 56.32 777.12 56.832C777.461 57.3013 777.888 57.7067 778.4 58.048C778.912 58.3893 779.488 58.6453 780.128 58.816C780.768 58.944 781.408 59.008 782.048 59.008C784.693 59.008 786.634 58.3893 787.872 57.152C789.152 55.872 789.792 54.144 789.792 51.968V50.24ZM801.255 33.28H809.639L817.831 54.784H817.958L826.215 33.28H834.087L821.991 64H813.799L801.255 33.28ZM844.746 51.328C845.002 53.632 845.898 55.424 847.434 56.704C848.97 57.984 850.826 58.624 853.002 58.624C854.922 58.624 856.522 58.24 857.802 57.472C859.125 56.6613 860.277 55.6587 861.258 54.464L866.762 58.624C864.97 60.8427 862.965 62.4213 860.746 63.36C858.527 64.2987 856.202 64.768 853.77 64.768C851.466 64.768 849.29 64.384 847.242 63.616C845.194 62.848 843.423 61.76 841.93 60.352C840.437 58.944 839.242 57.2587 838.346 55.296C837.493 53.2907 837.066 51.072 837.066 48.64C837.066 46.208 837.493 44.0107 838.346 42.048C839.242 40.0427 840.437 38.336 841.93 36.928C843.423 35.52 845.194 34.432 847.242 33.664C849.29 32.896 851.466 32.512 853.77 32.512C855.903 32.512 857.845 32.896 859.594 33.664C861.386 34.3893 862.901 35.456 864.138 36.864C865.418 38.272 866.399 40.0213 867.082 42.112C867.807 44.16 868.17 46.528 868.17 49.216V51.328H844.746ZM860.49 45.568C860.447 43.3067 859.743 41.536 858.378 40.256C857.013 38.9333 855.114 38.272 852.682 38.272C850.378 38.272 848.543 38.9333 847.178 40.256C845.855 41.5787 845.045 43.3493 844.746 45.568H860.49ZM10.496 138.328C10.752 140.632 11.648 142.424 13.184 143.704C14.72 144.984 16.576 145.624 18.752 145.624C20.672 145.624 22.272 145.24 23.552 144.472C24.8747 143.661 26.0267 142.659 27.008 141.464L32.512 145.624C30.72 147.843 28.7147 149.421 26.496 150.36C24.2773 151.299 21.952 151.768 19.52 151.768C17.216 151.768 15.04 151.384 12.992 150.616C10.944 149.848 9.17333 148.76 7.68 147.352C6.18667 145.944 4.992 144.259 4.096 142.296C3.24267 140.291 2.816 138.072 2.816 135.64C2.816 133.208 3.24267 131.011 4.096 129.048C4.992 127.043 6.18667 125.336 7.68 123.928C9.17333 122.52 10.944 121.432 12.992 120.664C15.04 119.896 17.216 119.512 19.52 119.512C21.6533 119.512 23.5947 119.896 25.344 120.664C27.136 121.389 28.6507 122.456 29.888 123.864C31.168 125.272 32.1493 127.021 32.832 129.112C33.5573 131.16 33.92 133.528 33.92 136.216V138.328H10.496ZM26.24 132.568C26.1973 130.307 25.4933 128.536 24.128 127.256C22.7627 125.933 20.864 125.272 18.432 125.272C16.128 125.272 14.2933 125.933 12.928 127.256C11.6053 128.579 10.7947 130.349 10.496 132.568H26.24ZM41.102 120.28H48.398V125.208H48.526C49.2513 123.672 50.3607 122.349 51.854 121.24C53.3473 120.088 55.374 119.512 57.934 119.512C59.982 119.512 61.71 119.853 63.118 120.536C64.5687 121.219 65.742 122.115 66.638 123.224C67.534 124.333 68.174 125.613 68.558 127.064C68.942 128.515 69.134 130.029 69.134 131.608V151H61.454V135.448C61.454 134.595 61.4113 133.656 61.326 132.632C61.2407 131.565 61.006 130.584 60.622 129.688C60.2807 128.749 59.726 127.981 58.958 127.384C58.19 126.744 57.1447 126.424 55.822 126.424C54.542 126.424 53.454 126.637 52.558 127.064C51.7047 127.491 50.9793 128.067 50.382 128.792C49.8273 129.517 49.422 130.349 49.166 131.288C48.91 132.227 48.782 133.208 48.782 134.232V151H41.102V120.28ZM76.316 135.64C76.316 133.208 76.7427 131.011 77.596 129.048C78.492 127.043 79.6867 125.336 81.18 123.928C82.6733 122.52 84.444 121.432 86.492 120.664C88.54 119.896 90.716 119.512 93.02 119.512C95.324 119.512 97.5 119.896 99.548 120.664C101.596 121.432 103.367 122.52 104.86 123.928C106.353 125.336 107.527 127.043 108.38 129.048C109.276 131.011 109.724 133.208 109.724 135.64C109.724 138.072 109.276 140.291 108.38 142.296C107.527 144.259 106.353 145.944 104.86 147.352C103.367 148.76 101.596 149.848 99.548 150.616C97.5 151.384 95.324 151.768 93.02 151.768C90.716 151.768 88.54 151.384 86.492 150.616C84.444 149.848 82.6733 148.76 81.18 147.352C79.6867 145.944 78.492 144.259 77.596 142.296C76.7427 140.291 76.316 138.072 76.316 135.64ZM83.996 135.64C83.996 136.835 84.188 137.987 84.572 139.096C84.9987 140.205 85.596 141.187 86.364 142.04C87.1747 142.893 88.1347 143.576 89.244 144.088C90.3533 144.6 91.612 144.856 93.02 144.856C94.428 144.856 95.6867 144.6 96.796 144.088C97.9053 143.576 98.844 142.893 99.612 142.04C100.423 141.187 101.02 140.205 101.404 139.096C101.831 137.987 102.044 136.835 102.044 135.64C102.044 134.445 101.831 133.293 101.404 132.184C101.02 131.075 100.423 130.093 99.612 129.24C98.844 128.387 97.9053 127.704 96.796 127.192C95.6867 126.68 94.428 126.424 93.02 126.424C91.612 126.424 90.3533 126.68 89.244 127.192C88.1347 127.704 87.1747 128.387 86.364 129.24C85.596 130.093 84.9987 131.075 84.572 132.184C84.188 133.293 83.996 134.445 83.996 135.64ZM144.947 151H137.651V146.072H137.523C136.797 147.608 135.688 148.952 134.195 150.104C132.701 151.213 130.675 151.768 128.115 151.768C126.067 151.768 124.317 151.448 122.867 150.808C121.459 150.125 120.307 149.229 119.411 148.12C118.515 146.968 117.875 145.667 117.491 144.216C117.107 142.765 116.915 141.251 116.915 139.672V120.28H124.595V135.832C124.595 136.685 124.637 137.645 124.723 138.712C124.808 139.736 125.021 140.717 125.363 141.656C125.747 142.552 126.301 143.32 127.027 143.96C127.795 144.557 128.861 144.856 130.227 144.856C131.507 144.856 132.573 144.643 133.427 144.216C134.323 143.789 135.048 143.213 135.603 142.488C136.2 141.763 136.627 140.931 136.883 139.992C137.139 139.053 137.267 138.072 137.267 137.048V120.28H144.947V151ZM185.281 120.28V148.248C185.281 151.021 184.939 153.517 184.257 155.736C183.574 157.997 182.507 159.896 181.057 161.432C179.649 163.011 177.857 164.227 175.681 165.08C173.505 165.933 170.923 166.36 167.937 166.36C165.078 166.36 162.369 165.997 159.809 165.272C157.249 164.547 154.881 163.224 152.705 161.304L157.312 155.032C158.849 156.44 160.449 157.528 162.113 158.296C163.777 159.064 165.697 159.448 167.873 159.448C169.707 159.448 171.243 159.192 172.481 158.68C173.761 158.168 174.763 157.464 175.489 156.568C176.257 155.672 176.79 154.584 177.089 153.304C177.43 152.067 177.601 150.68 177.601 149.144V146.904H177.473C176.363 148.397 174.891 149.528 173.057 150.296C171.222 151.021 169.345 151.384 167.425 151.384C165.121 151.384 163.03 150.979 161.153 150.168C159.275 149.315 157.654 148.184 156.289 146.776C154.966 145.368 153.942 143.704 153.217 141.784C152.491 139.864 152.129 137.816 152.129 135.64C152.129 133.379 152.47 131.267 153.153 129.304C153.835 127.341 154.838 125.635 156.161 124.184C157.483 122.733 159.062 121.603 160.897 120.792C162.774 119.939 164.907 119.512 167.297 119.512C169.473 119.512 171.499 119.939 173.377 120.792C175.254 121.645 176.747 123.011 177.857 124.888H177.985V120.28H185.281ZM168.897 126.424C167.531 126.424 166.294 126.659 165.185 127.128C164.075 127.555 163.115 128.173 162.305 128.984C161.537 129.752 160.918 130.712 160.449 131.864C160.022 132.973 159.809 134.211 159.809 135.576C159.809 136.813 160.022 137.965 160.449 139.032C160.918 140.099 161.558 141.037 162.369 141.848C163.179 142.659 164.139 143.299 165.249 143.768C166.358 144.237 167.553 144.472 168.833 144.472C170.241 144.472 171.499 144.237 172.609 143.768C173.761 143.299 174.721 142.68 175.489 141.912C176.299 141.101 176.918 140.141 177.345 139.032C177.771 137.923 177.985 136.728 177.985 135.448C177.985 132.76 177.174 130.584 175.553 128.92C173.931 127.256 171.713 126.424 168.897 126.424ZM201.657 124.568H201.785C202.382 123.288 203.428 122.136 204.921 121.112C206.457 120.045 208.42 119.512 210.809 119.512C212.857 119.512 214.585 119.853 215.993 120.536C217.444 121.219 218.617 122.115 219.513 123.224C220.409 124.333 221.049 125.613 221.433 127.064C221.817 128.515 222.009 130.029 222.009 131.608V151H214.329V135.448C214.329 134.595 214.286 133.656 214.201 132.632C214.116 131.565 213.881 130.584 213.497 129.688C213.156 128.749 212.601 127.981 211.833 127.384C211.065 126.744 210.02 126.424 208.697 126.424C207.417 126.424 206.329 126.637 205.433 127.064C204.58 127.491 203.854 128.067 203.257 128.792C202.702 129.517 202.297 130.349 202.041 131.288C201.785 132.227 201.657 133.208 201.657 134.232V151H193.977V102.616H201.657V124.568ZM270.657 129.496C269.761 128.557 268.822 127.811 267.841 127.256C266.859 126.701 265.857 126.424 264.833 126.424C263.425 126.424 262.166 126.68 261.057 127.192C259.947 127.704 258.987 128.387 258.177 129.24C257.409 130.093 256.811 131.075 256.385 132.184C256.001 133.293 255.809 134.445 255.809 135.64C255.809 136.835 256.001 137.987 256.385 139.096C256.811 140.205 257.409 141.187 258.177 142.04C258.987 142.893 259.947 143.576 261.057 144.088C262.166 144.6 263.425 144.856 264.833 144.856C266.027 144.856 267.137 144.621 268.161 144.152C269.185 143.64 270.059 142.915 270.785 141.976L275.905 147.48C275.137 148.248 274.241 148.909 273.217 149.464C272.235 150.019 271.233 150.467 270.209 150.808C269.185 151.149 268.203 151.384 267.265 151.512C266.326 151.683 265.515 151.768 264.833 151.768C262.529 151.768 260.353 151.384 258.305 150.616C256.257 149.848 254.486 148.76 252.993 147.352C251.499 145.944 250.305 144.259 249.409 142.296C248.555 140.291 248.129 138.072 248.129 135.64C248.129 133.208 248.555 131.011 249.409 129.048C250.305 127.043 251.499 125.336 252.993 123.928C254.486 122.52 256.257 121.432 258.305 120.664C260.353 119.896 262.529 119.512 264.833 119.512C266.795 119.512 268.758 119.896 270.721 120.664C272.726 121.389 274.475 122.563 275.969 124.184L270.657 129.496ZM279.004 135.64C279.004 133.208 279.43 131.011 280.284 129.048C281.18 127.043 282.374 125.336 283.868 123.928C285.361 122.52 287.132 121.432 289.18 120.664C291.228 119.896 293.404 119.512 295.708 119.512C298.012 119.512 300.188 119.896 302.236 120.664C304.284 121.432 306.054 122.52 307.548 123.928C309.041 125.336 310.214 127.043 311.068 129.048C311.964 131.011 312.412 133.208 312.412 135.64C312.412 138.072 311.964 140.291 311.068 142.296C310.214 144.259 309.041 145.944 307.548 147.352C306.054 148.76 304.284 149.848 302.236 150.616C300.188 151.384 298.012 151.768 295.708 151.768C293.404 151.768 291.228 151.384 289.18 150.616C287.132 149.848 285.361 148.76 283.868 147.352C282.374 145.944 281.18 144.259 280.284 142.296C279.43 140.291 279.004 138.072 279.004 135.64ZM286.684 135.64C286.684 136.835 286.876 137.987 287.26 139.096C287.686 140.205 288.284 141.187 289.052 142.04C289.862 142.893 290.822 143.576 291.932 144.088C293.041 144.6 294.3 144.856 295.708 144.856C297.116 144.856 298.374 144.6 299.484 144.088C300.593 143.576 301.532 142.893 302.3 142.04C303.11 141.187 303.708 140.205 304.092 139.096C304.518 137.987 304.732 136.835 304.732 135.64C304.732 134.445 304.518 133.293 304.092 132.184C303.708 131.075 303.11 130.093 302.3 129.24C301.532 128.387 300.593 127.704 299.484 127.192C298.374 126.68 297.116 126.424 295.708 126.424C294.3 126.424 293.041 126.68 291.932 127.192C290.822 127.704 289.862 128.387 289.052 129.24C288.284 130.093 287.686 131.075 287.26 132.184C286.876 133.293 286.684 134.445 286.684 135.64ZM319.602 120.28H326.898V125.208H327.026C327.751 123.672 328.861 122.349 330.354 121.24C331.847 120.088 333.874 119.512 336.434 119.512C338.482 119.512 340.21 119.853 341.618 120.536C343.069 121.219 344.242 122.115 345.138 123.224C346.034 124.333 346.674 125.613 347.058 127.064C347.442 128.515 347.634 130.029 347.634 131.608V151H339.954V135.448C339.954 134.595 339.911 133.656 339.826 132.632C339.741 131.565 339.506 130.584 339.122 129.688C338.781 128.749 338.226 127.981 337.458 127.384C336.69 126.744 335.645 126.424 334.322 126.424C333.042 126.424 331.954 126.637 331.058 127.064C330.205 127.491 329.479 128.067 328.882 128.792C328.327 129.517 327.922 130.349 327.666 131.288C327.41 132.227 327.282 133.208 327.282 134.232V151H319.602V120.28ZM352.768 126.808V120.28H359.104V111.384H366.784V120.28H375.232V126.808H366.784V140.248C366.784 141.784 367.061 143 367.616 143.896C368.213 144.792 369.365 145.24 371.072 145.24C371.755 145.24 372.501 145.176 373.312 145.048C374.123 144.877 374.763 144.621 375.232 144.28V150.744C374.421 151.128 373.419 151.384 372.224 151.512C371.072 151.683 370.048 151.768 369.152 151.768C367.104 151.768 365.419 151.533 364.096 151.064C362.816 150.637 361.792 149.976 361.024 149.08C360.299 148.141 359.787 146.989 359.488 145.624C359.232 144.259 359.104 142.68 359.104 140.888V126.808H352.768ZM381.227 120.28H388.907V125.144H389.035C389.888 123.352 391.104 121.965 392.683 120.984C394.262 120.003 396.075 119.512 398.123 119.512C398.592 119.512 399.04 119.555 399.467 119.64C399.936 119.725 400.406 119.832 400.875 119.96V127.384C400.235 127.213 399.595 127.085 398.955 127C398.358 126.872 397.76 126.808 397.163 126.808C395.371 126.808 393.92 127.149 392.811 127.832C391.744 128.472 390.912 129.219 390.315 130.072C389.76 130.925 389.376 131.779 389.163 132.632C388.992 133.485 388.907 134.125 388.907 134.552V151H381.227V120.28ZM403.441 135.64C403.441 133.208 403.868 131.011 404.721 129.048C405.617 127.043 406.812 125.336 408.305 123.928C409.798 122.52 411.569 121.432 413.617 120.664C415.665 119.896 417.841 119.512 420.145 119.512C422.449 119.512 424.625 119.896 426.673 120.664C428.721 121.432 430.492 122.52 431.985 123.928C433.478 125.336 434.652 127.043 435.505 129.048C436.401 131.011 436.849 133.208 436.849 135.64C436.849 138.072 436.401 140.291 435.505 142.296C434.652 144.259 433.478 145.944 431.985 147.352C430.492 148.76 428.721 149.848 426.673 150.616C424.625 151.384 422.449 151.768 420.145 151.768C417.841 151.768 415.665 151.384 413.617 150.616C411.569 149.848 409.798 148.76 408.305 147.352C406.812 145.944 405.617 144.259 404.721 142.296C403.868 140.291 403.441 138.072 403.441 135.64ZM411.121 135.64C411.121 136.835 411.313 137.987 411.697 139.096C412.124 140.205 412.721 141.187 413.489 142.04C414.3 142.893 415.26 143.576 416.369 144.088C417.478 144.6 418.737 144.856 420.145 144.856C421.553 144.856 422.812 144.6 423.921 144.088C425.03 143.576 425.969 142.893 426.737 142.04C427.548 141.187 428.145 140.205 428.529 139.096C428.956 137.987 429.169 136.835 429.169 135.64C429.169 134.445 428.956 133.293 428.529 132.184C428.145 131.075 427.548 130.093 426.737 129.24C425.969 128.387 425.03 127.704 423.921 127.192C422.812 126.68 421.553 126.424 420.145 126.424C418.737 126.424 417.478 126.68 416.369 127.192C415.26 127.704 414.3 128.387 413.489 129.24C412.721 130.093 412.124 131.075 411.697 132.184C411.313 133.293 411.121 134.445 411.121 135.64ZM444.168 102.616H451.848V151H444.168V102.616Z" fill="#420FFF"/>
<path d="M629.064 152.896C629.064 153.568 628.824 154.128 628.344 154.576C627.864 154.992 627.336 155.2 626.76 155.2C626.184 155.2 625.656 154.992 625.176 154.576C624.696 154.128 624.456 153.568 624.456 152.896C624.456 152.224 624.696 151.68 625.176 151.264C625.656 150.816 626.184 150.592 626.76 150.592C627.336 150.592 627.864 150.816 628.344 151.264C628.824 151.68 629.064 152.224 629.064 152.896ZM619.944 192.304L620.088 192.352C620.344 192.416 620.632 192.48 620.952 192.544C621.24 192.608 621.512 192.64 621.768 192.64C622.536 192.64 623.144 192.496 623.592 192.208C624.072 191.92 624.424 191.536 624.648 191.056C624.872 190.608 625.016 190.112 625.08 189.568C625.144 189.024 625.176 188.48 625.176 187.936V161.536H628.344V188.464C628.344 188.784 628.328 189.328 628.296 190.096C628.264 190.896 628.056 191.696 627.672 192.496C627.32 193.296 626.696 194 625.8 194.608C624.936 195.216 623.672 195.52 622.008 195.52C621.112 195.52 620.28 195.36 619.512 195.04L619.944 192.304ZM648.755 172.816C647.955 172.816 646.947 172.864 645.731 172.96C644.547 173.024 643.395 173.216 642.275 173.536C641.187 173.824 640.243 174.288 639.443 174.928C638.675 175.568 638.291 176.448 638.291 177.568C638.291 178.304 638.435 178.944 638.723 179.488C639.043 180 639.459 180.432 639.971 180.784C640.483 181.104 641.043 181.344 641.651 181.504C642.291 181.632 642.931 181.696 643.571 181.696C644.723 181.696 645.715 181.504 646.547 181.12C647.411 180.736 648.131 180.224 648.707 179.584C649.283 178.912 649.699 178.144 649.955 177.28C650.243 176.384 650.387 175.44 650.387 174.448V172.816H648.755ZM650.387 170.224V169.648C650.387 165.776 648.467 163.84 644.627 163.84C642.003 163.84 639.715 164.72 637.763 166.48L635.843 164.224C637.955 162.048 641.123 160.96 645.347 160.96C646.435 160.96 647.475 161.12 648.467 161.44C649.491 161.76 650.371 162.256 651.107 162.928C651.843 163.568 652.435 164.384 652.883 165.376C653.331 166.368 653.555 167.552 653.555 168.928V178.96C653.555 179.824 653.587 180.736 653.651 181.696C653.747 182.624 653.843 183.392 653.939 184H650.867C650.771 183.456 650.691 182.864 650.627 182.224C650.595 181.584 650.579 180.96 650.579 180.352H650.483C649.555 181.856 648.451 182.944 647.171 183.616C645.923 184.256 644.387 184.576 642.563 184.576C641.571 184.576 640.611 184.432 639.683 184.144C638.755 183.888 637.923 183.488 637.187 182.944C636.483 182.368 635.907 181.68 635.459 180.88C635.043 180.048 634.835 179.088 634.835 178C634.835 176.176 635.299 174.752 636.227 173.728C637.187 172.672 638.371 171.888 639.779 171.376C641.219 170.864 642.739 170.544 644.339 170.416C645.971 170.288 647.459 170.224 648.803 170.224H650.387ZM660.878 166.528C660.878 165.696 660.846 164.864 660.782 164.032C660.75 163.2 660.702 162.368 660.638 161.536H664.046V164.944H664.142C664.91 163.632 665.966 162.64 667.31 161.968C668.686 161.296 670.046 160.96 671.39 160.96C671.998 160.96 672.638 161.024 673.31 161.152C674.014 161.28 674.686 161.52 675.326 161.872C675.966 162.192 676.558 162.656 677.102 163.264C677.678 163.872 678.158 164.656 678.542 165.616C679.182 164.176 680.19 163.04 681.566 162.208C682.974 161.376 684.43 160.96 685.934 160.96C688.814 160.96 690.942 161.728 692.318 163.264C693.694 164.768 694.382 166.928 694.382 169.744V184H691.214V170.896C691.214 168.624 690.814 166.88 690.014 165.664C689.214 164.448 687.726 163.84 685.55 163.84C684.366 163.84 683.374 164.08 682.574 164.56C681.774 165.008 681.118 165.616 680.606 166.384C680.126 167.152 679.774 168.032 679.55 169.024C679.326 169.984 679.214 170.992 679.214 172.048V184H676.046V170.896C676.046 168.624 675.646 166.88 674.846 165.664C674.046 164.448 672.558 163.84 670.382 163.84C670.19 163.84 669.742 163.904 669.038 164.032C668.366 164.16 667.662 164.512 666.926 165.088C666.19 165.664 665.518 166.528 664.91 167.68C664.334 168.832 664.046 170.432 664.046 172.48V184H660.878V166.528ZM719.225 171.04C719.225 168.896 718.585 167.168 717.305 165.856C716.025 164.512 714.233 163.84 711.929 163.84C710.905 163.84 709.913 164.048 708.953 164.464C707.993 164.848 707.145 165.376 706.409 166.048C705.705 166.72 705.129 167.488 704.681 168.352C704.265 169.216 704.057 170.112 704.057 171.04H719.225ZM703.961 173.632C704.057 174.752 704.329 175.808 704.777 176.8C705.225 177.792 705.817 178.656 706.553 179.392C707.289 180.096 708.137 180.656 709.097 181.072C710.057 181.488 711.097 181.696 712.217 181.696C713.913 181.696 715.369 181.312 716.585 180.544C717.833 179.744 718.777 178.832 719.417 177.808L721.865 179.824C720.521 181.52 719.033 182.736 717.401 183.472C715.801 184.208 714.073 184.576 712.217 184.576C710.553 184.576 709.001 184.288 707.561 183.712C706.153 183.104 704.937 182.272 703.913 181.216C702.889 180.16 702.073 178.912 701.465 177.472C700.889 176.032 700.601 174.464 700.601 172.768C700.601 171.072 700.889 169.504 701.465 168.064C702.041 166.624 702.841 165.376 703.865 164.32C704.889 163.264 706.089 162.448 707.465 161.872C708.841 161.264 710.329 160.96 711.929 160.96C713.625 160.96 715.145 161.264 716.489 161.872C717.833 162.48 718.953 163.296 719.849 164.32C720.777 165.312 721.481 166.496 721.961 167.872C722.441 169.216 722.681 170.656 722.681 172.192V173.632H703.961ZM740.329 166.864C739.849 165.936 739.209 165.2 738.409 164.656C737.609 164.112 736.633 163.84 735.481 163.84C734.937 163.84 734.377 163.904 733.801 164.032C733.257 164.16 732.761 164.368 732.313 164.656C731.865 164.912 731.497 165.248 731.209 165.664C730.953 166.08 730.825 166.592 730.825 167.2C730.825 168.256 731.193 169.024 731.929 169.504C732.665 169.984 733.769 170.4 735.241 170.752L738.457 171.52C740.025 171.872 741.321 172.592 742.345 173.68C743.401 174.736 743.929 176.064 743.929 177.664C743.929 178.88 743.673 179.936 743.161 180.832C742.681 181.696 742.025 182.416 741.193 182.992C740.393 183.536 739.465 183.936 738.409 184.192C737.353 184.448 736.281 184.576 735.193 184.576C733.465 184.576 731.849 184.256 730.345 183.616C728.873 182.944 727.609 181.808 726.553 180.208L729.289 178.336C729.929 179.36 730.729 180.176 731.689 180.784C732.681 181.392 733.849 181.696 735.193 181.696C735.833 181.696 736.473 181.632 737.113 181.504C737.753 181.344 738.313 181.12 738.793 180.832C739.305 180.512 739.705 180.112 739.993 179.632C740.313 179.152 740.473 178.592 740.473 177.952C740.473 176.832 740.057 176.032 739.225 175.552C738.393 175.04 737.385 174.64 736.201 174.352L733.129 173.632C732.745 173.536 732.217 173.376 731.545 173.152C730.905 172.928 730.265 172.592 729.625 172.144C729.017 171.696 728.489 171.12 728.041 170.416C727.593 169.68 727.369 168.784 727.369 167.728C727.369 166.576 727.593 165.568 728.041 164.704C728.521 163.84 729.145 163.136 729.913 162.592C730.713 162.048 731.609 161.648 732.601 161.392C733.593 161.104 734.617 160.96 735.673 160.96C737.241 160.96 738.697 161.264 740.041 161.872C741.385 162.48 742.425 163.52 743.161 164.992L740.329 166.864ZM751.742 190.72H748.526L751.742 179.44H755.63L751.742 190.72ZM804.717 178.624C804.141 179.488 803.421 180.304 802.557 181.072C801.725 181.84 800.765 182.512 799.677 183.088C798.589 183.632 797.405 184.064 796.125 184.384C794.877 184.704 793.549 184.864 792.141 184.864C789.613 184.864 787.261 184.416 785.085 183.52C782.941 182.624 781.069 181.392 779.469 179.824C777.901 178.224 776.669 176.336 775.773 174.16C774.877 171.984 774.429 169.6 774.429 167.008C774.429 164.416 774.877 162.032 775.773 159.856C776.669 157.68 777.901 155.808 779.469 154.24C781.069 152.64 782.941 151.392 785.085 150.496C787.261 149.6 789.613 149.152 792.141 149.152C794.253 149.152 796.365 149.568 798.477 150.4C800.589 151.232 802.397 152.608 803.901 154.528L800.877 156.784C800.525 156.24 800.045 155.696 799.437 155.152C798.829 154.608 798.125 154.128 797.325 153.712C796.557 153.296 795.725 152.96 794.829 152.704C793.933 152.448 793.037 152.32 792.141 152.32C789.965 152.32 788.013 152.72 786.285 153.52C784.557 154.32 783.085 155.392 781.869 156.736C780.685 158.08 779.773 159.648 779.133 161.44C778.493 163.2 778.173 165.056 778.173 167.008C778.173 168.96 778.493 170.832 779.133 172.624C779.773 174.384 780.685 175.936 781.869 177.28C783.085 178.624 784.557 179.696 786.285 180.496C788.013 181.296 789.965 181.696 792.141 181.696C793.037 181.696 793.917 181.616 794.781 181.456C795.677 181.296 796.541 181.024 797.373 180.64C798.237 180.256 799.037 179.744 799.773 179.104C800.541 178.432 801.245 177.6 801.885 176.608L804.717 178.624ZM813.986 180.832H832.178V184H810.53V150.016H831.602V153.184H813.986V164.752H830.45V167.92H813.986V180.832ZM868.359 167.008C868.359 165.056 868.039 163.2 867.399 161.44C866.759 159.648 865.831 158.08 864.615 156.736C863.431 155.392 861.975 154.32 860.247 153.52C858.519 152.72 856.567 152.32 854.391 152.32C852.215 152.32 850.263 152.72 848.535 153.52C846.807 154.32 845.335 155.392 844.119 156.736C842.935 158.08 842.023 159.648 841.383 161.44C840.743 163.2 840.423 165.056 840.423 167.008C840.423 168.96 840.743 170.832 841.383 172.624C842.023 174.384 842.935 175.936 844.119 177.28C845.335 178.624 846.807 179.696 848.535 180.496C850.263 181.296 852.215 181.696 854.391 181.696C856.567 181.696 858.519 181.296 860.247 180.496C861.975 179.696 863.431 178.624 864.615 177.28C865.831 175.936 866.759 174.384 867.399 172.624C868.039 170.832 868.359 168.96 868.359 167.008ZM872.103 167.008C872.103 169.6 871.655 171.984 870.759 174.16C869.863 176.336 868.615 178.224 867.015 179.824C865.447 181.392 863.575 182.624 861.399 183.52C859.255 184.416 856.919 184.864 854.391 184.864C851.863 184.864 849.511 184.416 847.335 183.52C845.191 182.624 843.319 181.392 841.719 179.824C840.151 178.224 838.919 176.336 838.023 174.16C837.127 171.984 836.679 169.6 836.679 167.008C836.679 164.416 837.127 162.032 838.023 159.856C838.919 157.68 840.151 155.808 841.719 154.24C843.319 152.64 845.191 151.392 847.335 150.496C849.511 149.6 851.863 149.152 854.391 149.152C856.919 149.152 859.255 149.6 861.399 150.496C863.575 151.392 865.447 152.64 867.015 154.24C868.615 155.808 869.863 157.68 870.759 159.856C871.655 162.032 872.103 164.416 872.103 167.008Z" fill="#420FFF"/>
</svg>
