<svg width="714" height="520" viewBox="0 0 714 520" fill="none" xmlns="http://www.w3.org/2000/svg">
<g filter="url(#filter0_d)">
<rect x="258" y="273.826" width="362" height="118.204" rx="24" fill="white"/>
</g>
<path d="M339.256 314.626V319.778H331.768V314.626H330.952V325.826H331.768V320.498H339.256V325.826H340.072V314.626H339.256ZM346.991 325.89C349.391 325.89 351.167 324.13 351.167 321.65C351.167 319.17 349.391 317.41 346.991 317.41C344.591 317.41 342.815 319.17 342.815 321.65C342.815 324.13 344.591 325.89 346.991 325.89ZM346.991 325.17C345.071 325.17 343.631 323.746 343.631 321.65C343.631 319.554 345.071 318.13 346.991 318.13C348.911 318.13 350.351 319.554 350.351 321.65C350.351 323.746 348.911 325.17 346.991 325.17ZM364.615 317.474L361.799 324.914L358.967 317.474H358.279L355.431 324.93L352.647 317.474H351.879L355.047 325.826H355.783L358.615 318.578L361.431 325.826H362.183L365.351 317.474H364.615ZM381.721 317.41C380.105 317.41 378.889 318.21 378.345 319.426C377.897 318.098 376.793 317.41 375.289 317.41C373.769 317.41 372.633 318.098 372.089 319.266V317.474H371.321V325.826H372.121V321.378C372.121 319.394 373.289 318.13 375.177 318.13C376.809 318.13 377.785 319.122 377.785 321.01V325.826H378.585V321.378C378.585 319.394 379.753 318.13 381.641 318.13C383.273 318.13 384.249 319.122 384.249 321.01V325.826H385.049V320.946C385.049 318.61 383.737 317.41 381.721 317.41ZM394.864 317.474V321.922C394.864 323.906 393.696 325.17 391.808 325.17C390.064 325.17 389.056 324.178 389.056 322.29V317.474H388.256V322.354C388.256 324.69 389.616 325.89 391.744 325.89C393.216 325.89 394.352 325.202 394.896 324.034V325.826H395.664V317.474H394.864ZM402.367 325.89C403.695 325.89 404.847 325.362 405.535 324.354L404.943 323.922C404.335 324.77 403.407 325.17 402.367 325.17C400.399 325.17 398.959 323.762 398.959 321.65C398.959 319.538 400.399 318.13 402.367 318.13C403.407 318.13 404.335 318.53 404.943 319.378L405.535 318.946C404.847 317.922 403.695 317.41 402.367 317.41C399.919 317.41 398.143 319.154 398.143 321.65C398.143 324.13 399.919 325.89 402.367 325.89ZM411.87 317.41C410.318 317.41 409.166 318.082 408.59 319.218V313.954H407.79V325.826H408.59V321.378C408.59 319.394 409.79 318.13 411.758 318.13C413.454 318.13 414.462 319.122 414.462 321.01V325.826H415.262V320.946C415.262 318.61 413.902 317.41 411.87 317.41ZM422.665 325.826H423.465V313.954H422.665V325.826ZM430.101 325.89C432.501 325.89 434.277 324.13 434.277 321.65C434.277 319.17 432.501 317.41 430.101 317.41C427.701 317.41 425.925 319.17 425.925 321.65C425.925 324.13 427.701 325.89 430.101 325.89ZM430.101 325.17C428.181 325.17 426.741 323.746 426.741 321.65C426.741 319.554 428.181 318.13 430.101 318.13C432.021 318.13 433.461 319.554 433.461 321.65C433.461 323.746 432.021 325.17 430.101 325.17ZM440.839 317.41C439.255 317.41 438.087 318.114 437.527 319.282V317.474H436.759V325.826H437.559V321.378C437.559 319.394 438.759 318.13 440.727 318.13C442.423 318.13 443.431 319.122 443.431 321.01V325.826H444.231V320.946C444.231 318.61 442.871 317.41 440.839 317.41ZM454.292 317.474V319.362C453.62 318.114 452.324 317.41 450.788 317.41C448.42 317.41 446.628 319.074 446.628 321.458C446.628 323.842 448.42 325.522 450.788 325.522C452.292 325.522 453.572 324.834 454.26 323.618V325.026C454.26 327.25 453.22 328.274 450.996 328.274C449.652 328.274 448.452 327.826 447.62 327.058L447.188 327.666C448.036 328.514 449.492 328.994 451.012 328.994C453.7 328.994 455.06 327.73 455.06 324.93V317.474H454.292ZM450.852 324.802C448.884 324.802 447.444 323.426 447.444 321.458C447.444 319.49 448.884 318.13 450.852 318.13C452.836 318.13 454.276 319.49 454.276 321.458C454.276 323.426 452.836 324.802 450.852 324.802ZM465.518 321.618C465.518 319.138 463.822 317.41 461.534 317.41C459.246 317.41 457.534 319.17 457.534 321.65C457.534 324.13 459.31 325.89 461.838 325.89C463.102 325.89 464.254 325.426 464.99 324.53L464.526 324.002C463.886 324.786 462.91 325.17 461.854 325.17C459.854 325.17 458.398 323.826 458.318 321.842H465.502C465.502 321.762 465.518 321.682 465.518 321.618ZM461.534 318.114C463.31 318.114 464.622 319.41 464.734 321.218H458.334C458.462 319.394 459.758 318.114 461.534 318.114ZM468.761 319.298V317.474H467.993V325.826H468.793V321.474C468.793 319.41 469.897 318.178 471.753 318.178C471.817 318.178 471.881 318.194 471.945 318.194V317.41C470.377 317.41 469.273 318.082 468.761 319.298ZM485.023 313.954V319.41C484.351 318.146 483.103 317.41 481.615 317.41C479.263 317.41 477.487 319.138 477.487 321.65C477.487 324.146 479.263 325.89 481.615 325.89C483.119 325.89 484.383 325.154 485.039 323.858V325.826H485.823V313.954H485.023ZM481.663 325.17C479.743 325.17 478.303 323.746 478.303 321.65C478.303 319.554 479.743 318.13 481.663 318.13C483.583 318.13 485.023 319.554 485.023 321.65C485.023 323.746 483.583 325.17 481.663 325.17ZM492.46 325.89C494.86 325.89 496.636 324.13 496.636 321.65C496.636 319.17 494.86 317.41 492.46 317.41C490.06 317.41 488.284 319.17 488.284 321.65C488.284 324.13 490.06 325.89 492.46 325.89ZM492.46 325.17C490.54 325.17 489.1 323.746 489.1 321.65C489.1 319.554 490.54 318.13 492.46 318.13C494.38 318.13 495.82 319.554 495.82 321.65C495.82 323.746 494.38 325.17 492.46 325.17ZM503.483 325.826H504.299V314.626H503.483V325.826ZM516.135 317.41C514.583 317.41 513.431 318.082 512.855 319.218V313.954H512.055V325.826H512.855V321.378C512.855 319.394 514.055 318.13 516.023 318.13C517.719 318.13 518.727 319.122 518.727 321.01V325.826H519.527V320.946C519.527 318.61 518.167 317.41 516.135 317.41ZM525.637 317.41C524.341 317.41 523.125 317.858 522.293 318.594L522.693 319.17C523.381 318.546 524.421 318.114 525.573 318.114C527.205 318.114 528.053 318.946 528.053 320.498V321.17H525.189C522.869 321.17 522.069 322.242 522.069 323.506C522.069 324.93 523.205 325.89 525.077 325.89C526.533 325.89 527.557 325.298 528.085 324.338V325.826H528.853V320.53C528.853 318.466 527.701 317.41 525.637 317.41ZM525.189 325.234C523.717 325.234 522.869 324.562 522.869 323.474C522.869 322.514 523.477 321.794 525.205 321.794H528.053V323.362C527.573 324.562 526.597 325.234 525.189 325.234ZM537.881 317.474L534.521 324.946L531.193 317.474H530.345L534.105 325.826H534.921L538.697 317.474H537.881ZM547.284 321.618C547.284 319.138 545.588 317.41 543.3 317.41C541.012 317.41 539.3 319.17 539.3 321.65C539.3 324.13 541.076 325.89 543.604 325.89C544.868 325.89 546.02 325.426 546.756 324.53L546.292 324.002C545.652 324.786 544.676 325.17 543.62 325.17C541.62 325.17 540.164 323.826 540.084 321.842H547.268C547.268 321.762 547.284 321.682 547.284 321.618ZM543.3 318.114C545.076 318.114 546.388 319.41 546.5 321.218H540.1C540.228 319.394 541.524 318.114 543.3 318.114ZM557.676 324.738C557.34 325.042 556.876 325.202 556.38 325.202C555.356 325.202 554.828 324.61 554.828 323.538V318.162H557.484V317.474H554.828V315.65H554.028V317.474H552.492V318.162H554.028V323.618C554.028 325.026 554.828 325.89 556.3 325.89C556.924 325.89 557.596 325.698 558.012 325.298L557.676 324.738ZM563.21 325.89C565.61 325.89 567.386 324.13 567.386 321.65C567.386 319.17 565.61 317.41 563.21 317.41C560.81 317.41 559.034 319.17 559.034 321.65C559.034 324.13 560.81 325.89 563.21 325.89ZM563.21 325.17C561.29 325.17 559.85 323.746 559.85 321.65C559.85 319.554 561.29 318.13 563.21 318.13C565.13 318.13 566.57 319.554 566.57 321.65C566.57 323.746 565.13 325.17 563.21 325.17ZM341.896 337.474L339.08 344.914L336.248 337.474H335.56L332.712 344.93L329.928 337.474H329.16L332.328 345.826H333.064L335.896 338.578L338.712 345.826H339.464L342.632 337.474H341.896ZM347.059 337.41C345.763 337.41 344.547 337.858 343.715 338.594L344.115 339.17C344.803 338.546 345.843 338.114 346.995 338.114C348.627 338.114 349.475 338.946 349.475 340.498V341.17H346.611C344.291 341.17 343.491 342.242 343.491 343.506C343.491 344.93 344.627 345.89 346.499 345.89C347.955 345.89 348.979 345.298 349.507 344.338V345.826H350.275V340.53C350.275 338.466 349.123 337.41 347.059 337.41ZM346.611 345.234C345.139 345.234 344.291 344.562 344.291 343.474C344.291 342.514 344.899 341.794 346.627 341.794H349.475V343.362C348.995 344.562 348.019 345.234 346.611 345.234ZM353.971 335.442C354.339 335.442 354.627 335.154 354.627 334.786C354.627 334.434 354.339 334.146 353.971 334.146C353.603 334.146 353.315 334.45 353.315 334.802C353.315 335.154 353.603 335.442 353.971 335.442ZM353.571 345.826H354.371V337.474H353.571V345.826ZM361.551 344.738C361.215 345.042 360.751 345.202 360.255 345.202C359.231 345.202 358.703 344.61 358.703 343.538V338.162H361.359V337.474H358.703V335.65H357.903V337.474H356.367V338.162H357.903V343.618C357.903 345.026 358.703 345.89 360.175 345.89C360.799 345.89 361.471 345.698 361.887 345.298L361.551 344.738ZM368.627 335.442C368.995 335.442 369.283 335.154 369.283 334.786C369.283 334.434 368.995 334.146 368.627 334.146C368.259 334.146 367.971 334.45 367.971 334.802C367.971 335.154 368.259 335.442 368.627 335.442ZM368.227 345.826H369.027V337.474H368.227V345.826ZM376.479 337.41C374.895 337.41 373.727 338.114 373.167 339.282V337.474H372.399V345.826H373.199V341.378C373.199 339.394 374.399 338.13 376.367 338.13C378.063 338.13 379.071 339.122 379.071 341.01V345.826H379.871V340.946C379.871 338.61 378.511 337.41 376.479 337.41ZM391.082 344.738C390.746 345.042 390.282 345.202 389.786 345.202C388.762 345.202 388.234 344.61 388.234 343.538V338.162H390.89V337.474H388.234V335.65H387.434V337.474H385.898V338.162H387.434V343.618C387.434 345.026 388.234 345.89 389.706 345.89C390.33 345.89 391.002 345.698 391.418 345.298L391.082 344.738ZM397.729 337.41C396.177 337.41 395.025 338.082 394.449 339.218V333.954H393.649V345.826H394.449V341.378C394.449 339.394 395.649 338.13 397.617 338.13C399.313 338.13 400.321 339.122 400.321 341.01V345.826H401.121V340.946C401.121 338.61 399.761 337.41 397.729 337.41ZM411.502 341.618C411.502 339.138 409.806 337.41 407.518 337.41C405.23 337.41 403.518 339.17 403.518 341.65C403.518 344.13 405.294 345.89 407.822 345.89C409.086 345.89 410.238 345.426 410.974 344.53L410.51 344.002C409.87 344.786 408.894 345.17 407.838 345.17C405.838 345.17 404.382 343.826 404.302 341.842H411.486C411.486 341.762 411.502 341.682 411.502 341.618ZM407.518 338.114C409.294 338.114 410.606 339.41 410.718 341.218H404.318C404.446 339.394 405.742 338.114 407.518 338.114ZM418.087 345.826H418.887V333.954H418.087V345.826ZM422.659 335.442C423.027 335.442 423.315 335.154 423.315 334.786C423.315 334.434 423.027 334.146 422.659 334.146C422.291 334.146 422.003 334.45 422.003 334.802C422.003 335.154 422.291 335.442 422.659 335.442ZM422.259 345.826H423.059V337.474H422.259V345.826ZM430.51 337.41C428.926 337.41 427.758 338.114 427.198 339.282V337.474H426.43V345.826H427.23V341.378C427.23 339.394 428.43 338.13 430.398 338.13C432.094 338.13 433.102 339.122 433.102 341.01V345.826H433.902V340.946C433.902 338.61 432.542 337.41 430.51 337.41ZM444.284 341.618C444.284 339.138 442.588 337.41 440.3 337.41C438.012 337.41 436.3 339.17 436.3 341.65C436.3 344.13 438.076 345.89 440.604 345.89C441.868 345.89 443.02 345.426 443.756 344.53L443.292 344.002C442.652 344.786 441.676 345.17 440.62 345.17C438.62 345.17 437.164 343.826 437.084 341.842H444.268C444.268 341.762 444.284 341.682 444.284 341.618ZM440.3 338.114C442.076 338.114 443.388 339.41 443.5 341.218H437.1C437.228 339.394 438.524 338.114 440.3 338.114ZM448.137 342.61H448.969C448.969 340.162 451.977 340.082 451.977 337.282C451.977 335.634 450.585 334.546 448.393 334.546C446.665 334.546 445.385 335.122 444.537 336.13L445.129 336.594C445.881 335.714 446.905 335.266 448.345 335.266C450.153 335.266 451.145 336.162 451.145 337.394C451.145 339.73 448.137 339.858 448.137 342.61ZM448.553 345.89C448.937 345.89 449.225 345.586 449.225 345.234C449.225 344.866 448.937 344.578 448.553 344.578C448.185 344.578 447.897 344.866 447.897 345.234C447.897 345.586 448.185 345.89 448.553 345.89Z" fill="black"/>
<g filter="url(#filter1_d)">
<path d="M314.332 425.041V382.795H356.578L314.332 425.041Z" fill="white"/>
</g>
<path d="M288.61 305.224L284.307 311.66C283.483 312.838 282.934 314.016 282.934 315.467C282.934 318.277 284.948 319.999 287.328 319.999C289.8 319.999 291.631 318.096 291.631 315.467C291.631 313.926 290.99 312.475 289.617 311.75L292.638 305.224H288.61ZM301.152 311.75L304.173 305.224H300.145L295.842 311.66C295.018 312.838 294.469 314.016 294.469 315.467C294.469 318.277 296.483 319.999 298.863 319.999C301.335 319.999 303.166 318.096 303.166 315.467C303.166 313.926 302.525 312.475 301.152 311.75Z" fill="black"/>
<g filter="url(#filter2_d)">
<rect x="94" y="94.4204" width="362" height="118.204" rx="24" fill="white"/>
</g>
<path d="M167.059 137.201H171.491C175.043 137.201 177.443 134.865 177.443 131.601C177.443 128.337 175.043 126.001 171.491 126.001H167.059V137.201ZM167.875 136.465V126.737H171.427C174.595 126.737 176.627 128.753 176.627 131.601C176.627 134.449 174.595 136.465 171.427 136.465H167.875ZM183.286 137.265C185.686 137.265 187.462 135.505 187.462 133.025C187.462 130.545 185.686 128.785 183.286 128.785C180.886 128.785 179.11 130.545 179.11 133.025C179.11 135.505 180.886 137.265 183.286 137.265ZM183.286 136.545C181.366 136.545 179.926 135.121 179.926 133.025C179.926 130.929 181.366 129.505 183.286 129.505C185.206 129.505 186.646 130.929 186.646 133.025C186.646 135.121 185.206 136.545 183.286 136.545ZM194.309 137.201H195.125V126.001H194.309V137.201ZM203.65 130.673V128.849H202.882V137.201H203.682V132.849C203.682 130.785 204.786 129.553 206.642 129.553C206.706 129.553 206.77 129.569 206.834 129.569V128.785C205.266 128.785 204.162 129.457 203.65 130.673ZM216.032 132.993C216.032 130.513 214.336 128.785 212.048 128.785C209.76 128.785 208.048 130.545 208.048 133.025C208.048 135.505 209.824 137.265 212.352 137.265C213.616 137.265 214.768 136.801 215.504 135.905L215.04 135.377C214.4 136.161 213.424 136.545 212.368 136.545C210.368 136.545 208.912 135.201 208.832 133.217H216.016C216.016 133.137 216.032 133.057 216.032 132.993ZM212.048 129.489C213.824 129.489 215.136 130.785 215.248 132.593H208.848C208.976 130.769 210.272 129.489 212.048 129.489ZM228.907 128.785C227.291 128.785 226.075 129.585 225.531 130.801C225.083 129.473 223.979 128.785 222.475 128.785C220.955 128.785 219.819 129.473 219.275 130.641V128.849H218.507V137.201H219.307V132.753C219.307 130.769 220.475 129.505 222.363 129.505C223.995 129.505 224.971 130.497 224.971 132.385V137.201H225.771V132.753C225.771 130.769 226.939 129.505 228.827 129.505C230.459 129.505 231.435 130.497 231.435 132.385V137.201H232.235V132.321C232.235 129.985 230.923 128.785 228.907 128.785ZM238.817 137.265C241.217 137.265 242.993 135.505 242.993 133.025C242.993 130.545 241.217 128.785 238.817 128.785C236.417 128.785 234.641 130.545 234.641 133.025C234.641 135.505 236.417 137.265 238.817 137.265ZM238.817 136.545C236.897 136.545 235.457 135.121 235.457 133.025C235.457 130.929 236.897 129.505 238.817 129.505C240.737 129.505 242.177 130.929 242.177 133.025C242.177 135.121 240.737 136.545 238.817 136.545ZM251.129 128.849L247.769 136.321L244.441 128.849H243.593L247.353 137.201H248.169L251.945 128.849H251.129ZM260.532 132.993C260.532 130.513 258.836 128.785 256.548 128.785C254.26 128.785 252.548 130.545 252.548 133.025C252.548 135.505 254.324 137.265 256.852 137.265C258.116 137.265 259.268 136.801 260.004 135.905L259.54 135.377C258.9 136.161 257.924 136.545 256.868 136.545C254.868 136.545 253.412 135.201 253.332 133.217H260.516C260.516 133.137 260.532 133.057 260.532 132.993ZM256.548 129.489C258.324 129.489 259.636 130.785 259.748 132.593H253.348C253.476 130.769 254.772 129.489 256.548 129.489ZM277.516 128.785C275.9 128.785 274.684 129.585 274.14 130.801C273.692 129.473 272.588 128.785 271.084 128.785C269.564 128.785 268.428 129.473 267.884 130.641V128.849H267.116V137.201H267.916V132.753C267.916 130.769 269.084 129.505 270.972 129.505C272.604 129.505 273.58 130.497 273.58 132.385V137.201H274.38V132.753C274.38 130.769 275.548 129.505 277.436 129.505C279.068 129.505 280.044 130.497 280.044 132.385V137.201H280.844V132.321C280.844 129.985 279.532 128.785 277.516 128.785ZM289.879 128.849L286.535 136.321L283.191 128.849H282.343L286.103 137.169L285.655 138.177C285.143 139.313 284.583 139.665 283.815 139.665C283.191 139.665 282.695 139.457 282.263 139.009L281.863 139.617C282.343 140.113 283.047 140.369 283.799 140.369C284.903 140.369 285.735 139.873 286.407 138.337L290.695 128.849H289.879ZM296.953 126.817C297.321 126.817 297.609 126.529 297.609 126.161C297.609 125.809 297.321 125.521 296.953 125.521C296.585 125.521 296.297 125.825 296.297 126.177C296.297 126.529 296.585 126.817 296.953 126.817ZM296.553 137.201H297.353V128.849H296.553V137.201ZM304.997 126.001H300.981V137.201H301.797V133.537H304.997C307.813 133.537 309.509 132.129 309.509 129.777C309.509 127.409 307.813 126.001 304.997 126.001ZM304.997 132.801H301.797V126.737H304.997C307.397 126.737 308.677 127.841 308.677 129.777C308.677 131.697 307.397 132.801 304.997 132.801ZM314.744 128.785C313.448 128.785 312.232 129.233 311.4 129.969L311.8 130.545C312.488 129.921 313.528 129.489 314.68 129.489C316.312 129.489 317.16 130.321 317.16 131.873V132.545H314.296C311.976 132.545 311.176 133.617 311.176 134.881C311.176 136.305 312.312 137.265 314.184 137.265C315.64 137.265 316.664 136.673 317.192 135.713V137.201H317.96V131.905C317.96 129.841 316.808 128.785 314.744 128.785ZM314.296 136.609C312.824 136.609 311.976 135.937 311.976 134.849C311.976 133.889 312.584 133.169 314.312 133.169H317.16V134.737C316.68 135.937 315.704 136.609 314.296 136.609ZM327.896 125.329V130.785C327.224 129.521 325.976 128.785 324.488 128.785C322.136 128.785 320.36 130.513 320.36 133.025C320.36 135.521 322.136 137.265 324.488 137.265C325.992 137.265 327.256 136.529 327.912 135.233V137.201H328.696V125.329H327.896ZM324.536 136.545C322.616 136.545 321.176 135.121 321.176 133.025C321.176 130.929 322.616 129.505 324.536 129.505C326.456 129.505 327.896 130.929 327.896 133.025C327.896 135.121 326.456 136.545 324.536 136.545ZM339.442 137.265C341.842 137.265 343.618 135.505 343.618 133.025C343.618 130.545 341.842 128.785 339.442 128.785C337.042 128.785 335.266 130.545 335.266 133.025C335.266 135.505 337.042 137.265 339.442 137.265ZM339.442 136.545C337.522 136.545 336.082 135.121 336.082 133.025C336.082 130.929 337.522 129.505 339.442 129.505C341.362 129.505 342.802 130.929 342.802 133.025C342.802 135.121 341.362 136.545 339.442 136.545ZM346.868 130.673V128.849H346.1V137.201H346.9V132.849C346.9 130.785 348.004 129.553 349.86 129.553C349.924 129.553 349.988 129.569 350.052 129.569V128.785C348.484 128.785 347.38 129.457 346.868 130.673ZM360.587 128.785C359.003 128.785 357.835 129.489 357.275 130.657V128.849H356.507V137.201H357.307V132.753C357.307 130.769 358.507 129.505 360.475 129.505C362.171 129.505 363.179 130.497 363.179 132.385V137.201H363.979V132.321C363.979 129.985 362.619 128.785 360.587 128.785ZM370.552 137.265C372.952 137.265 374.728 135.505 374.728 133.025C374.728 130.545 372.952 128.785 370.552 128.785C368.152 128.785 366.376 130.545 366.376 133.025C366.376 135.505 368.152 137.265 370.552 137.265ZM370.552 136.545C368.632 136.545 367.192 135.121 367.192 133.025C367.192 130.929 368.632 129.505 370.552 129.505C372.472 129.505 373.912 130.929 373.912 133.025C373.912 135.121 372.472 136.545 370.552 136.545ZM381.018 136.113C380.682 136.417 380.218 136.577 379.722 136.577C378.698 136.577 378.17 135.985 378.17 134.913V129.537H380.826V128.849H378.17V127.025H377.37V128.849H375.834V129.537H377.37V134.993C377.37 136.401 378.17 137.265 379.642 137.265C380.266 137.265 380.938 137.073 381.354 136.673L381.018 136.113ZM385.448 133.985H386.28C386.28 131.537 389.288 131.457 389.288 128.657C389.288 127.009 387.896 125.921 385.704 125.921C383.976 125.921 382.696 126.497 381.848 127.505L382.44 127.969C383.192 127.089 384.216 126.641 385.656 126.641C387.464 126.641 388.456 127.537 388.456 128.769C388.456 131.105 385.448 131.233 385.448 133.985ZM385.864 137.265C386.248 137.265 386.536 136.961 386.536 136.609C386.536 136.241 386.248 135.953 385.864 135.953C385.496 135.953 385.208 136.241 385.208 136.609C385.208 136.961 385.496 137.265 385.864 137.265ZM169.203 157.201H170.019V146.737H174.051V146.001H165.171V146.737H169.203V157.201ZM179.899 148.785C178.347 148.785 177.195 149.457 176.619 150.593V145.329H175.819V157.201H176.619V152.753C176.619 150.769 177.819 149.505 179.787 149.505C181.483 149.505 182.491 150.497 182.491 152.385V157.201H183.291V152.321C183.291 149.985 181.931 148.785 179.899 148.785ZM193.672 152.993C193.672 150.513 191.976 148.785 189.688 148.785C187.4 148.785 185.688 150.545 185.688 153.025C185.688 155.505 187.464 157.265 189.992 157.265C191.256 157.265 192.408 156.801 193.144 155.905L192.68 155.377C192.04 156.161 191.064 156.545 190.008 156.545C188.008 156.545 186.552 155.201 186.472 153.217H193.656C193.656 153.137 193.672 153.057 193.672 152.993ZM189.688 149.489C191.464 149.489 192.776 150.785 192.888 152.593H186.488C186.616 150.769 187.912 149.489 189.688 149.489ZM202.369 157.265C204.497 157.265 205.665 156.337 205.665 154.977C205.665 151.793 200.129 153.569 200.129 151.057C200.129 150.161 200.849 149.489 202.481 149.489C203.377 149.489 204.289 149.729 204.993 150.241L205.361 149.601C204.705 149.105 203.553 148.785 202.497 148.785C200.385 148.785 199.329 149.809 199.329 151.073C199.329 154.353 204.865 152.561 204.865 154.993C204.865 155.937 204.161 156.561 202.401 156.561C201.169 156.561 200.033 156.097 199.393 155.553L199.025 156.193C199.681 156.801 200.993 157.265 202.369 157.265ZM214.969 152.993C214.969 150.513 213.273 148.785 210.985 148.785C208.697 148.785 206.985 150.545 206.985 153.025C206.985 155.505 208.761 157.265 211.289 157.265C212.553 157.265 213.705 156.801 214.441 155.905L213.977 155.377C213.337 156.161 212.361 156.545 211.305 156.545C209.305 156.545 207.849 155.201 207.769 153.217H214.953C214.953 153.137 214.969 153.057 214.969 152.993ZM210.985 149.489C212.761 149.489 214.073 150.785 214.185 152.593H207.785C207.913 150.769 209.209 149.489 210.985 149.489ZM220.756 157.265C222.084 157.265 223.236 156.737 223.924 155.729L223.332 155.297C222.724 156.145 221.796 156.545 220.756 156.545C218.788 156.545 217.348 155.137 217.348 153.025C217.348 150.913 218.788 149.505 220.756 149.505C221.796 149.505 222.724 149.905 223.332 150.753L223.924 150.321C223.236 149.297 222.084 148.785 220.756 148.785C218.308 148.785 216.532 150.529 216.532 153.025C216.532 155.505 218.308 157.265 220.756 157.265ZM232.831 148.849V153.297C232.831 155.281 231.663 156.545 229.775 156.545C228.031 156.545 227.023 155.553 227.023 153.665V148.849H226.223V153.729C226.223 156.065 227.583 157.265 229.711 157.265C231.183 157.265 232.319 156.577 232.863 155.409V157.201H233.631V148.849H232.831ZM237.79 150.673V148.849H237.022V157.201H237.822V152.849C237.822 150.785 238.926 149.553 240.782 149.553C240.846 149.553 240.91 149.569 240.974 149.569V148.785C239.406 148.785 238.302 149.457 237.79 150.673ZM243.578 146.817C243.946 146.817 244.234 146.529 244.234 146.161C244.234 145.809 243.946 145.521 243.578 145.521C243.21 145.521 242.922 145.825 242.922 146.177C242.922 146.529 243.21 146.817 243.578 146.817ZM243.178 157.201H243.978V148.849H243.178V157.201ZM251.158 156.113C250.822 156.417 250.358 156.577 249.862 156.577C248.838 156.577 248.31 155.985 248.31 154.913V149.537H250.966V148.849H248.31V147.025H247.51V148.849H245.974V149.537H247.51V154.993C247.51 156.401 248.31 157.265 249.782 157.265C250.406 157.265 251.078 157.073 251.494 156.673L251.158 156.113ZM259.457 148.849L256.113 156.321L252.769 148.849H251.921L255.681 157.169L255.233 158.177C254.721 159.313 254.161 159.665 253.393 159.665C252.769 159.665 252.273 159.457 251.841 159.009L251.441 159.617C251.921 160.113 252.625 160.369 253.377 160.369C254.481 160.369 255.313 159.873 255.985 158.337L260.273 148.849H259.457ZM272.884 148.849V150.737C272.212 149.489 270.916 148.785 269.38 148.785C267.012 148.785 265.22 150.449 265.22 152.833C265.22 155.217 267.012 156.897 269.38 156.897C270.884 156.897 272.164 156.209 272.852 154.993V156.401C272.852 158.625 271.812 159.649 269.588 159.649C268.244 159.649 267.044 159.201 266.212 158.433L265.78 159.041C266.628 159.889 268.084 160.369 269.604 160.369C272.292 160.369 273.652 159.105 273.652 156.305V148.849H272.884ZM269.444 156.177C267.476 156.177 266.036 154.801 266.036 152.833C266.036 150.865 267.476 149.505 269.444 149.505C271.428 149.505 272.868 150.865 272.868 152.833C272.868 154.801 271.428 156.177 269.444 156.177ZM283.55 148.849V153.297C283.55 155.281 282.382 156.545 280.494 156.545C278.75 156.545 277.742 155.553 277.742 153.665V148.849H276.942V153.729C276.942 156.065 278.302 157.265 280.43 157.265C281.902 157.265 283.038 156.577 283.582 155.409V157.201H284.35V148.849H283.55ZM288.141 146.817C288.509 146.817 288.797 146.529 288.797 146.161C288.797 145.809 288.509 145.521 288.141 145.521C287.773 145.521 287.485 145.825 287.485 146.177C287.485 146.529 287.773 146.817 288.141 146.817ZM287.741 157.201H288.541V148.849H287.741V157.201ZM298.537 145.329V150.785C297.865 149.521 296.617 148.785 295.129 148.785C292.777 148.785 291.001 150.513 291.001 153.025C291.001 155.521 292.777 157.265 295.129 157.265C296.633 157.265 297.897 156.529 298.553 155.233V157.201H299.337V145.329H298.537ZM295.177 156.545C293.257 156.545 291.817 155.121 291.817 153.025C291.817 150.929 293.257 149.505 295.177 149.505C297.097 149.505 298.537 150.929 298.537 153.025C298.537 155.121 297.097 156.545 295.177 156.545ZM309.782 152.993C309.782 150.513 308.086 148.785 305.798 148.785C303.51 148.785 301.798 150.545 301.798 153.025C301.798 155.505 303.574 157.265 306.102 157.265C307.366 157.265 308.518 156.801 309.254 155.905L308.79 155.377C308.15 156.161 307.174 156.545 306.118 156.545C304.118 156.545 302.662 155.201 302.582 153.217H309.766C309.766 153.137 309.782 153.057 309.782 152.993ZM305.798 149.489C307.574 149.489 308.886 150.785 308.998 152.593H302.598C302.726 150.769 304.022 149.489 305.798 149.489ZM312.257 157.201H313.057V145.329H312.257V157.201ZM316.828 146.817C317.196 146.817 317.484 146.529 317.484 146.161C317.484 145.809 317.196 145.521 316.828 145.521C316.46 145.521 316.172 145.825 316.172 146.177C316.172 146.529 316.46 146.817 316.828 146.817ZM316.428 157.201H317.228V148.849H316.428V157.201ZM324.68 148.785C323.096 148.785 321.928 149.489 321.368 150.657V148.849H320.6V157.201H321.4V152.753C321.4 150.769 322.6 149.505 324.568 149.505C326.264 149.505 327.272 150.497 327.272 152.385V157.201H328.072V152.321C328.072 149.985 326.712 148.785 324.68 148.785ZM338.454 152.993C338.454 150.513 336.758 148.785 334.47 148.785C332.182 148.785 330.47 150.545 330.47 153.025C330.47 155.505 332.246 157.265 334.774 157.265C336.038 157.265 337.19 156.801 337.926 155.905L337.462 155.377C336.822 156.161 335.846 156.545 334.79 156.545C332.79 156.545 331.334 155.201 331.254 153.217H338.438C338.438 153.137 338.454 153.057 338.454 152.993ZM334.47 149.489C336.246 149.489 337.558 150.785 337.67 152.593H331.27C331.398 150.769 332.694 149.489 334.47 149.489ZM343.04 157.265C345.168 157.265 346.336 156.337 346.336 154.977C346.336 151.793 340.8 153.569 340.8 151.057C340.8 150.161 341.52 149.489 343.152 149.489C344.048 149.489 344.96 149.729 345.664 150.241L346.032 149.601C345.376 149.105 344.224 148.785 343.168 148.785C341.056 148.785 340 149.809 340 151.073C340 154.353 345.536 152.561 345.536 154.993C345.536 155.937 344.832 156.561 343.072 156.561C341.84 156.561 340.704 156.097 340.064 155.553L339.696 156.193C340.352 156.801 341.664 157.265 343.04 157.265ZM355.99 157.265C357.318 157.265 358.47 156.737 359.158 155.729L358.566 155.297C357.958 156.145 357.03 156.545 355.99 156.545C354.022 156.545 352.582 155.137 352.582 153.025C352.582 150.913 354.022 149.505 355.99 149.505C357.03 149.505 357.958 149.905 358.566 150.753L359.158 150.321C358.47 149.297 357.318 148.785 355.99 148.785C353.542 148.785 351.766 150.529 351.766 153.025C351.766 155.505 353.542 157.265 355.99 157.265ZM364.369 148.785C363.073 148.785 361.857 149.233 361.025 149.969L361.425 150.545C362.113 149.921 363.153 149.489 364.305 149.489C365.937 149.489 366.785 150.321 366.785 151.873V152.545H363.921C361.601 152.545 360.801 153.617 360.801 154.881C360.801 156.305 361.937 157.265 363.809 157.265C365.265 157.265 366.289 156.673 366.817 155.713V157.201H367.585V151.905C367.585 149.841 366.433 148.785 364.369 148.785ZM363.921 156.609C362.449 156.609 361.601 155.937 361.601 154.849C361.601 153.889 362.209 153.169 363.937 153.169H366.785V154.737C366.305 155.937 365.329 156.609 363.921 156.609ZM374.962 148.785C373.378 148.785 372.21 149.489 371.65 150.657V148.849H370.882V157.201H371.682V152.753C371.682 150.769 372.882 149.505 374.85 149.505C376.546 149.505 377.554 150.497 377.554 152.385V157.201H378.354V152.321C378.354 149.985 376.994 148.785 374.962 148.785ZM389.949 148.785C388.477 148.785 387.229 149.505 386.557 150.753V145.329H385.757V157.201H386.525V155.233C387.181 156.513 388.445 157.265 389.949 157.265C392.301 157.265 394.077 155.521 394.077 153.025C394.077 150.513 392.301 148.785 389.949 148.785ZM389.901 156.545C387.981 156.545 386.541 155.121 386.541 153.025C386.541 150.929 387.981 149.505 389.901 149.505C391.821 149.505 393.277 150.929 393.277 153.025C393.277 155.121 391.821 156.545 389.901 156.545ZM403.625 152.993C403.625 150.513 401.929 148.785 399.641 148.785C397.353 148.785 395.641 150.545 395.641 153.025C395.641 155.505 397.417 157.265 399.945 157.265C401.209 157.265 402.361 156.801 403.097 155.905L402.633 155.377C401.993 156.161 401.017 156.545 399.961 156.545C397.961 156.545 396.505 155.201 396.425 153.217H403.609C403.609 153.137 403.625 153.057 403.625 152.993ZM399.641 149.489C401.417 149.489 402.729 150.785 402.841 152.593H396.441C396.569 150.769 397.865 149.489 399.641 149.489ZM173.427 165.329V170.785C172.755 169.521 171.507 168.785 170.019 168.785C167.667 168.785 165.891 170.513 165.891 173.025C165.891 175.521 167.667 177.265 170.019 177.265C171.523 177.265 172.787 176.529 173.443 175.233V177.201H174.227V165.329H173.427ZM170.067 176.545C168.147 176.545 166.707 175.121 166.707 173.025C166.707 170.929 168.147 169.505 170.067 169.505C171.987 169.505 173.427 170.929 173.427 173.025C173.427 175.121 171.987 176.545 170.067 176.545ZM178 166.817C178.368 166.817 178.656 166.529 178.656 166.161C178.656 165.809 178.368 165.521 178 165.521C177.632 165.521 177.344 165.825 177.344 166.177C177.344 166.529 177.632 166.817 178 166.817ZM177.6 177.201H178.4V168.849H177.6V177.201ZM184.284 165.953C184.78 165.953 185.244 166.113 185.58 166.417L185.9 165.809C185.5 165.441 184.86 165.265 184.252 165.265C182.764 165.265 181.932 166.177 181.932 167.569V168.849H180.396V169.537H181.932V177.201H182.732V169.537H185.388V168.849H182.716V167.633C182.716 166.529 183.244 165.953 184.284 165.953ZM189.534 165.953C190.03 165.953 190.494 166.113 190.83 166.417L191.15 165.809C190.75 165.441 190.11 165.265 189.502 165.265C188.014 165.265 187.182 166.177 187.182 167.569V168.849H185.646V169.537H187.182V177.201H187.982V169.537H190.638V168.849H187.966V167.633C187.966 166.529 188.494 165.953 189.534 165.953ZM199.204 172.993C199.204 170.513 197.508 168.785 195.22 168.785C192.932 168.785 191.22 170.545 191.22 173.025C191.22 175.505 192.996 177.265 195.524 177.265C196.788 177.265 197.94 176.801 198.676 175.905L198.212 175.377C197.572 176.161 196.596 176.545 195.54 176.545C193.54 176.545 192.084 175.201 192.004 173.217H199.188C199.188 173.137 199.204 173.057 199.204 172.993ZM195.22 169.489C196.996 169.489 198.308 170.785 198.42 172.593H192.02C192.148 170.769 193.444 169.489 195.22 169.489ZM202.446 170.673V168.849H201.678V177.201H202.478V172.849C202.478 170.785 203.582 169.553 205.438 169.553C205.502 169.553 205.566 169.569 205.63 169.569V168.785C204.062 168.785 202.958 169.457 202.446 170.673ZM214.829 172.993C214.829 170.513 213.133 168.785 210.845 168.785C208.557 168.785 206.845 170.545 206.845 173.025C206.845 175.505 208.621 177.265 211.149 177.265C212.413 177.265 213.565 176.801 214.301 175.905L213.837 175.377C213.197 176.161 212.221 176.545 211.165 176.545C209.165 176.545 207.709 175.201 207.629 173.217H214.813C214.813 173.137 214.829 173.057 214.829 172.993ZM210.845 169.489C212.621 169.489 213.933 170.785 214.045 172.593H207.645C207.773 170.769 209.069 169.489 210.845 169.489ZM221.383 168.785C219.799 168.785 218.631 169.489 218.071 170.657V168.849H217.303V177.201H218.103V172.753C218.103 170.769 219.303 169.505 221.271 169.505C222.967 169.505 223.975 170.497 223.975 172.385V177.201H224.775V172.321C224.775 169.985 223.415 168.785 221.383 168.785ZM231.877 176.113C231.541 176.417 231.077 176.577 230.581 176.577C229.557 176.577 229.029 175.985 229.029 174.913V169.537H231.685V168.849H229.029V167.025H228.229V168.849H226.693V169.537H228.229V174.993C228.229 176.401 229.029 177.265 230.501 177.265C231.125 177.265 231.797 177.073 232.213 176.673L231.877 176.113ZM242.745 168.785C241.273 168.785 240.025 169.505 239.353 170.753V165.329H238.553V177.201H239.321V175.233C239.977 176.513 241.241 177.265 242.745 177.265C245.097 177.265 246.873 175.521 246.873 173.025C246.873 170.513 245.097 168.785 242.745 168.785ZM242.697 176.545C240.777 176.545 239.337 175.121 239.337 173.025C239.337 170.929 240.777 169.505 242.697 169.505C244.617 169.505 246.073 170.929 246.073 173.025C246.073 175.121 244.617 176.545 242.697 176.545ZM256.422 172.993C256.422 170.513 254.726 168.785 252.438 168.785C250.15 168.785 248.438 170.545 248.438 173.025C248.438 175.505 250.214 177.265 252.742 177.265C254.006 177.265 255.158 176.801 255.894 175.905L255.43 175.377C254.79 176.161 253.814 176.545 252.758 176.545C250.758 176.545 249.302 175.201 249.222 173.217H256.406C256.406 173.137 256.422 173.057 256.422 172.993ZM252.438 169.489C254.214 169.489 255.526 170.785 255.638 172.593H249.238C249.366 170.769 250.662 169.489 252.438 169.489ZM262.705 176.113C262.369 176.417 261.905 176.577 261.409 176.577C260.385 176.577 259.857 175.985 259.857 174.913V169.537H262.513V168.849H259.857V167.025H259.057V168.849H257.521V169.537H259.057V174.993C259.057 176.401 259.857 177.265 261.329 177.265C261.953 177.265 262.625 177.073 263.041 176.673L262.705 176.113ZM276.316 168.849L273.5 176.289L270.668 168.849H269.98L267.132 176.305L264.348 168.849H263.58L266.748 177.201H267.484L270.316 169.953L273.132 177.201H273.884L277.052 168.849H276.316ZM285.75 172.993C285.75 170.513 284.054 168.785 281.766 168.785C279.478 168.785 277.766 170.545 277.766 173.025C277.766 175.505 279.542 177.265 282.07 177.265C283.334 177.265 284.486 176.801 285.222 175.905L284.758 175.377C284.118 176.161 283.142 176.545 282.086 176.545C280.086 176.545 278.63 175.201 278.55 173.217H285.734C285.734 173.137 285.75 173.057 285.75 172.993ZM281.766 169.489C283.542 169.489 284.854 170.785 284.966 172.593H278.566C278.694 170.769 279.99 169.489 281.766 169.489ZM295.297 172.993C295.297 170.513 293.601 168.785 291.313 168.785C289.025 168.785 287.313 170.545 287.313 173.025C287.313 175.505 289.089 177.265 291.617 177.265C292.881 177.265 294.033 176.801 294.769 175.905L294.305 175.377C293.665 176.161 292.689 176.545 291.633 176.545C289.633 176.545 288.177 175.201 288.097 173.217H295.281C295.281 173.137 295.297 173.057 295.297 172.993ZM291.313 169.489C293.089 169.489 294.401 170.785 294.513 172.593H288.113C288.241 170.769 289.537 169.489 291.313 169.489ZM301.852 168.785C300.268 168.785 299.1 169.489 298.54 170.657V168.849H297.772V177.201H298.572V172.753C298.572 170.769 299.772 169.505 301.74 169.505C303.436 169.505 304.444 170.497 304.444 172.385V177.201H305.244V172.321C305.244 169.985 303.884 168.785 301.852 168.785ZM315.463 168.785C314.167 168.785 312.951 169.233 312.119 169.969L312.519 170.545C313.207 169.921 314.247 169.489 315.399 169.489C317.031 169.489 317.879 170.321 317.879 171.873V172.545H315.015C312.695 172.545 311.895 173.617 311.895 174.881C311.895 176.305 313.031 177.265 314.903 177.265C316.359 177.265 317.383 176.673 317.911 175.713V177.201H318.679V171.905C318.679 169.841 317.527 168.785 315.463 168.785ZM315.015 176.609C313.543 176.609 312.695 175.937 312.695 174.849C312.695 173.889 313.303 173.169 315.031 173.169H317.879V174.737C317.399 175.937 316.423 176.609 315.015 176.609ZM322.375 166.817C322.743 166.817 323.031 166.529 323.031 166.161C323.031 165.809 322.743 165.521 322.375 165.521C322.007 165.521 321.719 165.825 321.719 166.177C321.719 166.529 322.007 166.817 322.375 166.817ZM321.975 177.201H322.775V168.849H321.975V177.201ZM326.915 170.673V168.849H326.147V177.201H326.947V172.849C326.947 170.785 328.051 169.553 329.907 169.553C329.971 169.553 330.035 169.569 330.099 169.569V168.785C328.531 168.785 327.427 169.457 326.915 170.673ZM336.495 168.785C334.991 168.785 333.727 169.537 333.071 170.817V168.849H332.303V180.305H333.103V175.297C333.775 176.545 335.023 177.265 336.495 177.265C338.847 177.265 340.623 175.537 340.623 173.025C340.623 170.529 338.847 168.785 336.495 168.785ZM336.447 176.545C334.527 176.545 333.087 175.121 333.087 173.025C333.087 170.929 334.527 169.505 336.447 169.505C338.367 169.505 339.823 170.929 339.823 173.025C339.823 175.121 338.367 176.545 336.447 176.545ZM346.364 177.265C348.764 177.265 350.54 175.505 350.54 173.025C350.54 170.545 348.764 168.785 346.364 168.785C343.964 168.785 342.188 170.545 342.188 173.025C342.188 175.505 343.964 177.265 346.364 177.265ZM346.364 176.545C344.444 176.545 343.004 175.121 343.004 173.025C343.004 170.929 344.444 169.505 346.364 169.505C348.284 169.505 349.724 170.929 349.724 173.025C349.724 175.121 348.284 176.545 346.364 176.545ZM353.79 170.673V168.849H353.022V177.201H353.822V172.849C353.822 170.785 354.926 169.553 356.782 169.553C356.846 169.553 356.91 169.569 356.974 169.569V168.785C355.406 168.785 354.302 169.457 353.79 170.673ZM363.361 176.113C363.025 176.417 362.561 176.577 362.065 176.577C361.041 176.577 360.513 175.985 360.513 174.913V169.537H363.169V168.849H360.513V167.025H359.713V168.849H358.177V169.537H359.713V174.993C359.713 176.401 360.513 177.265 361.985 177.265C362.609 177.265 363.281 177.073 363.697 176.673L363.361 176.113ZM368.04 177.265C370.168 177.265 371.336 176.337 371.336 174.977C371.336 171.793 365.8 173.569 365.8 171.057C365.8 170.161 366.52 169.489 368.152 169.489C369.048 169.489 369.96 169.729 370.664 170.241L371.032 169.601C370.376 169.105 369.224 168.785 368.168 168.785C366.056 168.785 365 169.809 365 171.073C365 174.353 370.536 172.561 370.536 174.993C370.536 175.937 369.832 176.561 368.072 176.561C366.84 176.561 365.704 176.097 365.064 175.553L364.696 176.193C365.352 176.801 366.664 177.265 368.04 177.265ZM373.473 177.265C373.841 177.265 374.145 176.961 374.145 176.577C374.145 176.193 373.841 175.905 373.473 175.905C373.105 175.905 372.801 176.193 372.801 176.577C372.801 176.961 373.105 177.265 373.473 177.265Z" fill="black"/>
<g filter="url(#filter3_d)">
<path d="M150.332 245.636V203.39H192.578L150.332 245.636Z" fill="white"/>
</g>
<path d="M124.61 125.818L120.307 132.254C119.483 133.433 118.934 134.611 118.934 136.062C118.934 138.872 120.948 140.594 123.328 140.594C125.8 140.594 127.631 138.69 127.631 136.062C127.631 134.521 126.99 133.07 125.617 132.345L128.638 125.818H124.61ZM137.152 132.345L140.173 125.818H136.145L131.842 132.254C131.018 133.433 130.469 134.611 130.469 136.062C130.469 138.872 132.483 140.594 134.863 140.594C137.335 140.594 139.166 138.69 139.166 136.062C139.166 134.521 138.525 133.07 137.152 132.345Z" fill="black"/>
<defs>
<filter id="filter0_d" x="164" y="179.826" width="550" height="306.204" filterUnits="userSpaceOnUse" color-interpolation-filters="sRGB">
<feFlood flood-opacity="0" result="BackgroundImageFix"/>
<feColorMatrix in="SourceAlpha" type="matrix" values="0 0 0 0 0 0 0 0 0 0 0 0 0 0 0 0 0 0 127 0"/>
<feOffset/>
<feGaussianBlur stdDeviation="47"/>
<feColorMatrix type="matrix" values="0 0 0 0 0.0705882 0 0 0 0 0.239843 0 0 0 0 0.396078 0 0 0 0.1 0"/>
<feBlend mode="normal" in2="BackgroundImageFix" result="effect1_dropShadow"/>
<feBlend mode="normal" in="SourceGraphic" in2="effect1_dropShadow" result="shape"/>
</filter>
<filter id="filter1_d" x="220.332" y="288.795" width="230.246" height="230.246" filterUnits="userSpaceOnUse" color-interpolation-filters="sRGB">
<feFlood flood-opacity="0" result="BackgroundImageFix"/>
<feColorMatrix in="SourceAlpha" type="matrix" values="0 0 0 0 0 0 0 0 0 0 0 0 0 0 0 0 0 0 127 0"/>
<feOffset/>
<feGaussianBlur stdDeviation="47"/>
<feColorMatrix type="matrix" values="0 0 0 0 0.0705882 0 0 0 0 0.239843 0 0 0 0 0.396078 0 0 0 0.1 0"/>
<feBlend mode="normal" in2="BackgroundImageFix" result="effect1_dropShadow"/>
<feBlend mode="normal" in="SourceGraphic" in2="effect1_dropShadow" result="shape"/>
</filter>
<filter id="filter2_d" x="0" y="0.42041" width="550" height="306.204" filterUnits="userSpaceOnUse" color-interpolation-filters="sRGB">
<feFlood flood-opacity="0" result="BackgroundImageFix"/>
<feColorMatrix in="SourceAlpha" type="matrix" values="0 0 0 0 0 0 0 0 0 0 0 0 0 0 0 0 0 0 127 0"/>
<feOffset/>
<feGaussianBlur stdDeviation="47"/>
<feColorMatrix type="matrix" values="0 0 0 0 0.0705882 0 0 0 0 0.239843 0 0 0 0 0.396078 0 0 0 0.1 0"/>
<feBlend mode="normal" in2="BackgroundImageFix" result="effect1_dropShadow"/>
<feBlend mode="normal" in="SourceGraphic" in2="effect1_dropShadow" result="shape"/>
</filter>
<filter id="filter3_d" x="56.332" y="109.39" width="230.246" height="230.246" filterUnits="userSpaceOnUse" color-interpolation-filters="sRGB">
<feFlood flood-opacity="0" result="BackgroundImageFix"/>
<feColorMatrix in="SourceAlpha" type="matrix" values="0 0 0 0 0 0 0 0 0 0 0 0 0 0 0 0 0 0 127 0"/>
<feOffset/>
<feGaussianBlur stdDeviation="47"/>
<feColorMatrix type="matrix" values="0 0 0 0 0.0705882 0 0 0 0 0.239843 0 0 0 0 0.396078 0 0 0 0.1 0"/>
<feBlend mode="normal" in2="BackgroundImageFix" result="effect1_dropShadow"/>
<feBlend mode="normal" in="SourceGraphic" in2="effect1_dropShadow" result="shape"/>
</filter>
</defs>
</svg>
