<svg width="133" height="122" viewBox="0 0 133 122" fill="none" xmlns="http://www.w3.org/2000/svg">
<rect x="33.9297" y="0.232178" width="65.8464" height="65.8464" rx="16" fill="white"/>
<g filter="url(#filter0_d)">
<path d="M84.235 15.2263C82.6391 13.5807 80.0497 13.5807 78.4537 15.2263L70.5586 23.3673L49.5573 20.1508C48.3503 19.9139 47.7679 21.5554 48.8178 22.2369L62.3894 31.7908L54.3452 40.0877L49.521 39.9734C48.59 39.9505 48.1084 41.112 48.7674 41.7915L58.4761 51.8025C59.135 52.482 60.2615 51.9854 60.2393 51.0254L60.1285 46.0511L68.1747 37.7563L77.4442 51.7568C78.1051 52.8373 79.6971 52.2368 79.4694 50.9943L76.3399 29.3307L84.235 21.1897C85.833 19.542 85.833 16.874 84.235 15.2263Z" fill="white"/>
</g>
<path d="M50.3412 98.367H52.8808L59.9871 114.863H56.632L55.0943 111.088H47.9414L46.4503 114.863H43.1651L50.3412 98.367ZM54.0691 108.572L51.5295 101.862L48.9433 108.572H54.0691ZM62.5192 98.367H68.0644C68.8566 98.367 69.6177 98.4446 70.3478 98.6C71.0933 98.7553 71.7457 99.0194 72.3049 99.3921C72.8641 99.7494 73.3067 100.239 73.6329 100.86C73.9747 101.466 74.1455 102.227 74.1455 103.143C74.1455 104.184 73.9669 105.023 73.6096 105.66C73.2524 106.296 72.7709 106.794 72.1651 107.151C71.5593 107.492 70.8526 107.725 70.0449 107.85C69.2527 107.974 68.4217 108.036 67.5518 108.036H65.4549V114.863H62.5192V98.367ZM67.2257 105.52C67.645 105.52 68.08 105.504 68.5304 105.473C68.9809 105.442 69.3925 105.349 69.7653 105.194C70.1536 105.038 70.4642 104.805 70.6972 104.495C70.9458 104.184 71.07 103.749 71.07 103.19C71.07 102.677 70.9613 102.273 70.7438 101.978C70.5264 101.668 70.2468 101.435 69.9051 101.279C69.5633 101.109 69.1828 101 68.7634 100.953C68.344 100.907 67.9402 100.883 67.5518 100.883H65.4549V105.52H67.2257ZM77.4616 98.367H83.0068C83.799 98.367 84.5601 98.4446 85.2902 98.6C86.0357 98.7553 86.6881 99.0194 87.2473 99.3921C87.8065 99.7494 88.2492 100.239 88.5754 100.86C88.9171 101.466 89.0879 102.227 89.0879 103.143C89.0879 104.184 88.9093 105.023 88.5521 105.66C88.1948 106.296 87.7133 106.794 87.1075 107.151C86.5017 107.492 85.795 107.725 84.9873 107.85C84.1951 107.974 83.3641 108.036 82.4943 108.036H80.3973V114.863H77.4616V98.367ZM82.1681 105.52C82.5875 105.52 83.0224 105.504 83.4728 105.473C83.9233 105.442 84.3349 105.349 84.7077 105.194C85.096 105.038 85.4067 104.805 85.6397 104.495C85.8882 104.184 86.0124 103.749 86.0124 103.19C86.0124 102.677 85.9037 102.273 85.6863 101.978C85.4688 101.668 85.1892 101.435 84.8475 101.279C84.5058 101.109 84.1252 101 83.7058 100.953C83.2864 100.907 82.8826 100.883 82.4943 100.883H80.3973V105.52H82.1681Z" fill="white"/>
<defs>
<filter id="filter0_d" x="37.2855" y="3.00604" width="59.1341" height="60.2986" filterUnits="userSpaceOnUse" color-interpolation-filters="sRGB">
<feFlood flood-opacity="0" result="BackgroundImageFix"/>
<feColorMatrix in="SourceAlpha" type="matrix" values="0 0 0 0 0 0 0 0 0 0 0 0 0 0 0 0 0 0 127 0"/>
<feOffset/>
<feGaussianBlur stdDeviation="5.49301"/>
<feColorMatrix type="matrix" values="0 0 0 0 0 0 0 0 0 0 0 0 0 0 0 0 0 0 0.13 0"/>
<feBlend mode="normal" in2="BackgroundImageFix" result="effect1_dropShadow"/>
<feBlend mode="normal" in="SourceGraphic" in2="effect1_dropShadow" result="shape"/>
</filter>
</defs>
</svg>
