<svg width="132" height="120" viewBox="0 0 132 120" fill="none" xmlns="http://www.w3.org/2000/svg">
<path d="M17.1559 99.9085C16.8453 99.458 16.4259 99.1318 15.8978 98.9299C15.3852 98.7124 14.8416 98.6037 14.2668 98.6037C13.9251 98.6037 13.5912 98.6425 13.265 98.7202C12.9543 98.7979 12.667 98.9221 12.4029 99.093C12.1544 99.2638 11.9525 99.4891 11.7971 99.7687C11.6418 100.033 11.5641 100.351 11.5641 100.724C11.5641 101.283 11.7583 101.71 12.1466 102.005C12.5349 102.301 13.0165 102.557 13.5912 102.774C14.1659 102.992 14.795 103.201 15.4784 103.403C16.1618 103.605 16.7909 103.885 17.3656 104.242C17.9404 104.599 18.4219 105.073 18.8102 105.663C19.1985 106.254 19.3927 107.038 19.3927 108.017C19.3927 108.902 19.2296 109.679 18.9034 110.346C18.5772 110.999 18.1345 111.543 17.5753 111.977C17.0317 112.412 16.3948 112.739 15.6648 112.956C14.9348 113.173 14.1659 113.282 13.3582 113.282C12.333 113.282 11.3467 113.111 10.3992 112.77C9.45169 112.428 8.63622 111.853 7.95277 111.045L10.1662 108.902C10.5234 109.446 10.9894 109.873 11.5641 110.183C12.1544 110.479 12.7757 110.626 13.4281 110.626C13.7698 110.626 14.1115 110.579 14.4532 110.486C14.795 110.393 15.1056 110.253 15.3852 110.067C15.6648 109.88 15.89 109.648 16.0609 109.368C16.2317 109.073 16.3172 108.739 16.3172 108.366C16.3172 107.76 16.123 107.294 15.7347 106.968C15.3464 106.642 14.8649 106.37 14.2901 106.153C13.7154 105.92 13.0864 105.702 12.4029 105.5C11.7195 105.298 11.0904 105.027 10.5157 104.685C9.94097 104.328 9.45945 103.862 9.07113 103.287C8.68281 102.697 8.48865 101.912 8.48865 100.934C8.48865 100.079 8.65952 99.3415 9.00124 98.7202C9.35849 98.0989 9.81671 97.5863 10.3759 97.1824C10.9506 96.7631 11.603 96.4524 12.333 96.2505C13.0631 96.0486 13.8086 95.9476 14.5697 95.9476C15.4396 95.9476 16.2783 96.0796 17.086 96.3437C17.9093 96.6077 18.6471 97.0427 19.2995 97.6484L17.1559 99.9085ZM23.2188 96.367H27.6923L32.0958 107.923L36.546 96.367H40.9728V112.863H38.1769V99.1629H38.1303L33.121 112.863H31.0707L26.0613 99.1629H26.0147V112.863H23.2188V96.367ZM53.5027 99.9085C53.192 99.458 52.7726 99.1318 52.2445 98.9299C51.7319 98.7124 51.1883 98.6037 50.6136 98.6037C50.2718 98.6037 49.9379 98.6425 49.6117 98.7202C49.301 98.7979 49.0137 98.9221 48.7496 99.093C48.5011 99.2638 48.2992 99.4891 48.1438 99.7687C47.9885 100.033 47.9109 100.351 47.9109 100.724C47.9109 101.283 48.105 101.71 48.4933 102.005C48.8817 102.301 49.3632 102.557 49.9379 102.774C50.5126 102.992 51.1417 103.201 51.8251 103.403C52.5086 103.605 53.1376 103.885 53.7124 104.242C54.2871 104.599 54.7686 105.073 55.1569 105.663C55.5452 106.254 55.7394 107.038 55.7394 108.017C55.7394 108.902 55.5763 109.679 55.2501 110.346C54.9239 110.999 54.4812 111.543 53.922 111.977C53.3784 112.412 52.7416 112.739 52.0115 112.956C51.2815 113.173 50.5126 113.282 49.7049 113.282C48.6797 113.282 47.6934 113.111 46.7459 112.77C45.7984 112.428 44.9829 111.853 44.2995 111.045L46.5129 108.902C46.8702 109.446 47.3361 109.873 47.9109 110.183C48.5011 110.479 49.1224 110.626 49.7748 110.626C50.1165 110.626 50.4582 110.579 50.8 110.486C51.1417 110.393 51.4523 110.253 51.7319 110.067C52.0115 109.88 52.2367 109.648 52.4076 109.368C52.5785 109.073 52.6639 108.739 52.6639 108.366C52.6639 107.76 52.4697 107.294 52.0814 106.968C51.6931 106.642 51.2116 106.37 50.6369 106.153C50.0621 105.92 49.4331 105.702 48.7496 105.5C48.0662 105.298 47.4371 105.027 46.8624 104.685C46.2877 104.328 45.8062 103.862 45.4178 103.287C45.0295 102.697 44.8354 101.912 44.8354 100.934C44.8354 100.079 45.0062 99.3415 45.3479 98.7202C45.7052 98.0989 46.1634 97.5863 46.7226 97.1824C47.2973 96.7631 47.9497 96.4524 48.6797 96.2505C49.4098 96.0486 50.1553 95.9476 50.9164 95.9476C51.7863 95.9476 52.6251 96.0796 53.4328 96.3437C54.256 96.6077 54.9938 97.0427 55.6462 97.6484L53.5027 99.9085ZM59.3791 113.981L57.4453 113.282L64.7147 95.202L66.6485 95.9476L59.3791 113.981ZM69.3202 96.367H73.7937L78.1972 107.923L82.6474 96.367H87.0742V112.863H84.2783V99.1629H84.2317L79.2224 112.863H77.1721L72.1627 99.1629H72.1161V112.863H69.3202V96.367ZM91.5892 96.367H96.0626L100.466 107.923L104.916 96.367H109.343V112.863H106.547V99.1629H106.501L101.491 112.863H99.441L94.4317 99.1629H94.3851V112.863H91.5892V96.367ZM121.873 99.9085C121.562 99.458 121.143 99.1318 120.615 98.9299C120.102 98.7124 119.559 98.6037 118.984 98.6037C118.642 98.6037 118.308 98.6425 117.982 98.7202C117.671 98.7979 117.384 98.9221 117.12 99.093C116.871 99.2638 116.67 99.4891 116.514 99.7687C116.359 100.033 116.281 100.351 116.281 100.724C116.281 101.283 116.475 101.71 116.864 102.005C117.252 102.301 117.734 102.557 118.308 102.774C118.883 102.992 119.512 103.201 120.195 103.403C120.879 103.605 121.508 103.885 122.083 104.242C122.657 104.599 123.139 105.073 123.527 105.663C123.916 106.254 124.11 107.038 124.11 108.017C124.11 108.902 123.947 109.679 123.62 110.346C123.294 110.999 122.852 111.543 122.292 111.977C121.749 112.412 121.112 112.739 120.382 112.956C119.652 113.173 118.883 113.282 118.075 113.282C117.05 113.282 116.064 113.111 115.116 112.77C114.169 112.428 113.353 111.853 112.67 111.045L114.883 108.902C115.24 109.446 115.706 109.873 116.281 110.183C116.871 110.479 117.493 110.626 118.145 110.626C118.487 110.626 118.829 110.579 119.17 110.486C119.512 110.393 119.823 110.253 120.102 110.067C120.382 109.88 120.607 109.648 120.778 109.368C120.949 109.073 121.034 108.739 121.034 108.366C121.034 107.76 120.84 107.294 120.452 106.968C120.063 106.642 119.582 106.37 119.007 106.153C118.432 105.92 117.803 105.702 117.12 105.5C116.437 105.298 115.807 105.027 115.233 104.685C114.658 104.328 114.177 103.862 113.788 103.287C113.4 102.697 113.206 101.912 113.206 100.934C113.206 100.079 113.377 99.3415 113.718 98.7202C114.076 98.0989 114.534 97.5863 115.093 97.1824C115.668 96.7631 116.32 96.4524 117.05 96.2505C117.78 96.0486 118.526 95.9476 119.287 95.9476C120.157 95.9476 120.995 96.0796 121.803 96.3437C122.626 96.6077 123.364 97.0427 124.017 97.6484L121.873 99.9085Z" fill="white"/>
<path fill-rule="evenodd" clip-rule="evenodd" d="M95.4323 47.2794C99.6307 42.4609 102.101 36.5582 102.101 30.1816C102.101 13.9352 86.0624 0.764893 66.2773 0.764893C46.4922 0.764893 30.4531 13.9352 30.4531 30.1816C30.4531 46.428 46.4922 59.5984 66.2773 59.5984C71.9559 59.5984 77.3259 58.5134 82.0967 56.5822L96.4708 61.7743L95.4323 47.2794Z" fill="white"/>
<g filter="url(#filter0_d)">
<circle cx="65.6469" cy="30.2554" r="5.11562" fill="white"/>
</g>
<g filter="url(#filter1_d)">
<circle cx="50.1469" cy="30.2554" r="5.11562" fill="white"/>
</g>
<g filter="url(#filter2_d)">
<circle cx="81.143" cy="30.2554" r="5.11562" fill="white"/>
</g>
<defs>
<filter id="filter0_d" x="44.5312" y="9.13977" width="42.2312" height="42.2312" filterUnits="userSpaceOnUse" color-interpolation-filters="sRGB">
<feFlood flood-opacity="0" result="BackgroundImageFix"/>
<feColorMatrix in="SourceAlpha" type="matrix" values="0 0 0 0 0 0 0 0 0 0 0 0 0 0 0 0 0 0 127 0"/>
<feOffset/>
<feGaussianBlur stdDeviation="8"/>
<feColorMatrix type="matrix" values="0 0 0 0 0 0 0 0 0 0 0 0 0 0 0 0 0 0 0.2 0"/>
<feBlend mode="normal" in2="BackgroundImageFix" result="effect1_dropShadow"/>
<feBlend mode="normal" in="SourceGraphic" in2="effect1_dropShadow" result="shape"/>
</filter>
<filter id="filter1_d" x="29.0312" y="9.13977" width="42.2312" height="42.2312" filterUnits="userSpaceOnUse" color-interpolation-filters="sRGB">
<feFlood flood-opacity="0" result="BackgroundImageFix"/>
<feColorMatrix in="SourceAlpha" type="matrix" values="0 0 0 0 0 0 0 0 0 0 0 0 0 0 0 0 0 0 127 0"/>
<feOffset/>
<feGaussianBlur stdDeviation="8"/>
<feColorMatrix type="matrix" values="0 0 0 0 0 0 0 0 0 0 0 0 0 0 0 0 0 0 0.2 0"/>
<feBlend mode="normal" in2="BackgroundImageFix" result="effect1_dropShadow"/>
<feBlend mode="normal" in="SourceGraphic" in2="effect1_dropShadow" result="shape"/>
</filter>
<filter id="filter2_d" x="60.0273" y="9.13977" width="42.2312" height="42.2312" filterUnits="userSpaceOnUse" color-interpolation-filters="sRGB">
<feFlood flood-opacity="0" result="BackgroundImageFix"/>
<feColorMatrix in="SourceAlpha" type="matrix" values="0 0 0 0 0 0 0 0 0 0 0 0 0 0 0 0 0 0 127 0"/>
<feOffset/>
<feGaussianBlur stdDeviation="8"/>
<feColorMatrix type="matrix" values="0 0 0 0 0 0 0 0 0 0 0 0 0 0 0 0 0 0 0.2 0"/>
<feBlend mode="normal" in2="BackgroundImageFix" result="effect1_dropShadow"/>
<feBlend mode="normal" in="SourceGraphic" in2="effect1_dropShadow" result="shape"/>
</filter>
</defs>
</svg>
