<svg width="576" height="113" viewBox="0 0 576 113" fill="none" xmlns="http://www.w3.org/2000/svg">
<path d="M101.125 65.5624H87.1484V80.5893H101.125V65.5624Z" stroke="#432AFF" stroke-width="1.72718" stroke-miterlimit="10"/>
<path d="M115.101 65.5624H101.125V80.5893H115.101V65.5624Z" stroke="#432AFF" stroke-width="1.72718" stroke-miterlimit="10"/>
<path d="M128.473 65.5624H115.102V80.5893H128.473V65.5624Z" stroke="#432AFF" stroke-width="1.72718" stroke-miterlimit="10"/>
<path d="M141.848 65.5624H128.477V80.5893H141.848V65.5624Z" stroke="#432AFF" stroke-width="1.72718" stroke-miterlimit="10"/>
<path d="M155.227 65.5624H141.855V80.5893H155.227V65.5624Z" stroke="#432AFF" stroke-width="1.72718" stroke-miterlimit="10"/>
<path d="M168.598 65.5624H155.227V80.5893H168.598V65.5624Z" stroke="#432AFF" stroke-width="1.72718" stroke-miterlimit="10"/>
<path d="M182.574 65.5624H168.598V80.5893H182.574V65.5624Z" stroke="#432AFF" stroke-width="1.72718" stroke-miterlimit="10"/>
<path d="M196.55 65.5624H182.574V80.5893H196.55V65.5624Z" stroke="#432AFF" stroke-width="1.72718" stroke-miterlimit="10"/>
<path d="M209.922 65.5624H196.551V80.5893H209.922V65.5624Z" stroke="#432AFF" stroke-width="1.72718" stroke-miterlimit="10"/>
<path d="M223.301 65.5624H209.93V80.5893H223.301V65.5624Z" stroke="#432AFF" stroke-width="1.72718" stroke-miterlimit="10"/>
<path d="M236.676 65.5624H223.305V80.5893H236.676V65.5624Z" stroke="#432AFF" stroke-width="1.72718" stroke-miterlimit="10"/>
<path d="M250.051 65.5624H236.68V80.5893H250.051V65.5624Z" stroke="#432AFF" stroke-width="1.72718" stroke-miterlimit="10"/>
<path d="M264.027 65.5624H250.051V80.5893H264.027V65.5624Z" stroke="#432AFF" stroke-width="1.72718" stroke-miterlimit="10"/>
<path d="M278.003 65.5624H264.027V80.5893H278.003V65.5624Z" stroke="#432AFF" stroke-width="1.72718" stroke-miterlimit="10"/>
<path d="M291.375 65.5624H278.004V80.5893H291.375V65.5624Z" stroke="#432AFF" stroke-width="1.72718" stroke-miterlimit="10"/>
<path d="M304.758 65.5624H291.387V80.5893H304.758V65.5624Z" stroke="#432AFF" stroke-width="1.72718" stroke-miterlimit="10"/>
<path d="M318.129 65.5624H304.758V80.5893H318.129V65.5624Z" stroke="#432AFF" stroke-width="1.72718" stroke-miterlimit="10"/>
<path d="M331.512 65.5624H318.141V80.5893H331.512V65.5624Z" stroke="#432AFF" stroke-width="1.72718" stroke-miterlimit="10"/>
<path d="M345.484 65.5624H331.508V80.5893H345.484V65.5624Z" stroke="#432AFF" stroke-width="1.72718" stroke-miterlimit="10"/>
<path d="M359.46 65.5624H345.484V80.5893H359.46V65.5624Z" stroke="#432AFF" stroke-width="1.72718" stroke-miterlimit="10"/>
<path d="M372.828 65.5624H359.457V80.5893H372.828V65.5624Z" stroke="#432AFF" stroke-width="1.72718" stroke-miterlimit="10"/>
<path d="M386.211 65.5624H372.84V80.5893H386.211V65.5624Z" stroke="#432AFF" stroke-width="1.72718" stroke-miterlimit="10"/>
<path d="M399.582 65.5624H386.211V80.5893H399.582V65.5624Z" stroke="#432AFF" stroke-width="1.72718" stroke-miterlimit="10"/>
<path d="M412.961 65.5624H399.59V80.5893H412.961V65.5624Z" stroke="#432AFF" stroke-width="1.72718" stroke-miterlimit="10"/>
<path d="M426.937 65.5624H412.961V80.5893H426.937V65.5624Z" stroke="#432AFF" stroke-width="1.72718" stroke-miterlimit="10"/>
<path d="M440.913 65.5624H426.938V80.5893H440.913V65.5624Z" stroke="#432AFF" stroke-width="1.72718" stroke-miterlimit="10"/>
<path d="M454.289 65.5624H440.918V80.5893H454.289V65.5624Z" stroke="#432AFF" stroke-width="1.72718" stroke-miterlimit="10"/>
<path d="M467.664 65.5624H454.293V80.5893H467.664V65.5624Z" stroke="#432AFF" stroke-width="1.72718" stroke-miterlimit="10"/>
<path d="M481.031 65.5624H467.66V80.5893H481.031V65.5624Z" stroke="#432AFF" stroke-width="1.72718" stroke-miterlimit="10"/>
<path d="M494.414 65.5624H481.043V80.5893H494.414V65.5624Z" stroke="#432AFF" stroke-width="1.72718" stroke-miterlimit="10"/>
<path d="M491.315 65.5669C458.206 38.7099 385.432 1.00464 289.226 1.00464C193.02 1.00464 120.255 38.7099 87.1454 65.5669H0.000311202" stroke="#432AFF" stroke-width="1.72718" stroke-miterlimit="10"/>
<path d="M467.66 65.5616V49.0498" stroke="#432AFF" stroke-width="1.72718" stroke-miterlimit="10"/>
<path d="M440.918 65.564V34.6176" stroke="#432AFF" stroke-width="1.72718" stroke-miterlimit="10"/>
<path d="M412.961 65.5623V22.8507" stroke="#432AFF" stroke-width="1.72718" stroke-miterlimit="10"/>
<path d="M386.211 65.5632V14.2103" stroke="#432AFF" stroke-width="1.72718" stroke-miterlimit="10"/>
<path d="M359.457 65.5642V7.84192" stroke="#432AFF" stroke-width="1.72718" stroke-miterlimit="10"/>
<path d="M331.508 65.5628V3.45093" stroke="#432AFF" stroke-width="1.72718" stroke-miterlimit="10"/>
<path d="M304.758 65.565V1.32727" stroke="#432AFF" stroke-width="1.72718" stroke-miterlimit="10"/>
<path d="M278.004 65.5623V1" stroke="#432AFF" stroke-width="1.72718" stroke-miterlimit="10"/>
<path d="M250.051 65.5619V3.10107" stroke="#432AFF" stroke-width="1.72718" stroke-miterlimit="10"/>
<path d="M223.305 65.5633V7.0459" stroke="#432AFF" stroke-width="1.72718" stroke-miterlimit="10"/>
<path d="M196.551 65.561V13.0236" stroke="#432AFF" stroke-width="1.72718" stroke-miterlimit="10"/>
<path d="M168.598 65.5649V21.6038" stroke="#432AFF" stroke-width="1.72718" stroke-miterlimit="10"/>
<path d="M141.855 65.5639V32.6377" stroke="#432AFF" stroke-width="1.72718" stroke-miterlimit="10"/>
<path d="M115.102 65.5614V46.4775" stroke="#432AFF" stroke-width="1.72718" stroke-miterlimit="10"/>
<path d="M87.1456 80.5913L0 80.5913" stroke="#432AFF" stroke-width="1.72718" stroke-miterlimit="10"/>
<path d="M575.465 80.5913H494.418" stroke="#432AFF" stroke-width="1.72718" stroke-miterlimit="10"/>
<path d="M575.465 65.5624H494.418" stroke="#432AFF" stroke-width="1.72718" stroke-miterlimit="10"/>
<path d="M93.5492 112.357H79.5977L82.0905 83.3966H91.0564L93.5492 112.357Z" fill="#D3D3D3"/>
<path d="M501.405 112.356H487.453L489.946 83.3955H498.912L501.405 112.356Z" fill="#D3D3D3"/>
</svg>
