<svg width="450" height="401" viewBox="0 0 450 401" fill="none" xmlns="http://www.w3.org/2000/svg">
<path d="M100.719 85.0094C102.187 85.8724 102.233 89.5597 102.007 92.5179C101.845 94.6823 101.545 96.4545 101.545 96.4545L111.093 119.668C111.093 119.668 114.633 103.128 114.688 95.7438C114.693 95.1612 114.604 94.5816 114.425 94.027C112.741 88.706 103.382 85.734 100.719 85.0094Z" fill="#7154FF"/>
<path d="M100.013 84.811C100.013 84.811 100.271 84.871 100.719 84.9956C100.504 84.872 100.26 84.8083 100.013 84.811Z" fill="#7154FF"/>
<path d="M103.322 367.411L107.167 370.18C107.167 370.18 109.553 370.18 109.553 372.335C109.553 374.49 115.395 376.641 115.395 376.641C115.395 376.641 124.09 379.1 130.781 376.641C132.95 375.842 133.615 374.476 133.361 372.81C132.83 369.335 128.285 364.587 125.013 361.102C122.802 358.753 121.782 355.638 121.348 352.943C121.028 351.015 120.942 349.054 121.09 347.105L107.014 346.104C107.82 348.228 107.82 350.574 107.014 352.698C106.707 353.458 106.292 354.17 105.782 354.812C104.065 356.99 103.475 360.41 103.309 363.119C103.212 364.548 103.217 365.982 103.322 367.411Z" fill="#7154FF"/>
<path d="M74.4007 373.793C74.4007 373.793 75.476 377.024 85.555 378.104C95.634 379.184 94.1895 371.717 94.1895 371.717C94.1895 371.717 94.2403 371.504 94.3049 371.121C94.7429 368.597 94.7554 366.017 94.3418 363.488C93.9911 361.522 94.2956 358.112 94.7341 354.987C95.2509 351.268 95.957 347.95 95.957 347.95L80.3401 349.103C80.3401 349.103 80.0678 352.283 79.9109 355.495C79.8601 356.497 79.8186 357.498 79.8048 358.412C79.7322 359.798 79.2646 361.135 78.4572 362.265C76.6083 364.993 75.3391 368.072 74.7284 371.31C74.5936 372.037 74.4981 372.77 74.4422 373.507C74.4099 373.706 74.4007 373.793 74.4007 373.793Z" fill="#7154FF"/>
<path d="M103.322 367.411L107.167 370.18C107.167 370.18 109.553 370.18 109.553 372.335C109.553 374.49 115.395 376.641 115.395 376.641C115.395 376.641 124.09 379.1 130.781 376.641C132.95 375.842 133.615 374.476 133.361 372.81C133.153 372.81 132.955 372.838 132.789 372.843C130.047 372.93 127.38 373.669 124.653 373.913C123.099 374.028 121.539 374.053 119.982 373.987C119.21 373.982 118.439 373.922 117.675 373.807C115.829 373.479 114.117 372.524 112.469 371.587C112.066 371.398 111.711 371.121 111.431 370.775C111.209 370.392 111.053 369.973 110.969 369.538C110.388 367.452 108.763 365.782 106.899 364.683C105.764 364.038 104.562 363.519 103.313 363.137C103.216 364.56 103.219 365.988 103.322 367.411Z" fill="#7154FF"/>
<path d="M74.4005 373.793C74.4005 373.793 75.4758 377.024 85.5548 378.104C95.6338 379.184 94.1893 371.717 94.1893 371.717C94.1893 371.717 94.2401 371.504 94.3047 371.121C93.8432 371.361 93.4509 371.583 93.2709 371.684C92.348 372.224 91.5219 372.967 90.562 373.47C88.2545 374.684 85.4625 374.324 82.8827 373.932C81.6598 373.747 80.4368 373.563 79.2185 373.336C78.2897 373.209 77.3857 372.941 76.5372 372.543C75.9069 372.175 75.3024 371.765 74.7282 371.315C74.5934 372.042 74.4979 372.775 74.442 373.512C74.4097 373.706 74.4005 373.793 74.4005 373.793Z" fill="#7154FF"/>
<path opacity="0.1" d="M103.322 367.411L107.167 370.18C107.167 370.18 109.553 370.18 109.553 372.335C109.553 374.49 115.395 376.641 115.395 376.641C115.395 376.641 124.09 379.1 130.781 376.641C132.95 375.842 133.615 374.476 133.361 372.81C133.153 372.81 132.955 372.838 132.789 372.843C130.047 372.93 127.38 373.669 124.653 373.913C123.099 374.028 121.539 374.053 119.982 373.987C119.21 373.982 118.439 373.922 117.675 373.807C115.829 373.479 114.117 372.524 112.469 371.587C112.066 371.398 111.711 371.121 111.431 370.775C111.209 370.392 111.053 369.973 110.969 369.538C110.388 367.452 108.763 365.782 106.899 364.683C105.764 364.038 104.562 363.519 103.313 363.137C103.216 364.56 103.219 365.988 103.322 367.411Z" fill="black"/>
<path opacity="0.1" d="M74.4005 373.793C74.4005 373.793 75.4758 377.024 85.5548 378.104C95.6338 379.184 94.1893 371.717 94.1893 371.717C94.1893 371.717 94.2401 371.504 94.3047 371.121C93.8432 371.361 93.4509 371.583 93.2709 371.684C92.348 372.224 91.5219 372.967 90.562 373.47C88.2545 374.684 85.4625 374.324 82.8827 373.932C81.6598 373.747 80.4368 373.563 79.2185 373.336C78.2897 373.209 77.3857 372.941 76.5372 372.543C75.9069 372.175 75.3024 371.765 74.7282 371.315C74.5934 372.042 74.4979 372.775 74.442 373.512C74.4097 373.706 74.4005 373.793 74.4005 373.793Z" fill="black"/>
<path opacity="0.1" d="M107.015 346.104C107.821 348.228 107.821 350.574 107.015 352.698C111.053 353.386 118.58 354.775 121.349 352.943C121.029 351.015 120.942 349.054 121.09 347.105L107.015 346.104Z" fill="black"/>
<path opacity="0.1" d="M79.8826 355.495C82.7346 355.698 90.4092 356.1 94.7057 354.987C95.2226 351.268 95.9287 347.95 95.9287 347.95L80.3118 349.103C80.3118 349.103 80.0487 352.283 79.8826 355.495Z" fill="black"/>
<path d="M68.6319 247.884C68.6319 247.884 68.8719 250.768 69.2549 254.806C70.1179 263.972 71.71 279.104 72.9468 280.336C74.719 282.113 73.9483 295.173 73.2561 297.481C72.5638 299.788 73.2561 316.402 73.2561 316.402C74.998 323.342 75.8509 330.475 75.7943 337.631C75.5635 348.706 78.794 354.475 78.794 354.475C78.794 354.475 94.0232 355.86 97.1752 352.915C100.327 349.971 97.1752 326.555 97.1752 326.555C97.1752 326.555 91.485 307.403 92.8695 304.634C94.254 301.865 95.8692 295.173 95.8692 295.173V271.868C98.1075 268.176 99.0997 263.1 99.5289 258.512C99.8704 254.588 99.8812 250.642 99.5612 246.717C99.5612 246.717 102.427 252.578 105.348 258.374C107.988 263.612 110.674 268.794 111.348 269.56C112.732 271.176 111.578 278.56 111.348 282.252C111.117 285.943 113.886 293.327 113.886 293.327C110.425 295.404 109.732 319.863 109.732 319.863C109.732 319.863 112.271 325.863 106.963 332.554C101.656 339.246 103.733 351.937 104.425 351.475C105.118 351.014 119.193 354.937 121.962 351.475C124.731 348.014 127.731 338.554 127.731 338.554C127.731 338.554 126.346 328.862 129.346 320.094C131.57 313.596 134.298 298.362 135.562 290.9C136.023 288.192 136.107 285.434 135.811 282.704C135.23 277.254 134.335 267.165 134.653 259.168C134.759 256.56 134.685 252.416 134.51 247.556C133.915 230.897 132.115 205.865 132.115 205.865L119.571 197.415L111.311 191.813L109.289 192.122L71.6224 197.923L70.1594 216.503L68.6319 247.884Z" fill="#444053"/>
<path opacity="0.1" d="M119.571 197.415L120.231 201.043C120.231 201.043 125.769 227.578 126.923 241.192C128.076 254.806 132.922 250.884 132.922 250.884C133.345 249.741 133.863 248.635 134.473 247.58C133.877 230.92 132.078 205.888 132.078 205.888L119.571 197.415Z" fill="black"/>
<path d="M80.0168 96.7452C80.0168 96.7452 105.86 117.434 101.089 113.281C98.4766 111.001 100.253 101.282 102.395 92.9748C104.158 86.1216 106.165 80.2238 106.165 80.2238C106.165 80.2238 83.6073 59.1197 85.2456 76.3749C85.8224 82.4574 85.3425 86.7816 84.4795 89.8367C82.8966 95.4253 80.0168 96.7452 80.0168 96.7452Z" fill="#EFB7B9"/>
<path opacity="0.1" d="M82.1677 91.2442L98.5507 104.051L103.322 98.7435C103.322 98.7435 107.397 96.9759 107.707 98.9742C108.016 100.972 109.165 113.28 106.784 114.434C104.402 115.588 101.32 116.359 98.6291 115.976C95.9386 115.593 92.9389 112.588 90.936 111.435C88.9331 110.281 81.5539 104.281 81.5539 104.281L77.8619 99.1311L82.1677 91.2442Z" fill="black"/>
<path d="M82.1677 91.7057L98.5507 104.512L103.322 99.205C103.322 99.205 107.397 97.4374 107.707 99.4357C108.016 101.434 109.165 113.742 106.784 114.896C104.402 116.049 101.32 116.82 98.6291 116.437C95.9386 116.054 92.9389 113.05 90.936 111.896C88.9331 110.742 81.5539 104.743 81.5539 104.743L77.8619 99.5926L82.1677 91.7057Z" fill="#A36468"/>
<path opacity="0.1" d="M68.6322 247.884C68.6322 247.884 68.8721 250.768 69.2552 254.806C74.3316 255 84.1799 255.6 91.093 257.409C93.8517 258.092 96.6785 258.462 99.5199 258.512C99.8615 254.588 99.8723 250.642 99.5522 246.716C99.5522 246.716 102.418 252.577 105.339 258.374C107.838 258.205 110.324 257.883 112.783 257.409L109.705 217.412C109.705 217.412 109.807 203.987 109.299 192.108L71.6319 197.909L70.169 216.489L68.6322 247.884Z" fill="black"/>
<path opacity="0.1" d="M96.9355 102.975C96.9355 102.975 85.7443 90.7412 83.0908 92.684C80.4372 94.6269 78.7204 99.3619 78.7204 99.3619L87.8211 109.358L96.9355 102.975Z" fill="black"/>
<path d="M96.4736 102.514C96.4736 102.514 85.2824 90.2797 82.6288 92.2226C79.9753 94.1654 78.2585 98.9004 78.2585 98.9004L87.3591 108.896L96.4736 102.514Z" fill="#A36468"/>
<path opacity="0.1" d="M105.755 110.355L99.3217 102.255C99.3217 102.255 100.342 94.5993 102.7 95.5777C105.058 96.556 105.755 100.474 105.755 100.474V110.355Z" fill="black"/>
<path d="M106.243 109.819L99.8099 101.72C99.8099 101.72 100.825 94.0638 103.188 95.0422C105.551 96.0206 106.243 99.9387 106.243 99.9387V109.819Z" fill="#A36468"/>
<path opacity="0.1" d="M76.6303 95.2822C76.6303 95.2822 89.8797 109.589 97.7897 110.548C98.5097 110.636 99.2204 110.756 99.9311 110.899C101.994 111.305 106.498 110.899 105.783 99.0711L106.784 96.9759L112.936 100.746L115.013 117.665L118.705 161.045L124.164 209.349C124.164 209.349 107.398 207.734 102.705 211.966C98.0113 216.198 96.7052 188.891 96.7052 188.891L83.8619 133.512L70.1694 97.8989L76.6303 95.2822Z" fill="black"/>
<path opacity="0.1" d="M70.1694 99.7449L83.8619 135.358L96.7052 190.738C96.7052 190.738 98.0159 218.039 102.705 213.812C104.237 212.428 107.061 211.671 110.167 211.279C113.986 210.866 117.834 210.78 121.667 211.02C123.2 211.103 124.164 211.195 124.164 211.195L118.705 162.891L115.013 119.511L112.936 102.592L106.784 98.8219L105.783 100.917C105.783 101.226 105.815 101.531 105.829 101.84C106.263 112.768 101.939 113.156 99.9311 112.759C99.2204 112.616 98.5097 112.496 97.7897 112.408C92.1872 111.721 83.908 104.351 79.5561 100.114C77.7609 98.3604 76.6303 97.1421 76.6303 97.1421L70.1694 99.7449Z" fill="black"/>
<path d="M70.1694 98.3605L83.8619 133.974L96.7052 189.353C96.7052 189.353 98.0159 216.655 102.705 212.428C104.237 211.043 107.061 210.286 110.167 209.894C113.986 209.482 117.834 209.395 121.667 209.636C123.2 209.719 124.164 209.811 124.164 209.811L118.705 161.507L115.013 118.126L112.936 101.208L106.784 97.4375L105.783 99.5327C105.783 99.8419 105.815 100.146 105.829 100.456C106.263 111.384 101.939 111.771 99.9311 111.375C99.2204 111.232 98.5097 111.112 97.7897 111.024C92.1872 110.336 83.908 102.966 79.5561 98.7297C77.7609 96.976 76.6303 95.7576 76.6303 95.7576L70.1694 98.3605Z" fill="#E1E7EF"/>
<path opacity="0.1" d="M105.783 99.5325C105.783 99.8417 105.815 100.146 105.829 100.456L105.935 100.529C107.56 101.6 110.167 119.681 110.167 119.681L113.55 165.752L119.78 200.133C119.78 200.133 120.597 204.051 121.667 209.649C123.2 209.732 124.164 209.825 124.164 209.825L118.705 161.52L115.013 118.14L112.936 101.222L106.784 97.4512L105.783 99.5325Z" fill="black"/>
<path d="M101.541 96.4545C101.541 96.4545 105.233 99.445 106.857 100.516C108.482 101.586 111.089 119.668 111.089 119.668L114.472 165.738L120.702 200.12C120.702 200.12 126.24 226.656 127.394 240.27C128.547 253.884 133.393 249.961 133.393 249.961C133.393 249.961 137.011 239.347 145.623 238.733C154.234 238.119 149.776 233.269 149.776 233.269C149.776 233.269 144.732 196.917 141.414 190.442C141.362 190.331 141.304 190.223 141.238 190.119C140.749 189.316 140.209 187.715 139.642 185.573C136.36 173.187 132.166 142.655 132.166 142.655L129.549 104.812C122.857 93.8886 102.062 94.267 102.062 94.267L101.541 96.4545Z" fill="#7154FF"/>
<path opacity="0.1" d="M70.1684 98.3604L83.8609 133.974L96.7043 189.353C96.7043 189.353 98.0149 216.655 102.704 212.428C104.236 211.043 107.06 210.286 110.166 209.894C110.111 200.507 109.825 183.663 108.472 176.584C107.302 170.115 106.813 163.541 107.014 156.97L90.2434 120.434C90.2434 120.434 77.6308 104.886 77.5523 102.662C77.5246 101.84 78.4199 100.317 79.5552 98.7158C77.76 96.9621 76.6293 95.7438 76.6293 95.7438L70.1684 98.3604Z" fill="black"/>
<path d="M112.321 256.486L109.243 216.489C109.243 216.489 109.474 186.644 107.549 176.57C106.379 170.101 105.891 163.527 106.091 156.956L89.3205 120.42C89.3205 120.42 76.7079 104.872 76.6294 102.648C76.551 100.423 83.238 93.0254 83.238 93.0254C83.238 93.0254 68.6318 94.733 66.7073 101.268C64.7829 107.802 54.247 110.345 54.247 110.345C54.247 110.345 49.1706 114.96 49.249 128.191C49.3275 141.422 65.4013 151.801 65.4013 151.801C65.4013 151.801 68.0918 176.722 65.7843 187.955C63.4769 199.187 65.4797 253.791 65.4797 253.791C65.4797 253.791 80.9398 253.948 90.6311 256.486C100.322 259.025 112.321 256.486 112.321 256.486Z" fill="#7154FF"/>
<path d="M89.5518 193.045L77.7098 237.884C77.7098 237.884 76.0946 241.885 67.7877 238.807C59.4809 235.728 35.3263 225.733 35.3263 225.733C35.3263 225.733 33.1758 222.193 37.1723 215.658L49.2496 180.275L89.5518 193.045Z" fill="#B07473"/>
<path d="M74.2256 212.871L55.0736 191.813L42.8441 186.852L37.8276 212.174L61.073 237.441L74.2256 212.871Z" fill="#E1E7EF"/>
<path d="M53.7625 219.908C53.7625 219.908 59.4573 223.259 60.9617 223.37C62.4662 223.48 67.7595 233.486 65.5213 233.407C63.2831 233.329 58.0774 230.638 58.5989 232.023C59.1204 233.407 62.517 237.561 63.5 237.164C64.4829 236.767 64.9444 240.214 60.731 239.01C56.5176 237.805 50.9243 236.762 50.9243 236.762C50.9243 236.762 47.9246 234.57 47.8092 233.01C47.6938 231.45 45.0956 223.259 45.0956 223.259L53.7625 219.908Z" fill="#EFB7B9"/>
<path d="M145.189 101.766C145.189 101.766 140.261 91.1243 137.316 87.6077C134.372 84.0911 121.529 80.3069 120.241 81.3452C118.954 82.3836 126.702 88.2123 128.087 88.9599C129.471 89.7075 119.143 96.653 118.93 96.8053C118.718 96.9576 110.854 96.1084 114.892 98.762C118.93 101.416 130.869 104.115 130.869 104.115C131.673 103.976 132.497 104.003 133.291 104.193C134.084 104.384 134.831 104.734 135.484 105.223C137.796 106.898 145.189 101.766 145.189 101.766Z" fill="#EFB7B9"/>
<path opacity="0.1" d="M42.6588 220.439C43.3113 222.579 44.1868 224.644 45.2709 226.6C46.4246 225.557 57.4404 221.925 57.4404 221.925L56.2175 220.038L54.2238 216.964C54.2238 216.964 44.4033 214.832 42.7326 216.964C42.1696 217.679 42.2712 218.999 42.6588 220.439Z" fill="black"/>
<path d="M42.1979 219.978C42.8503 222.117 43.7258 224.182 44.8099 226.138C45.9637 225.096 56.9795 221.464 56.9795 221.464L55.7565 219.576L53.7629 216.503C53.7629 216.503 43.9423 214.37 42.2717 216.503C41.7087 217.218 41.8102 218.538 42.1979 219.978Z" fill="#A36468"/>
<path opacity="0.1" d="M133.933 104.166C134.287 104.958 134.703 105.72 135.179 106.446C136.956 109.247 139.646 112.551 139.646 112.551C139.646 112.551 150.141 107.724 150.141 107.512C150.141 107.3 146.956 102.283 144.367 98.3281C143.32 96.7314 142.374 95.3192 141.774 94.4931C141.774 94.4931 137.856 102.689 133.988 102.745C132.955 102.758 133.513 103.165 133.933 104.166Z" fill="black"/>
<path d="M134.395 104.628C134.749 105.42 135.165 106.182 135.641 106.907C137.418 109.709 140.108 113.013 140.108 113.013C140.108 113.013 150.603 108.186 150.603 107.973C150.603 107.761 147.418 102.745 144.829 98.7897C143.782 97.1929 142.836 95.7807 142.236 94.9547C142.236 94.9547 138.318 103.151 134.45 103.206C133.417 103.22 133.975 103.626 134.395 104.628Z" fill="#A36468"/>
<path d="M75.2081 189.275L76.5557 185.237L57.6437 183.907L64.7091 184.66L73.7082 186.593L73.016 189.275H75.2081Z" fill="#B07473"/>
<path opacity="0.1" d="M42.1982 219.978C44.2841 218.995 49.8497 216.95 55.7568 219.576L53.7632 216.503C53.7632 216.503 43.9426 214.37 42.272 216.503C41.709 217.218 41.8105 218.538 42.1982 219.978Z" fill="black"/>
<path d="M41.0945 195.043C41.1407 195.712 41.1822 196.381 41.2237 197.046C41.3391 199.081 41.4176 201.098 41.4683 203.045C41.6991 212.063 41.3253 219.502 41.3253 219.502C41.3253 219.502 48.4784 215.197 56.0931 218.81L56.8499 204.218V203.964L57.6298 197.581L60.1588 176.966C60.1588 176.966 64.926 148.354 66.389 147.279C67.8519 146.203 55.5439 123.05 55.5439 123.05L49.2491 128.191L45.3264 154.649V168.184C45.3264 168.184 40.25 182.892 41.0945 195.043Z" fill="#7154FF"/>
<path opacity="0.1" d="M134.164 103.977L135.641 106.907C137.418 109.709 140.108 113.013 140.108 113.013C140.108 113.013 150.603 108.186 150.603 107.973C150.603 107.761 147.418 102.745 144.829 98.7896C144.031 97.8897 143.546 97.359 143.546 97.359C146.624 104.974 134.164 103.977 134.164 103.977Z" fill="black"/>
<path d="M125.243 102.662L129.548 104.821C129.548 104.821 134.856 111.974 136.392 112.745C137.929 113.516 138.7 113.437 138.7 113.437L134.163 104.438C134.163 104.438 146.624 105.435 143.546 97.8205C143.546 97.8205 157.469 113.05 159.006 119.206C159.006 119.206 166.699 131.971 164.853 138.28C163.007 144.588 155.544 145.816 150.163 143.896C144.782 141.976 128.242 133.512 128.242 133.512L125.243 102.662Z" fill="#7154FF"/>
<path opacity="0.1" d="M140.703 117.665C140.703 117.665 152.314 130.665 151.391 132.432C150.468 134.2 141.317 120.281 140.703 117.665Z" fill="black"/>
<path opacity="0.2" d="M88.2818 82.6697C88.2818 82.6697 71.9403 77.7455 62.7105 95.513C53.4806 113.281 53.1714 114.513 53.6329 115.357C54.0944 116.202 72.0142 111.513 73.0156 113.59C74.0171 115.666 62.8628 124.204 62.8628 124.204L106.091 156.97L87.9265 118.371C86.7095 115.668 85.0862 113.167 83.1131 110.955C80.1272 107.613 76.043 102.495 77.4921 100.917C78.7658 99.5326 80.801 95.9191 83.5515 91.7611C85.5544 88.7152 88.7525 85.2725 88.2818 82.6697Z" fill="black"/>
<path d="M88.7433 82.2081C88.7433 82.2081 72.4018 77.284 63.172 95.0515C53.9421 112.819 53.6329 114.051 54.0944 114.896C54.5559 115.74 72.4757 111.051 73.4771 113.128C74.4786 115.205 63.3243 123.743 63.3243 123.743L106.091 156.97L88.388 117.909C87.1709 115.206 85.5477 112.705 83.5746 110.493C80.5887 107.152 76.5045 102.034 77.9536 100.456C79.2273 99.0711 81.2625 95.4576 84.013 91.2995C86.0159 88.2537 89.214 84.811 88.7433 82.2081Z" fill="#7154FF"/>
<path opacity="0.1" d="M88.7433 82.2081C88.7433 82.2081 72.4018 77.284 63.172 95.0515C53.9421 112.819 53.6329 114.051 54.0944 114.896C54.5559 115.74 72.4757 111.051 73.4771 113.128C74.4786 115.205 63.3243 123.743 63.3243 123.743L106.091 156.97L87.5388 116.031C86.8197 114.441 85.8489 112.978 84.6637 111.698C81.7378 108.55 76.3014 102.242 77.9397 100.456C79.2135 99.0711 81.2487 95.4576 83.9992 91.2995C86.0159 88.2537 89.214 84.811 88.7433 82.2081Z" fill="black"/>
<path d="M85.3985 163.662C83.5303 163.662 82.0157 162.147 82.0157 160.279C82.0157 158.411 83.5303 156.896 85.3985 156.896C87.2667 156.896 88.7812 158.411 88.7812 160.279C88.7812 162.147 87.2667 163.662 85.3985 163.662Z" fill="#444053"/>
<path d="M85.3985 184.66C83.5303 184.66 82.0157 183.145 82.0157 181.277C82.0157 179.409 83.5303 177.894 85.3985 177.894C87.2667 177.894 88.7812 179.409 88.7812 181.277C88.7812 183.145 87.2667 184.66 85.3985 184.66Z" fill="#444053"/>
<path d="M41.4684 203.046C43.4159 203.507 52.6504 203.299 56.85 204.218V203.964L57.6299 197.581C52.895 196.991 42.6037 195.869 41.21 197.046C39.4055 198.583 39.1471 202.515 41.4684 203.046Z" fill="#7154FF"/>
<path opacity="0.1" d="M41.4684 203.507C43.4159 203.968 52.6504 203.761 56.85 204.679V204.425L57.6299 198.043C52.895 197.452 42.6037 196.331 41.21 197.508C39.4055 199.044 39.1471 202.976 41.4684 203.507Z" fill="black"/>
<path opacity="0.1" d="M41.4684 203.046C43.4159 203.507 52.6504 203.299 56.85 204.218V203.964L57.6299 197.581C52.895 196.991 42.6037 195.869 41.21 197.046C39.4055 198.583 39.1471 202.515 41.4684 203.046Z" fill="black"/>
<path d="M43.4807 202.007C42.3541 202.007 41.4409 201.094 41.4409 199.967C41.4409 198.841 42.3541 197.928 43.4807 197.928C44.6072 197.928 45.5205 198.841 45.5205 199.967C45.5205 201.094 44.6072 202.007 43.4807 202.007Z" fill="#444053"/>
<path opacity="0.1" d="M82.0156 208.117L73.3996 237.501C73.3996 237.501 71.0921 238.576 71.0921 236.656C71.0921 234.736 82.0156 208.117 82.0156 208.117Z" fill="white"/>
<path opacity="0.1" d="M85.324 88.3967C85.8681 88.8333 86.4367 89.2385 87.0269 89.6104C89.9574 91.4564 92.5648 93.9623 96.2983 93.9623C98.3716 93.9654 100.431 93.627 102.395 92.9609C104.158 86.1077 106.165 80.2098 106.165 80.2098C106.165 80.2098 83.6073 59.1058 85.2456 76.361C85.8224 82.4435 86.187 85.3416 85.324 88.3967Z" fill="black"/>
<path d="M77.3492 74.0905C77.3492 77.8382 78.4606 81.5018 80.5427 84.6179C82.6248 87.7341 85.5842 90.1628 89.0467 91.597C92.5092 93.0312 96.3192 93.4064 99.9949 92.6753C103.671 91.9441 107.047 90.1394 109.697 87.4894C112.347 84.8393 114.152 81.463 114.883 77.7872C115.614 74.1115 115.239 70.3015 113.805 66.839C112.37 63.3766 109.942 60.4172 106.826 58.335C103.709 56.2529 100.046 55.1416 96.2981 55.1416C93.8065 55.13 91.3372 55.6122 89.033 56.5603C86.7288 57.5085 84.6352 58.9038 82.8734 60.6657C81.1115 62.4276 79.7162 64.5211 78.768 66.8253C77.8198 69.1296 77.3376 71.5988 77.3492 74.0905Z" fill="#EFB7B9"/>
<path d="M107.037 89.9474C107.215 90.3785 107.526 90.742 107.923 90.9857L110.932 92.8317L116.558 96.2514L125.46 101.66C125.669 101.783 125.881 101.898 126.097 102.006C127.14 102.536 128.292 102.82 129.462 102.836C130.632 102.852 131.791 102.6 132.848 102.098C133.647 101.739 134.35 101.195 134.898 100.512C135.446 99.8283 135.824 99.0245 136 98.1666C136.237 96.9722 136.138 95.7354 135.712 94.5945C135.287 93.4536 134.553 92.4534 133.591 91.7057C133.545 91.6633 133.487 91.6346 133.425 91.6226C131.531 91.0873 129.749 90.215 128.164 89.0474L122.562 85.1709L117.559 80.5975L115.03 78.8485C114.66 78.5915 114.223 78.4463 113.772 78.4299C113.322 78.4136 112.876 78.5268 112.487 78.7562C109.88 80.2375 104.73 84.1187 107.037 89.9474Z" fill="#E1E7EF"/>
<path d="M110.933 92.8086L116.558 96.2283C117.731 91.5026 120.712 88.166 123.301 85.6462L117.56 80.5698C113.194 82.7342 111.459 89.9658 110.933 92.8086Z" fill="#A36468"/>
<path opacity="0.1" d="M126.097 101.983C127.14 102.513 128.292 102.797 129.462 102.813C130.632 102.829 131.791 102.577 132.848 102.075C133.647 101.716 134.35 101.172 134.898 100.489C135.446 99.8052 135.824 99.0014 136 98.1435C136.237 96.9491 136.138 95.7123 135.712 94.5714C135.287 93.4305 134.553 92.4303 133.591 91.6826C132.194 92.274 130.901 93.0858 129.761 94.0869C128.171 95.464 127.019 97.277 126.448 99.3018C126.222 100.178 126.104 101.078 126.097 101.983Z" fill="black"/>
<path opacity="0.1" d="M77.3494 74.0904C77.3456 76.8502 77.9473 79.5771 79.1123 82.0789C80.2554 83.2171 81.1263 84.5992 81.6597 86.1216C82.9427 87.6814 83.4504 88.5629 85.1625 89.6428C85.8501 88.9182 87.3961 88.4798 87.6776 87.543C88.393 85.1294 87.9868 82.5496 87.9499 80.0345C87.9499 78.9177 88.1068 77.5978 89.0898 77.0625C89.9066 76.601 90.9358 76.9332 91.7388 77.3855C92.5418 77.8378 93.3401 78.4239 94.2631 78.53C95.6476 78.6869 96.9121 77.7132 97.6874 76.5687C98.4627 75.4242 98.9104 74.0858 99.6441 72.9136C100.613 71.3676 102.044 70.1816 103.451 69.0279C105.062 67.6988 106.627 66.2266 108.343 65.0359C109.368 64.3206 110.595 63.9884 111.606 63.2684L111.768 63.1484C109.445 59.8651 106.138 57.406 102.324 56.1269C98.5114 54.8479 94.3902 54.8153 90.5573 56.0338C86.7245 57.2523 83.3787 59.6588 81.0043 62.9049C78.6298 66.1511 77.3498 70.0685 77.3494 74.0904Z" fill="black"/>
<path d="M114.685 53.1479C114.283 50.4851 112.086 47.9884 109.396 47.9423C107.176 47.9053 105.284 49.4098 103.318 50.4389C101.306 51.4764 99.0885 52.0558 96.8257 52.1356C94.563 52.2153 92.3106 51.7936 90.2301 50.9004C89.0209 50.3743 87.798 49.6682 86.4827 49.7744C85.1675 49.8805 84.1153 50.7435 83.2061 51.6204C81.0462 53.7564 79.3536 56.318 78.2359 59.1427C77.9082 59.9734 77.6082 60.8594 76.9714 61.4825C76.4858 61.8892 75.9565 62.2406 75.3931 62.5301C74.4282 63.17 73.6012 63.9967 72.9608 64.9613C72.3204 65.9258 71.8796 67.0088 71.6642 68.1464C71.2459 70.4341 71.481 72.7933 72.3426 74.9534C72.8534 76.4403 73.6962 77.7913 74.807 78.9038C75.6469 79.693 76.6529 80.2883 77.5344 81.0267C78.9707 82.2466 80.066 83.8182 80.7131 85.5881C81.3603 87.358 81.5371 89.2655 81.2263 91.1242C83.6815 91.6918 86.0351 89.4905 86.7642 87.0815C87.4934 84.6725 87.0735 82.0881 87.0365 79.573C87.0365 78.4562 87.1934 77.1363 88.1764 76.601C88.9932 76.1395 90.0224 76.4718 90.8254 76.924C91.6284 77.3763 92.4268 77.9624 93.3498 78.0685C94.7342 78.2254 95.9987 77.2563 96.774 76.1072C97.5493 74.9581 97.9924 73.6243 98.7308 72.4522C99.6953 70.9061 101.131 69.7201 102.538 68.5664C104.149 67.2419 105.713 65.7651 107.425 64.5745C108.454 63.8592 109.682 63.5269 110.693 62.8069C113.743 60.6195 114.685 56.6322 114.685 53.1479Z" fill="#585268"/>
<path opacity="0.1" d="M100.013 84.811C100.013 84.811 100.271 84.871 100.719 84.9956C100.504 84.872 100.26 84.8083 100.013 84.811Z" fill="black"/>
<g opacity="0.1">
<path opacity="0.1" d="M85.832 85.5724C86.5474 83.1587 86.1412 80.579 86.1043 78.0639C86.1043 76.9471 86.2612 75.6272 87.2442 75.0919C88.0611 74.6304 89.0902 74.9673 89.8932 75.4149C90.6962 75.8625 91.4945 76.4533 92.4175 76.5594C93.802 76.7163 95.0665 75.7472 95.8418 74.6027C96.6171 73.4582 97.0602 72.1152 97.7986 70.943C98.7677 69.4016 100.198 68.2156 101.606 67.0573C103.216 65.7328 104.781 64.256 106.493 63.0653C107.522 62.35 108.75 62.0224 109.76 61.2978C112.82 59.1104 113.762 55.1231 113.762 51.6388C113.657 50.9774 113.452 50.3361 113.152 49.7374C113.96 50.6749 114.491 51.8192 114.685 53.0417C114.685 56.526 113.762 60.5133 110.683 62.7008C109.673 63.4253 108.445 63.753 107.416 64.4683C105.704 65.6589 104.139 67.1357 102.529 68.4602C101.121 69.6185 99.6907 70.8046 98.7215 72.346C97.9832 73.5182 97.5447 74.8611 96.7648 76.0056C95.9849 77.1501 94.7158 78.1193 93.3405 77.9623C92.4175 77.8562 91.633 77.2655 90.8162 76.8178C89.9993 76.3702 88.9702 76.0518 88.1672 76.4948C87.1842 77.0301 87.0088 78.3408 87.0273 79.4668C87.0642 81.9819 87.4888 84.5432 86.755 86.9753C86.0213 89.4074 83.6815 91.5902 81.2171 91.018C81.2939 90.5846 81.3432 90.1469 81.3648 89.7073C83.4138 89.5274 85.2183 87.6306 85.832 85.5724Z" fill="black"/>
<path opacity="0.1" d="M73.8838 77.3948C74.7237 78.1886 75.7298 78.7793 76.6112 79.5177C77.5827 80.3327 78.3975 81.3179 79.0156 82.4251C78.5782 81.8655 78.0815 81.3549 77.5342 80.9022C76.6482 80.1638 75.6467 79.5731 74.8068 78.7793C74.1378 78.1339 73.5713 77.39 73.127 76.5734C73.3598 76.8645 73.6127 77.139 73.8838 77.3948Z" fill="black"/>
</g>
<path opacity="0.1" d="M99.3854 242.129C99.7223 243.131 100.202 244.109 100.267 245.166C100.378 246.966 99.2793 248.636 99.2008 250.441C99.1085 252.531 100.382 254.41 101.601 256.117C100.156 256.117 98.5778 255.614 97.844 254.373C97.5947 253.894 97.413 253.383 97.3041 252.854C95.9981 247.644 94.729 241.945 96.9995 237.081C97.3504 236.241 97.8596 235.476 98.4994 234.828C98.8824 237.284 98.5594 239.697 99.3854 242.129Z" fill="black"/>
<path opacity="0.1" d="M135.484 205.358L139.319 200.184C140.242 198.934 141.197 197.632 141.529 196.114C141.889 194.448 141.47 192.722 141.414 191.037C141.414 190.848 141.414 190.654 141.414 190.461C141.362 190.349 141.304 190.242 141.239 190.138C140.75 189.335 140.21 187.733 139.642 185.592C139.083 186.148 138.648 186.816 138.368 187.553C136.582 191.91 138.234 197.023 136.758 201.49C136.333 202.773 135.641 204.001 135.484 205.358Z" fill="black"/>
<path opacity="0.1" d="M125.723 361.961C123.827 363.318 121.662 364.255 119.375 364.708C117.087 365.161 114.73 365.119 112.459 364.586" fill="black"/>
<path opacity="0.1" d="M93.9443 362.722C92.9741 363.631 91.8277 364.331 90.576 364.779C89.3243 365.228 87.994 365.414 86.6673 365.328C85.3407 365.241 84.0459 364.883 82.863 364.276C81.6801 363.669 80.6343 362.826 79.7904 361.799" fill="black"/>
<path opacity="0.1" d="M114.195 293.152C116.036 293.578 117.966 293.396 119.694 292.632C121.422 291.868 122.856 290.564 123.78 288.915" fill="black"/>
<path opacity="0.1" d="M92.3203 304.814C89.396 305.03 86.4865 304.232 84.0826 302.553L92.3203 304.814Z" fill="black"/>
<path opacity="0.1" d="M107.25 332.688C109.71 333.685 111.906 335.245 114.302 336.38C116.697 337.515 119.47 338.258 122.004 337.464" fill="black"/>
<path d="M347.514 390.485C344.781 390.485 342.565 388.27 342.565 385.537C342.565 382.804 344.781 380.589 347.514 380.589C350.246 380.589 352.462 382.804 352.462 385.537C352.462 388.27 350.246 390.485 347.514 390.485Z" fill="#535461"/>
<path d="M365.025 295.519C365.025 295.519 360.091 291.505 355.768 292.894C351.444 294.283 340.187 295.671 338.178 302.767C336.169 309.864 338.178 387.787 338.178 387.787C338.178 387.787 347.764 390.277 350.37 389.022C352.976 387.768 352.685 376.062 352.685 376.062L353.453 306.957L365.025 295.519Z" fill="#432AFF"/>
<path opacity="0.1" d="M365.025 295.519C365.025 295.519 360.091 291.505 355.768 292.894C351.444 294.283 340.187 295.671 338.178 302.767C336.169 309.864 338.178 387.787 338.178 387.787C338.178 387.787 347.764 390.277 350.37 389.022C352.976 387.768 352.685 376.062 352.685 376.062L353.453 306.957L365.025 295.519Z" fill="black"/>
<path d="M320.125 383.796L340.895 388.425L341.112 384.722L341.246 312.016C341.253 308.619 342.04 305.269 343.547 302.224C345.054 299.18 347.242 296.523 349.939 294.459C349.939 294.459 339.187 294.315 330.961 298.032C329.202 298.824 327.438 299.601 325.628 300.268C323.383 301.096 320.338 302.86 320.143 306.341C319.893 310.877 319.023 355.815 318.713 372.173C318.632 376.095 319.108 380.008 320.125 383.796Z" fill="#432AFF"/>
<path d="M337.636 204.713H342.459V212.272H337.636V204.713Z" fill="#535461"/>
<path opacity="0.1" d="M337.636 204.713H342.459V212.272H337.636V204.713Z" fill="black"/>
<path d="M328.572 205.908H333.396V213.467H328.572V205.908Z" fill="#535461"/>
<path d="M328.577 205.908H333.414C334.315 205.931 335.191 206.207 335.941 206.705C336.692 207.203 337.287 207.902 337.659 208.722C337.729 208.87 337.793 209.023 337.854 209.185L338.918 208.157L341.131 206.019L342.482 204.713C342.482 204.713 333.553 200.2 328.577 205.908Z" fill="#535461"/>
<path d="M326.471 393.971C323.738 393.971 321.522 391.755 321.522 389.022C321.522 386.29 323.738 384.074 326.471 384.074C329.204 384.074 331.419 386.29 331.419 389.022C331.419 391.755 329.204 393.971 326.471 393.971Z" fill="#535461"/>
<path d="M377.564 387.217C374.832 387.217 372.616 385.002 372.616 382.269C372.616 379.536 374.832 377.321 377.564 377.321C380.297 377.321 382.513 379.536 382.513 382.269C382.513 385.002 380.297 387.217 377.564 387.217Z" fill="#535461"/>
<path d="M368.266 294.459C368.266 294.459 382.31 298.162 383.078 333.499C383.847 368.836 384.004 372.534 384.004 372.534C384.004 372.534 383.698 382.718 363.021 389.046H350.37L348.361 307.882C348.361 307.882 350.676 295.519 368.266 294.459Z" fill="#432AFF"/>
<path opacity="0.1" d="M369.52 349.214C369.52 349.214 373.117 299.805 353.726 299.592L351.907 301.36C351.907 301.36 368.886 295.208 369.52 349.214Z" fill="black"/>
<path d="M360.785 398.285C358.052 398.285 355.837 396.069 355.837 393.337C355.837 390.604 358.052 388.388 360.785 388.388C363.518 388.388 365.733 390.604 365.733 393.337C365.733 396.069 363.518 398.285 360.785 398.285Z" fill="#535461"/>
<path opacity="0.1" d="M333.344 205.88C333.342 205.889 333.342 205.899 333.344 205.908H333.414C334.314 205.931 335.19 206.207 335.941 206.705C336.691 207.203 337.287 207.902 337.659 208.722C337.728 208.87 337.793 209.023 337.853 209.185L338.918 208.157C338.925 208.066 338.925 207.975 338.918 207.884C338.82 207.164 338.445 206.511 337.872 206.065C337.32 205.608 336.66 205.302 335.956 205.174C335.251 205.047 334.525 205.104 333.849 205.338C333.576 205.426 333.294 205.621 333.344 205.88Z" fill="black"/>
<path d="M338.219 211.273H341.112V299.592H338.219V211.273Z" fill="#9D9CB5"/>
<path d="M329.229 211.273H332.127V299.592H329.229V211.273Z" fill="#9D9CB5"/>
<path d="M405.008 91.1321C427.028 91.1321 444.878 73.2818 444.878 51.2624C444.878 29.243 427.028 11.3928 405.008 11.3928C382.989 11.3928 365.139 29.243 365.139 51.2624C365.139 73.2818 382.989 91.1321 405.008 91.1321Z" fill="#432AFF"/>
<path d="M405.008 87.8418C425.21 87.8418 441.588 71.4647 441.588 51.2624C441.588 31.0602 425.21 14.683 405.008 14.683C384.806 14.683 368.429 31.0602 368.429 51.2624C368.429 71.4647 384.806 87.8418 405.008 87.8418Z" fill="white"/>
<path d="M404.912 56.2945C407.638 56.2945 409.847 54.0849 409.847 51.3592C409.847 48.6335 407.638 46.4239 404.912 46.4239C402.186 46.4239 399.977 48.6335 399.977 51.3592C399.977 54.0849 402.186 56.2945 404.912 56.2945Z" fill="#432AFF"/>
<path d="M405.976 16.4249H403.847V20.4892H405.976V16.4249Z" fill="#432AFF"/>
<path d="M405.976 82.2291H403.847V86.2935H405.976V82.2291Z" fill="#432AFF"/>
<path d="M374.042 52.4237V50.2947H369.978V52.4237H374.042Z" fill="#432AFF"/>
<path d="M403.46 53.472L405.262 49.327L427.846 61.9072L403.46 53.472Z" fill="#432AFF"/>
<path d="M410.234 1.71571H399.977V13.5218H410.234V1.71571Z" fill="#432AFF"/>
<path d="M404.912 7.52195C411.485 7.52195 416.814 6.04887 416.814 4.23174C416.814 2.41461 411.485 0.941528 404.912 0.941528C398.338 0.941528 393.009 2.41461 393.009 4.23174C393.009 6.04887 398.338 7.52195 404.912 7.52195Z" fill="#432AFF"/>
<path d="M297.318 222.116H290.102V390.494H297.318V222.116Z" fill="#381E1D"/>
<path d="M290.102 222.116C290.102 222.116 302.369 206.721 312.472 226.686C312.472 226.686 307.661 235.586 306.218 231.256C304.775 226.926 301.317 220.453 297.273 224.291" fill="#381E1D"/>
<path d="M289.017 192.706C289.017 192.706 307.168 210.574 298.229 225.667C297.953 226.134 297.573 226.531 297.12 226.829C296.666 227.128 296.15 227.318 295.612 227.387C295.074 227.456 294.527 227.401 294.013 227.227C293.499 227.053 293.031 226.763 292.646 226.381C289.565 223.334 284.692 215.764 278.707 197.036L289.017 192.706Z" fill="#F0A481"/>
<path opacity="0.1" d="M276.27 98.5979C276.27 98.5979 295.032 104.371 291.424 126.982C287.816 149.593 289.259 165.468 289.259 165.468L294.07 194.333L285.411 206.12C285.411 206.12 270.497 191.206 265.446 176.052C260.394 160.898 260.875 101.003 276.27 98.5979Z" fill="black"/>
<path d="M276.03 98.3572C276.03 98.3572 294.792 104.13 291.184 126.741C287.576 149.352 289.019 165.228 289.019 165.228L293.83 194.092L285.17 205.879C285.17 205.879 270.257 190.965 265.206 175.811C260.154 160.657 260.635 100.763 276.03 98.3572Z" fill="#432AFF"/>
<path d="M254.029 355.837L250.953 378.871C250.953 378.871 258.849 382.103 261.215 381.372C263.581 380.64 267.728 383.613 267.728 383.613C267.728 383.613 285.371 389.187 288.836 384.178C292.301 379.17 284.442 377.638 278.066 373.863C271.689 370.087 268.993 355.515 268.993 355.515L254.029 355.837Z" fill="black"/>
<path d="M287.696 193.251V278.402L271.34 359.705H254.021L256.667 281.77C256.667 281.77 238.626 218.748 246.564 195.175L287.696 193.251Z" fill="#333333"/>
<path d="M274.353 203.994C274.353 203.994 299.572 207.564 301.362 225.013C301.417 225.553 301.349 226.098 301.161 226.608C300.974 227.117 300.673 227.577 300.281 227.953C299.889 228.328 299.417 228.609 298.9 228.775C298.383 228.94 297.835 228.986 297.298 228.908C293.009 228.29 284.59 225.103 268.64 213.606L274.353 203.994Z" fill="#F0A481"/>
<path d="M277.473 94.5087C277.473 94.5087 273.383 101.484 275.067 113.511C275.067 113.511 250.893 111.467 251.614 97.5155C251.614 97.5155 263.401 94.629 266.167 83.9249L277.473 94.5087Z" fill="#F0A481"/>
<path d="M237.191 360.889L234.115 383.922C234.115 383.922 242.011 387.154 244.377 386.423C246.743 385.691 250.89 388.664 250.89 388.664C250.89 388.664 268.533 394.238 271.998 389.23C275.463 384.221 267.604 382.689 261.228 378.914C254.851 375.139 252.155 360.566 252.155 360.566L237.191 360.889Z" fill="black"/>
<path opacity="0.1" d="M269.535 199.866V285.017L253.179 366.32H235.86L238.506 288.385C238.506 288.385 220.465 225.363 228.403 201.79L269.535 199.866Z" fill="black"/>
<path d="M268.814 199.866V285.017L252.457 366.32H235.138L237.784 288.385C237.784 288.385 219.743 225.363 227.681 201.79L268.814 199.866Z" fill="#333333"/>
<path opacity="0.1" d="M260.154 98.8385C260.154 98.8385 245 88.9763 234.897 118.322C224.795 147.668 228.884 201.79 228.884 201.79C228.884 201.79 271.941 215.741 287.335 196.257V167.152C287.335 167.152 295.514 133.957 283.968 105.093C283.968 105.093 273.865 109.182 260.154 98.8385Z" fill="#432AFF"/>
<path opacity="0.1" d="M259.673 99.56C259.673 99.56 244.519 89.6979 234.416 119.044C224.313 148.39 228.402 202.512 228.402 202.512C228.402 202.512 271.459 216.463 286.854 196.979V167.874C286.854 167.874 295.032 134.679 283.486 105.814C283.486 105.814 273.384 109.903 259.673 99.56Z" fill="black"/>
<path d="M259.673 98.8385C259.673 98.8385 244.519 88.9763 234.416 118.322C224.313 147.668 228.402 201.79 228.402 201.79C228.402 201.79 271.459 215.741 286.854 196.257V167.152C286.854 167.152 295.032 133.957 283.486 105.093C283.486 105.093 273.384 109.182 259.673 98.8385Z" fill="#432AFF"/>
<path opacity="0.1" d="M244.279 113.511C244.279 113.511 263.041 119.284 259.433 141.895C255.825 164.506 257.268 180.382 257.268 180.382L281.322 204.676L272.663 216.463C272.663 216.463 238.506 206.12 233.455 190.966C228.403 175.811 228.884 115.917 244.279 113.511Z" fill="black"/>
<path opacity="0.1" d="M243.076 114.233C243.076 114.233 261.838 120.006 258.23 142.617C254.622 165.228 256.065 181.103 256.065 181.103L280.119 205.398L271.46 217.184C271.46 217.184 237.303 206.841 232.251 191.687C227.2 176.533 227.681 116.638 243.076 114.233Z" fill="black"/>
<path d="M243.557 113.511C243.557 113.511 262.319 119.284 258.711 141.895C255.103 164.506 256.546 180.382 256.546 180.382L280.6 204.676L271.941 216.463C271.941 216.463 237.784 206.12 232.733 190.966C227.682 175.811 228.163 115.917 243.557 113.511Z" fill="#432AFF"/>
<path opacity="0.1" d="M265.807 84.7668L277.112 95.3506C276.928 95.6835 276.76 96.0256 276.61 96.3754C274.969 96.8131 273.278 97.0347 271.58 97.0344C267.262 97.0344 263.504 94.8414 260.274 92.4641C262.532 90.4241 264.469 88.4468 265.807 84.7668Z" fill="black"/>
<path d="M268.694 87.1722C279.454 87.1722 288.178 78.449 288.178 67.6884C288.178 56.9278 279.454 48.2046 268.694 48.2046C257.933 48.2046 249.21 56.9278 249.21 67.6884C249.21 78.449 257.933 87.1722 268.694 87.1722Z" fill="#E0E0E0"/>
<path d="M271.941 96.1926C282.701 96.1926 291.425 87.4694 291.425 76.7088C291.425 65.9481 282.701 57.225 271.941 57.225C261.18 57.225 252.457 65.9481 252.457 76.7088C252.457 87.4694 261.18 96.1926 271.941 96.1926Z" fill="#F0A481"/>
<path d="M252.577 67.6884C252.577 67.6884 245.281 86.7928 260.715 92.6352C262 91.9788 263.111 91.0271 263.958 89.8581C264.804 88.6892 265.361 87.3363 265.583 85.9105C265.805 84.4847 265.686 83.0265 265.236 81.6555C264.786 80.2845 264.017 79.0398 262.993 78.0234L252.577 67.6884Z" fill="#E0E0E0"/>
<path d="M287.705 63.4113C287.705 63.4113 294.431 65.0426 282.645 69.1318C280.705 69.7827 278.919 70.8261 277.4 72.1968C275.881 73.5676 274.659 75.2365 273.813 77.0996C273.285 78.2357 272.53 79.2515 271.594 80.0843C270.658 80.9171 269.561 81.5492 268.372 81.9415C267.182 82.3338 265.924 82.478 264.677 82.3652C263.429 82.2525 262.218 81.8851 261.118 81.2858L257.388 79.2345L250.894 64.0804L258.591 55.1804L271.821 53.4966L287.705 63.4113Z" fill="#E0E0E0"/>
<path d="M266.769 86.4507C267.832 86.4507 268.693 84.943 268.693 83.0831C268.693 81.2233 267.832 79.7156 266.769 79.7156C265.706 79.7156 264.845 81.2233 264.845 83.0831C264.845 84.943 265.706 86.4507 266.769 86.4507Z" fill="#F0A481"/>
<path d="M260.154 98.8385C260.154 98.8385 273.264 119.405 280.721 119.405C288.177 119.405 275.491 100.12 275.491 100.12L275.188 105.453L260.154 98.8385Z" fill="#333333"/>
<path d="M22.6336 258.789H12.792V388.339H22.6336V258.789Z" fill="#E0E0E0"/>
<path d="M9.58233 384.086H25.8435C28.3481 384.086 30.7502 385.012 32.5212 386.66C34.2922 388.309 35.2872 390.544 35.2872 392.875V400.443H0.138672V392.875C0.138673 390.544 1.13363 388.309 2.90466 386.66C4.67569 385.012 7.07772 384.086 9.58233 384.086Z" fill="#E0E0E0"/>
<path opacity="0.1" d="M17.7127 273.838C23.148 273.838 27.5542 269.737 27.5542 264.678C27.5542 259.619 23.148 255.518 17.7127 255.518C12.2773 255.518 7.87109 259.619 7.87109 264.678C7.87109 269.737 12.2773 273.838 17.7127 273.838Z" fill="black"/>
<path d="M17.7127 273.183C23.148 273.183 27.5542 269.082 27.5542 264.023C27.5542 258.964 23.148 254.863 17.7127 254.863C12.2773 254.863 7.87109 258.964 7.87109 264.023C7.87109 269.082 12.2773 273.183 17.7127 273.183Z" fill="#E0E0E0"/>
<path opacity="0.1" d="M12.792 384.736C12.792 384.736 19.1187 386.696 22.6336 384.737L12.792 384.736Z" fill="black"/>
<path d="M436.745 258.789H426.903V388.339H436.745V258.789Z" fill="#E0E0E0"/>
<path d="M423.694 384.086H439.955C442.459 384.086 444.861 385.012 446.632 386.66C448.404 388.309 449.398 390.544 449.398 392.875V400.443H414.25V392.875C414.25 390.544 415.245 388.309 417.016 386.66C418.787 385.012 421.189 384.086 423.694 384.086Z" fill="#E0E0E0"/>
<path opacity="0.1" d="M431.824 273.838C437.259 273.838 441.666 269.737 441.666 264.678C441.666 259.619 437.259 255.518 431.824 255.518C426.389 255.518 421.982 259.619 421.982 264.678C421.982 269.737 426.389 273.838 431.824 273.838Z" fill="black"/>
<path d="M431.824 273.183C437.259 273.183 441.666 269.082 441.666 264.023C441.666 258.964 437.259 254.863 431.824 254.863C426.389 254.863 421.982 258.964 421.982 264.023C421.982 269.082 426.389 273.183 431.824 273.183Z" fill="#E0E0E0"/>
<path opacity="0.1" d="M426.903 387.514C426.903 387.514 433.23 389.473 436.745 387.514L426.903 387.514Z" fill="black"/>
<path d="M240.997 333.496C211.492 333.496 180.934 330.706 149.645 325.136C65.4972 310.158 12.528 269.498 10.039 268.25C10.7412 268.601 70.4953 298.183 152.599 312.738C227.945 326.094 338.191 329.162 435.527 267.925C390.743 296.101 347.331 324.183 291.434 330.65C274.701 332.565 257.856 333.516 240.997 333.496Z" fill="#8B8B8B"/>
</svg>
