<svg width="710" height="528" viewBox="0 0 710 528" fill="none" xmlns="http://www.w3.org/2000/svg">
<g filter="url(#filter0_d)">
<rect x="254" y="94.9419" width="362" height="118.204" rx="24" fill="white"/>
</g>
<path d="M327.196 133.942H328.114V121.342H327.196V133.942ZM344.436 124.546V126.67C343.68 125.266 342.222 124.474 340.494 124.474C337.83 124.474 335.814 126.346 335.814 129.028C335.814 131.71 337.83 133.6 340.494 133.6C342.186 133.6 343.626 132.826 344.4 131.458V133.042C344.4 135.544 343.23 136.696 340.728 136.696C339.216 136.696 337.866 136.192 336.93 135.328L336.444 136.012C337.398 136.966 339.036 137.506 340.746 137.506C343.77 137.506 345.3 136.084 345.3 132.934V124.546H344.436ZM340.566 132.79C338.352 132.79 336.732 131.242 336.732 129.028C336.732 126.814 338.352 125.284 340.566 125.284C342.798 125.284 344.418 126.814 344.418 129.028C344.418 131.242 342.798 132.79 340.566 132.79ZM357.065 129.208C357.065 126.418 355.157 124.474 352.583 124.474C350.009 124.474 348.083 126.454 348.083 129.244C348.083 132.034 350.081 134.014 352.925 134.014C354.347 134.014 355.643 133.492 356.471 132.484L355.949 131.89C355.229 132.772 354.131 133.204 352.943 133.204C350.693 133.204 349.055 131.692 348.965 129.46H357.047C357.047 129.37 357.065 129.28 357.065 129.208ZM352.583 125.266C354.581 125.266 356.057 126.724 356.183 128.758H348.983C349.127 126.706 350.585 125.266 352.583 125.266ZM364.133 132.718C363.755 133.06 363.233 133.24 362.675 133.24C361.523 133.24 360.929 132.574 360.929 131.368V125.32H363.917V124.546H360.929V122.494H360.029V124.546H358.301V125.32H360.029V131.458C360.029 133.042 360.929 134.014 362.585 134.014C363.287 134.014 364.043 133.798 364.511 133.348L364.133 132.718ZM374.812 124.474C373.354 124.474 371.986 124.978 371.05 125.806L371.5 126.454C372.274 125.752 373.444 125.266 374.74 125.266C376.576 125.266 377.53 126.202 377.53 127.948V128.704H374.308C371.698 128.704 370.798 129.91 370.798 131.332C370.798 132.934 372.076 134.014 374.182 134.014C375.82 134.014 376.972 133.348 377.566 132.268V133.942H378.43V127.984C378.43 125.662 377.134 124.474 374.812 124.474ZM374.308 133.276C372.652 133.276 371.698 132.52 371.698 131.296C371.698 130.216 372.382 129.406 374.326 129.406H377.53V131.17C376.99 132.52 375.892 133.276 374.308 133.276ZM386.728 124.474C384.946 124.474 383.632 125.266 383.002 126.58V124.546H382.138V133.942H383.038V128.938C383.038 126.706 384.388 125.284 386.602 125.284C388.51 125.284 389.644 126.4 389.644 128.524V133.942H390.544V128.452C390.544 125.824 389.014 124.474 386.728 124.474ZM398.84 124.474C397.058 124.474 395.744 125.266 395.114 126.58V124.546H394.25V133.942H395.15V128.938C395.15 126.706 396.5 125.284 398.714 125.284C400.622 125.284 401.756 126.4 401.756 128.524V133.942H402.656V128.452C402.656 125.824 401.126 124.474 398.84 124.474ZM410.051 134.014C412.751 134.014 414.749 132.034 414.749 129.244C414.749 126.454 412.751 124.474 410.051 124.474C407.351 124.474 405.353 126.454 405.353 129.244C405.353 132.034 407.351 134.014 410.051 134.014ZM410.051 133.204C407.891 133.204 406.271 131.602 406.271 129.244C406.271 126.886 407.891 125.284 410.051 125.284C412.211 125.284 413.831 126.886 413.831 129.244C413.831 131.602 412.211 133.204 410.051 133.204ZM423.901 124.546L420.139 132.952L416.377 124.546H415.423L419.653 133.906L419.149 135.04C418.573 136.318 417.943 136.714 417.079 136.714C416.377 136.714 415.819 136.48 415.333 135.976L414.883 136.66C415.423 137.218 416.215 137.506 417.061 137.506C418.303 137.506 419.239 136.948 419.995 135.22L424.819 124.546H423.901ZM434.479 129.208C434.479 126.418 432.571 124.474 429.997 124.474C427.423 124.474 425.497 126.454 425.497 129.244C425.497 132.034 427.495 134.014 430.339 134.014C431.761 134.014 433.057 133.492 433.885 132.484L433.363 131.89C432.643 132.772 431.545 133.204 430.357 133.204C428.107 133.204 426.469 131.692 426.379 129.46H434.461C434.461 129.37 434.479 129.28 434.479 129.208ZM429.997 125.266C431.995 125.266 433.471 126.724 433.597 128.758H426.397C426.541 126.706 427.999 125.266 429.997 125.266ZM444.715 120.586V126.724C443.959 125.302 442.555 124.474 440.881 124.474C438.235 124.474 436.237 126.418 436.237 129.244C436.237 132.052 438.235 134.014 440.881 134.014C442.573 134.014 443.995 133.186 444.733 131.728V133.942H445.615V120.586H444.715ZM440.935 133.204C438.775 133.204 437.155 131.602 437.155 129.244C437.155 126.886 438.775 125.284 440.935 125.284C443.095 125.284 444.715 126.886 444.715 129.244C444.715 131.602 443.095 133.204 440.935 133.204ZM466.633 124.546L463.465 132.916L460.279 124.546H459.505L456.301 132.934L453.169 124.546H452.305L455.869 133.942H456.697L459.883 125.788L463.051 133.942H463.897L467.461 124.546H466.633ZM474.144 124.474C472.398 124.474 471.102 125.23 470.454 126.508V120.586H469.554V133.942H470.454V128.938C470.454 126.706 471.804 125.284 474.018 125.284C475.926 125.284 477.06 126.4 477.06 128.524V133.942H477.96V128.452C477.96 125.824 476.43 124.474 474.144 124.474ZM489.639 129.208C489.639 126.418 487.731 124.474 485.157 124.474C482.583 124.474 480.657 126.454 480.657 129.244C480.657 132.034 482.655 134.014 485.499 134.014C486.921 134.014 488.217 133.492 489.045 132.484L488.523 131.89C487.803 132.772 486.705 133.204 485.517 133.204C483.267 133.204 481.629 131.692 481.539 129.46H489.621C489.621 129.37 489.639 129.28 489.639 129.208ZM485.157 125.266C487.155 125.266 488.631 126.724 488.757 128.758H481.557C481.701 126.706 483.159 125.266 485.157 125.266ZM497.014 124.474C495.232 124.474 493.918 125.266 493.288 126.58V124.546H492.424V133.942H493.324V128.938C493.324 126.706 494.674 125.284 496.888 125.284C498.796 125.284 499.93 126.4 499.93 128.524V133.942H500.83V128.452C500.83 125.824 499.3 124.474 497.014 124.474ZM513.874 124.474C512.182 124.474 510.76 125.32 510.022 126.76V124.546H509.158V137.434H510.058V131.8C510.814 133.204 512.218 134.014 513.874 134.014C516.52 134.014 518.518 132.07 518.518 129.244C518.518 126.436 516.52 124.474 513.874 124.474ZM513.82 133.204C511.66 133.204 510.04 131.602 510.04 129.244C510.04 126.886 511.66 125.284 513.82 125.284C515.98 125.284 517.618 126.886 517.618 129.244C517.618 131.602 515.98 133.204 513.82 133.204ZM529.26 129.208C529.26 126.418 527.352 124.474 524.778 124.474C522.204 124.474 520.278 126.454 520.278 129.244C520.278 132.034 522.276 134.014 525.12 134.014C526.542 134.014 527.838 133.492 528.666 132.484L528.144 131.89C527.424 132.772 526.326 133.204 525.138 133.204C522.888 133.204 521.25 131.692 521.16 129.46H529.242C529.242 129.37 529.26 129.28 529.26 129.208ZM524.778 125.266C526.776 125.266 528.252 126.724 528.378 128.758H521.178C521.322 126.706 522.78 125.266 524.778 125.266ZM535.717 134.014C538.417 134.014 540.415 132.034 540.415 129.244C540.415 126.454 538.417 124.474 535.717 124.474C533.017 124.474 531.019 126.454 531.019 129.244C531.019 132.034 533.017 134.014 535.717 134.014ZM535.717 133.204C533.557 133.204 531.937 131.602 531.937 129.244C531.937 126.886 533.557 125.284 535.717 125.284C537.877 125.284 539.497 126.886 539.497 129.244C539.497 131.602 537.877 133.204 535.717 133.204ZM547.923 124.474C546.231 124.474 544.809 125.32 544.071 126.76V124.546H543.207V137.434H544.107V131.8C544.863 133.204 546.267 134.014 547.923 134.014C550.569 134.014 552.567 132.07 552.567 129.244C552.567 126.436 550.569 124.474 547.923 124.474ZM547.869 133.204C545.709 133.204 544.089 131.602 544.089 129.244C544.089 126.886 545.709 125.284 547.869 125.284C550.029 125.284 551.667 126.886 551.667 129.244C551.667 131.602 550.029 133.204 547.869 133.204ZM555.353 133.942H556.253V120.586H555.353V133.942ZM568.003 129.208C568.003 126.418 566.095 124.474 563.521 124.474C560.947 124.474 559.021 126.454 559.021 129.244C559.021 132.034 561.019 134.014 563.863 134.014C565.285 134.014 566.581 133.492 567.409 132.484L566.887 131.89C566.167 132.772 565.069 133.204 563.881 133.204C561.631 133.204 559.993 131.692 559.903 129.46H567.985C567.985 129.37 568.003 129.28 568.003 129.208ZM563.521 125.266C565.519 125.266 566.995 126.724 567.121 128.758H559.921C560.065 126.706 561.523 125.266 563.521 125.266ZM334.36 142.586V148.724C333.604 147.302 332.2 146.474 330.526 146.474C327.88 146.474 325.882 148.418 325.882 151.244C325.882 154.052 327.88 156.014 330.526 156.014C332.218 156.014 333.64 155.186 334.378 153.728V155.942H335.26V142.586H334.36ZM330.58 155.204C328.42 155.204 326.8 153.602 326.8 151.244C326.8 148.886 328.42 147.284 330.58 147.284C332.74 147.284 334.36 148.886 334.36 151.244C334.36 153.602 332.74 155.204 330.58 155.204ZM342.726 156.014C345.426 156.014 347.424 154.034 347.424 151.244C347.424 148.454 345.426 146.474 342.726 146.474C340.026 146.474 338.028 148.454 338.028 151.244C338.028 154.034 340.026 156.014 342.726 156.014ZM342.726 155.204C340.566 155.204 338.946 153.602 338.946 151.244C338.946 148.886 340.566 147.284 342.726 147.284C344.886 147.284 346.506 148.886 346.506 151.244C346.506 153.602 344.886 155.204 342.726 155.204ZM354.807 146.474C353.025 146.474 351.711 147.266 351.081 148.58V146.546H350.217V155.942H351.117V150.938C351.117 148.706 352.467 147.284 354.681 147.284C356.589 147.284 357.723 148.4 357.723 150.524V155.942H358.623V150.452C358.623 147.824 357.093 146.474 354.807 146.474ZM361.824 147.986H362.508L362.58 143.342H361.752L361.824 147.986ZM370.11 154.718C369.732 155.06 369.21 155.24 368.652 155.24C367.5 155.24 366.906 154.574 366.906 153.368V147.32H369.894V146.546H366.906V144.494H366.006V146.546H364.278V147.32H366.006V153.458C366.006 155.042 366.906 156.014 368.562 156.014C369.264 156.014 370.02 155.798 370.488 155.348L370.11 154.718ZM384.965 155.942H386.081L381.635 150.344L385.685 146.546H384.533L378.521 152.036V142.586H377.621V155.942H378.521V153.152L380.969 150.92L384.965 155.942ZM392.635 146.474C390.853 146.474 389.539 147.266 388.909 148.58V146.546H388.045V155.942H388.945V150.938C388.945 148.706 390.295 147.284 392.509 147.284C394.417 147.284 395.551 148.4 395.551 150.524V155.942H396.451V150.452C396.451 147.824 394.921 146.474 392.635 146.474ZM403.846 156.014C406.546 156.014 408.544 154.034 408.544 151.244C408.544 148.454 406.546 146.474 403.846 146.474C401.146 146.474 399.148 148.454 399.148 151.244C399.148 154.034 401.146 156.014 403.846 156.014ZM403.846 155.204C401.686 155.204 400.066 153.602 400.066 151.244C400.066 148.886 401.686 147.284 403.846 147.284C406.006 147.284 407.626 148.886 407.626 151.244C407.626 153.602 406.006 155.204 403.846 155.204ZM423.672 146.546L420.504 154.916L417.318 146.546H416.544L413.34 154.934L410.208 146.546H409.344L412.908 155.942H413.736L416.922 147.788L420.09 155.942H420.936L424.5 146.546H423.672ZM443.817 146.546L440.649 154.916L437.463 146.546H436.689L433.485 154.934L430.353 146.546H429.489L433.053 155.942H433.881L437.067 147.788L440.235 155.942H441.081L444.645 146.546H443.817ZM451.328 146.474C449.582 146.474 448.286 147.23 447.638 148.508V142.586H446.738V155.942H447.638V150.938C447.638 148.706 448.988 147.284 451.202 147.284C453.11 147.284 454.244 148.4 454.244 150.524V155.942H455.144V150.452C455.144 147.824 453.614 146.474 451.328 146.474ZM462.017 146.474C460.559 146.474 459.191 146.978 458.255 147.806L458.705 148.454C459.479 147.752 460.649 147.266 461.945 147.266C463.781 147.266 464.735 148.202 464.735 149.948V150.704H461.513C458.903 150.704 458.003 151.91 458.003 153.332C458.003 154.934 459.281 156.014 461.387 156.014C463.025 156.014 464.177 155.348 464.771 154.268V155.942H465.635V149.984C465.635 147.662 464.339 146.474 462.017 146.474ZM461.513 155.276C459.857 155.276 458.903 154.52 458.903 153.296C458.903 152.216 459.587 151.406 461.531 151.406H464.735V153.17C464.195 154.52 463.097 155.276 461.513 155.276ZM473.628 154.718C473.25 155.06 472.728 155.24 472.17 155.24C471.018 155.24 470.424 154.574 470.424 153.368V147.32H473.412V146.546H470.424V144.494H469.524V146.546H467.796V147.32H469.524V153.458C469.524 155.042 470.424 156.014 472.08 156.014C472.782 156.014 473.538 155.798 474.006 155.348L473.628 154.718ZM485.422 154.718C485.044 155.06 484.522 155.24 483.964 155.24C482.812 155.24 482.218 154.574 482.218 153.368V147.32H485.206V146.546H482.218V144.494H481.318V146.546H479.59V147.32H481.318V153.458C481.318 155.042 482.218 156.014 483.874 156.014C484.576 156.014 485.332 155.798 485.8 155.348L485.422 154.718ZM491.648 156.014C494.348 156.014 496.346 154.034 496.346 151.244C496.346 148.454 494.348 146.474 491.648 146.474C488.948 146.474 486.95 148.454 486.95 151.244C486.95 154.034 488.948 156.014 491.648 156.014ZM491.648 155.204C489.488 155.204 487.868 153.602 487.868 151.244C487.868 148.886 489.488 147.284 491.648 147.284C493.808 147.284 495.428 148.886 495.428 151.244C495.428 153.602 493.808 155.204 491.648 155.204ZM511.214 142.586V148.724C510.458 147.302 509.054 146.474 507.38 146.474C504.734 146.474 502.736 148.418 502.736 151.244C502.736 154.052 504.734 156.014 507.38 156.014C509.072 156.014 510.494 155.186 511.232 153.728V155.942H512.114V142.586H511.214ZM507.434 155.204C505.274 155.204 503.654 153.602 503.654 151.244C503.654 148.886 505.274 147.284 507.434 147.284C509.594 147.284 511.214 148.886 511.214 151.244C511.214 153.602 509.594 155.204 507.434 155.204ZM519.58 156.014C522.28 156.014 524.278 154.034 524.278 151.244C524.278 148.454 522.28 146.474 519.58 146.474C516.88 146.474 514.882 148.454 514.882 151.244C514.882 154.034 516.88 156.014 519.58 156.014ZM519.58 155.204C517.42 155.204 515.8 153.602 515.8 151.244C515.8 148.886 517.42 147.284 519.58 147.284C521.74 147.284 523.36 148.886 523.36 151.244C523.36 153.602 521.74 155.204 519.58 155.204ZM534.861 146.474C533.403 146.474 532.035 146.978 531.099 147.806L531.549 148.454C532.323 147.752 533.493 147.266 534.789 147.266C536.625 147.266 537.579 148.202 537.579 149.948V150.704H534.357C531.747 150.704 530.847 151.91 530.847 153.332C530.847 154.934 532.125 156.014 534.231 156.014C535.869 156.014 537.021 155.348 537.615 154.268V155.942H538.479V149.984C538.479 147.662 537.183 146.474 534.861 146.474ZM534.357 155.276C532.701 155.276 531.747 154.52 531.747 153.296C531.747 152.216 532.431 151.406 534.375 151.406H537.579V153.17C537.039 154.52 535.941 155.276 534.357 155.276ZM546.777 146.474C544.995 146.474 543.681 147.266 543.051 148.58V146.546H542.187V155.942H543.087V150.938C543.087 148.706 544.437 147.284 546.651 147.284C548.559 147.284 549.693 148.4 549.693 150.524V155.942H550.593V150.452C550.593 147.824 549.063 146.474 546.777 146.474ZM561.768 142.586V148.724C561.012 147.302 559.608 146.474 557.934 146.474C555.288 146.474 553.29 148.418 553.29 151.244C553.29 154.052 555.288 156.014 557.934 156.014C559.626 156.014 561.048 155.186 561.786 153.728V155.942H562.668V142.586H561.768ZM557.988 155.204C555.828 155.204 554.208 153.602 554.208 151.244C554.208 148.886 555.828 147.284 557.988 147.284C560.148 147.284 561.768 148.886 561.768 151.244C561.768 153.602 560.148 155.204 557.988 155.204ZM329.284 178.014C331.678 178.014 332.992 176.97 332.992 175.44C332.992 171.858 326.764 173.856 326.764 171.03C326.764 170.022 327.574 169.266 329.41 169.266C330.418 169.266 331.444 169.536 332.236 170.112L332.65 169.392C331.912 168.834 330.616 168.474 329.428 168.474C327.052 168.474 325.864 169.626 325.864 171.048C325.864 174.738 332.092 172.722 332.092 175.458C332.092 176.52 331.3 177.222 329.32 177.222C327.934 177.222 326.656 176.7 325.936 176.088L325.522 176.808C326.26 177.492 327.736 178.014 329.284 178.014ZM335.504 177.942H336.404V164.586H335.504V177.942ZM343.869 178.014C346.569 178.014 348.567 176.034 348.567 173.244C348.567 170.454 346.569 168.474 343.869 168.474C341.169 168.474 339.171 170.454 339.171 173.244C339.171 176.034 341.169 178.014 343.869 178.014ZM343.869 177.204C341.709 177.204 340.089 175.602 340.089 173.244C340.089 170.886 341.709 169.284 343.869 169.284C346.029 169.284 347.649 170.886 347.649 173.244C347.649 175.602 346.029 177.204 343.869 177.204ZM363.696 168.546L360.528 176.916L357.342 168.546H356.568L353.364 176.934L350.232 168.546H349.368L352.932 177.942H353.76L356.946 169.788L360.114 177.942H360.96L364.524 168.546H363.696ZM378.692 164.586V170.724C377.936 169.302 376.532 168.474 374.858 168.474C372.212 168.474 370.214 170.418 370.214 173.244C370.214 176.052 372.212 178.014 374.858 178.014C376.55 178.014 377.972 177.186 378.71 175.728V177.942H379.592V164.586H378.692ZM374.912 177.204C372.752 177.204 371.132 175.602 371.132 173.244C371.132 170.886 372.752 169.284 374.912 169.284C377.072 169.284 378.692 170.886 378.692 173.244C378.692 175.602 377.072 177.204 374.912 177.204ZM387.059 178.014C389.759 178.014 391.757 176.034 391.757 173.244C391.757 170.454 389.759 168.474 387.059 168.474C384.359 168.474 382.361 170.454 382.361 173.244C382.361 176.034 384.359 178.014 387.059 178.014ZM387.059 177.204C384.899 177.204 383.279 175.602 383.279 173.244C383.279 170.886 384.899 169.284 387.059 169.284C389.219 169.284 390.839 170.886 390.839 173.244C390.839 175.602 389.219 177.204 387.059 177.204ZM406.885 168.546L403.717 176.916L400.531 168.546H399.757L396.553 176.934L393.421 168.546H392.557L396.121 177.942H396.949L400.135 169.788L403.303 177.942H404.149L407.713 168.546H406.885ZM414.396 168.474C412.614 168.474 411.3 169.266 410.67 170.58V168.546H409.806V177.942H410.706V172.938C410.706 170.706 412.056 169.284 414.27 169.284C416.178 169.284 417.312 170.4 417.312 172.524V177.942H418.212V172.452C418.212 169.824 416.682 168.474 414.396 168.474ZM430.825 176.718C430.447 177.06 429.925 177.24 429.367 177.24C428.215 177.24 427.621 176.574 427.621 175.368V169.32H430.609V168.546H427.621V166.494H426.721V168.546H424.993V169.32H426.721V175.458C426.721 177.042 427.621 178.014 429.277 178.014C429.979 178.014 430.735 177.798 431.203 177.348L430.825 176.718ZM438.303 168.474C436.557 168.474 435.261 169.23 434.613 170.508V164.586H433.713V177.942H434.613V172.938C434.613 170.706 435.963 169.284 438.177 169.284C440.085 169.284 441.219 170.4 441.219 172.524V177.942H442.119V172.452C442.119 169.824 440.589 168.474 438.303 168.474ZM453.798 173.208C453.798 170.418 451.89 168.474 449.316 168.474C446.742 168.474 444.816 170.454 444.816 173.244C444.816 176.034 446.814 178.014 449.658 178.014C451.08 178.014 452.376 177.492 453.204 176.484L452.682 175.89C451.962 176.772 450.864 177.204 449.676 177.204C447.426 177.204 445.788 175.692 445.698 173.46H453.78C453.78 173.37 453.798 173.28 453.798 173.208ZM449.316 169.266C451.314 169.266 452.79 170.724 452.916 172.758H445.716C445.86 170.706 447.318 169.266 449.316 169.266ZM461.205 177.942H462.105V164.586H461.205V177.942ZM466.348 166.26C466.762 166.26 467.086 165.936 467.086 165.522C467.086 165.126 466.762 164.802 466.348 164.802C465.934 164.802 465.61 165.144 465.61 165.54C465.61 165.936 465.934 166.26 466.348 166.26ZM465.898 177.942H466.798V168.546H465.898V177.942ZM475.182 168.474C473.4 168.474 472.086 169.266 471.456 170.58V168.546H470.592V177.942H471.492V172.938C471.492 170.706 472.842 169.284 475.056 169.284C476.964 169.284 478.098 170.4 478.098 172.524V177.942H478.998V172.452C478.998 169.824 477.468 168.474 475.182 168.474ZM490.677 173.208C490.677 170.418 488.769 168.474 486.195 168.474C483.621 168.474 481.695 170.454 481.695 173.244C481.695 176.034 483.693 178.014 486.537 178.014C487.959 178.014 489.255 177.492 490.083 176.484L489.561 175.89C488.841 176.772 487.743 177.204 486.555 177.204C484.305 177.204 482.667 175.692 482.577 173.46H490.659C490.659 173.37 490.677 173.28 490.677 173.208ZM486.195 169.266C488.193 169.266 489.669 170.724 489.795 172.758H482.595C482.739 170.706 484.197 169.266 486.195 169.266ZM493.353 178.014C493.767 178.014 494.109 177.672 494.109 177.24C494.109 176.808 493.767 176.484 493.353 176.484C492.939 176.484 492.597 176.808 492.597 177.24C492.597 177.672 492.939 178.014 493.353 178.014Z" fill="black"/>
<g filter="url(#filter1_d)">
<path d="M310.332 246.157V203.911H352.578L310.332 246.157Z" fill="white"/>
</g>
<path d="M284.61 126.34L280.307 132.776C279.483 133.954 278.934 135.133 278.934 136.583C278.934 139.393 280.948 141.115 283.328 141.115C285.8 141.115 287.631 139.212 287.631 136.583C287.631 135.042 286.99 133.592 285.617 132.866L288.638 126.34H284.61ZM297.152 132.866L300.173 126.34H296.145L291.842 132.776C291.018 133.954 290.469 135.133 290.469 136.583C290.469 139.393 292.483 141.115 294.863 141.115C297.335 141.115 299.166 139.212 299.166 136.583C299.166 135.042 298.525 133.592 297.152 132.866Z" fill="black"/>
<g filter="url(#filter2_d)">
<rect x="94" y="281.802" width="362" height="118.204" rx="24" fill="white"/>
</g>
<path d="M171.811 324.663C175.139 324.663 177.635 322.247 177.635 318.983C177.635 315.719 175.139 313.303 171.811 313.303C168.467 313.303 165.987 315.735 165.987 318.983C165.987 322.231 168.467 324.663 171.811 324.663ZM171.811 323.911C168.947 323.911 166.803 321.815 166.803 318.983C166.803 316.151 168.947 314.055 171.811 314.055C174.659 314.055 176.803 316.151 176.803 318.983C176.803 321.815 174.659 323.911 171.811 323.911ZM184.29 316.167C182.738 316.167 181.586 316.839 181.01 317.975V312.711H180.21V324.583H181.01V320.135C181.01 318.151 182.21 316.887 184.178 316.887C185.874 316.887 186.882 317.879 186.882 319.767V324.583H187.682V319.703C187.682 317.367 186.322 316.167 184.29 316.167ZM199.165 316.167C197.581 316.167 196.413 316.871 195.853 318.039V316.231H195.085V324.583H195.885V320.135C195.885 318.151 197.085 316.887 199.053 316.887C200.749 316.887 201.757 317.879 201.757 319.767V324.583H202.557V319.703C202.557 317.367 201.197 316.167 199.165 316.167ZM209.13 324.647C211.53 324.647 213.306 322.887 213.306 320.407C213.306 317.927 211.53 316.167 209.13 316.167C206.73 316.167 204.954 317.927 204.954 320.407C204.954 322.887 206.73 324.647 209.13 324.647ZM209.13 323.927C207.21 323.927 205.77 322.503 205.77 320.407C205.77 318.311 207.21 316.887 209.13 316.887C211.05 316.887 212.49 318.311 212.49 320.407C212.49 322.503 211.05 323.927 209.13 323.927ZM215.426 323.287C215.042 323.287 214.754 323.575 214.754 323.959C214.754 324.295 214.962 324.535 215.282 324.615L214.754 326.871H215.33L215.954 324.695C216.05 324.359 216.098 324.199 216.098 323.959C216.098 323.607 215.826 323.287 215.426 323.287ZM226.643 323.495C226.307 323.799 225.843 323.959 225.347 323.959C224.323 323.959 223.795 323.367 223.795 322.295V316.919H226.451V316.231H223.795V314.407H222.995V316.231H221.459V316.919H222.995V322.375C222.995 323.783 223.795 324.647 225.267 324.647C225.891 324.647 226.563 324.455 226.979 324.055L226.643 323.495ZM233.29 316.167C231.738 316.167 230.586 316.839 230.01 317.975V312.711H229.21V324.583H230.01V320.135C230.01 318.151 231.21 316.887 233.178 316.887C234.874 316.887 235.882 317.879 235.882 319.767V324.583H236.682V319.703C236.682 317.367 235.322 316.167 233.29 316.167ZM240.375 314.199C240.743 314.199 241.031 313.911 241.031 313.543C241.031 313.191 240.743 312.903 240.375 312.903C240.007 312.903 239.719 313.207 239.719 313.559C239.719 313.911 240.007 314.199 240.375 314.199ZM239.975 324.583H240.775V316.231H239.975V324.583ZM246.259 324.647C248.387 324.647 249.555 323.719 249.555 322.359C249.555 319.175 244.019 320.951 244.019 318.439C244.019 317.543 244.739 316.871 246.371 316.871C247.267 316.871 248.179 317.111 248.883 317.623L249.251 316.983C248.595 316.487 247.443 316.167 246.387 316.167C244.275 316.167 243.219 317.191 243.219 318.455C243.219 321.735 248.755 319.943 248.755 322.375C248.755 323.319 248.051 323.943 246.291 323.943C245.059 323.943 243.923 323.479 243.283 322.935L242.915 323.575C243.571 324.183 244.883 324.647 246.259 324.647ZM256.297 314.199C256.665 314.199 256.953 313.911 256.953 313.543C256.953 313.191 256.665 312.903 256.297 312.903C255.929 312.903 255.641 313.207 255.641 313.559C255.641 313.911 255.929 314.199 256.297 314.199ZM255.897 324.583H256.697V316.231H255.897V324.583ZM262.181 324.647C264.309 324.647 265.477 323.719 265.477 322.359C265.477 319.175 259.941 320.951 259.941 318.439C259.941 317.543 260.661 316.871 262.293 316.871C263.189 316.871 264.101 317.111 264.805 317.623L265.173 316.983C264.517 316.487 263.365 316.167 262.309 316.167C260.197 316.167 259.141 317.191 259.141 318.455C259.141 321.735 264.677 319.943 264.677 322.375C264.677 323.319 263.973 323.943 262.213 323.943C260.981 323.943 259.845 323.479 259.205 322.935L258.837 323.575C259.493 324.183 260.805 324.647 262.181 324.647ZM283.019 316.231L280.203 323.671L277.371 316.231H276.683L273.835 323.687L271.051 316.231H270.283L273.451 324.583H274.187L277.019 317.335L279.835 324.583H280.587L283.755 316.231H283.019ZM289.696 316.167C288.144 316.167 286.992 316.839 286.416 317.975V312.711H285.616V324.583H286.416V320.135C286.416 318.151 287.616 316.887 289.584 316.887C291.28 316.887 292.288 317.879 292.288 319.767V324.583H293.088V319.703C293.088 317.367 291.728 316.167 289.696 316.167ZM303.469 320.375C303.469 317.895 301.773 316.167 299.485 316.167C297.197 316.167 295.485 317.927 295.485 320.407C295.485 322.887 297.261 324.647 299.789 324.647C301.053 324.647 302.205 324.183 302.941 323.287L302.477 322.759C301.837 323.543 300.861 323.927 299.805 323.927C297.805 323.927 296.349 322.583 296.269 320.599H303.453C303.453 320.519 303.469 320.439 303.469 320.375ZM299.485 316.871C301.261 316.871 302.573 318.167 302.685 319.975H296.285C296.413 318.151 297.709 316.871 299.485 316.871ZM306.712 318.055V316.231H305.944V324.583H306.744V320.231C306.744 318.167 307.848 316.935 309.704 316.935C309.768 316.935 309.832 316.951 309.896 316.951V316.167C308.328 316.167 307.224 316.839 306.712 318.055ZM319.094 320.375C319.094 317.895 317.398 316.167 315.11 316.167C312.822 316.167 311.11 317.927 311.11 320.407C311.11 322.887 312.886 324.647 315.414 324.647C316.678 324.647 317.83 324.183 318.566 323.287L318.102 322.759C317.462 323.543 316.486 323.927 315.43 323.927C313.43 323.927 311.974 322.583 311.894 320.599H319.078C319.078 320.519 319.094 320.439 319.094 320.375ZM315.11 316.871C316.886 316.871 318.198 318.167 318.31 319.975H311.91C312.038 318.151 313.334 316.871 315.11 316.871ZM325.934 324.583H326.75V313.383H325.934V324.583ZM341.259 316.231V318.119C340.587 316.871 339.291 316.167 337.755 316.167C335.387 316.167 333.595 317.831 333.595 320.215C333.595 322.599 335.387 324.279 337.755 324.279C339.259 324.279 340.539 323.591 341.227 322.375V323.783C341.227 326.007 340.187 327.031 337.963 327.031C336.619 327.031 335.419 326.583 334.587 325.815L334.155 326.423C335.003 327.271 336.459 327.751 337.979 327.751C340.667 327.751 342.027 326.487 342.027 323.687V316.231H341.259ZM337.819 323.559C335.851 323.559 334.411 322.183 334.411 320.215C334.411 318.247 335.851 316.887 337.819 316.887C339.803 316.887 341.243 318.247 341.243 320.215C341.243 322.183 339.803 323.559 337.819 323.559ZM352.485 320.375C352.485 317.895 350.789 316.167 348.501 316.167C346.213 316.167 344.501 317.927 344.501 320.407C344.501 322.887 346.277 324.647 348.805 324.647C350.069 324.647 351.221 324.183 351.957 323.287L351.493 322.759C350.853 323.543 349.877 323.927 348.821 323.927C346.821 323.927 345.365 322.583 345.285 320.599H352.469C352.469 320.519 352.485 320.439 352.485 320.375ZM348.501 316.871C350.277 316.871 351.589 318.167 351.701 319.975H345.301C345.429 318.151 346.725 316.871 348.501 316.871ZM358.768 323.495C358.432 323.799 357.968 323.959 357.472 323.959C356.448 323.959 355.92 323.367 355.92 322.295V316.919H358.576V316.231H355.92V314.407H355.12V316.231H353.584V316.919H355.12V322.375C355.12 323.783 355.92 324.647 357.392 324.647C358.016 324.647 358.688 324.455 359.104 324.055L358.768 323.495ZM371.332 316.231L367.988 323.703L364.644 316.231H363.796L367.556 324.551L367.108 325.559C366.596 326.695 366.036 327.047 365.268 327.047C364.644 327.047 364.148 326.839 363.716 326.391L363.316 326.999C363.796 327.495 364.5 327.751 365.252 327.751C366.356 327.751 367.188 327.255 367.86 325.719L372.148 316.231H371.332ZM380.735 320.375C380.735 317.895 379.039 316.167 376.751 316.167C374.463 316.167 372.751 317.927 372.751 320.407C372.751 322.887 374.527 324.647 377.055 324.647C378.319 324.647 379.471 324.183 380.207 323.287L379.743 322.759C379.103 323.543 378.127 323.927 377.071 323.927C375.071 323.927 373.615 322.583 373.535 320.599H380.719C380.719 320.519 380.735 320.439 380.735 320.375ZM376.751 316.871C378.527 316.871 379.839 318.167 379.951 319.975H373.551C373.679 318.151 374.975 316.871 376.751 316.871ZM383.21 324.583H384.01V312.711H383.21V324.583ZM387.382 324.583H388.182V312.711H387.382V324.583ZM398.625 320.375C398.625 317.895 396.929 316.167 394.641 316.167C392.353 316.167 390.641 317.927 390.641 320.407C390.641 322.887 392.417 324.647 394.945 324.647C396.209 324.647 397.361 324.183 398.097 323.287L397.633 322.759C396.993 323.543 396.017 323.927 394.961 323.927C392.961 323.927 391.505 322.583 391.425 320.599H398.609C398.609 320.519 398.625 320.439 398.625 320.375ZM394.641 316.871C396.417 316.871 397.729 318.167 397.841 319.975H391.441C391.569 318.151 392.865 316.871 394.641 316.871ZM407.724 312.711V318.167C407.052 316.903 405.804 316.167 404.316 316.167C401.964 316.167 400.188 317.895 400.188 320.407C400.188 322.903 401.964 324.647 404.316 324.647C405.82 324.647 407.084 323.911 407.74 322.615V324.583H408.524V312.711H407.724ZM404.364 323.927C402.444 323.927 401.004 322.503 401.004 320.407C401.004 318.311 402.444 316.887 404.364 316.887C406.284 316.887 407.724 318.311 407.724 320.407C407.724 322.503 406.284 323.927 404.364 323.927ZM169.619 336.167C168.323 336.167 167.107 336.615 166.275 337.351L166.675 337.927C167.363 337.303 168.403 336.871 169.555 336.871C171.187 336.871 172.035 337.703 172.035 339.255V339.927H169.171C166.851 339.927 166.051 340.999 166.051 342.263C166.051 343.687 167.187 344.647 169.059 344.647C170.515 344.647 171.539 344.055 172.067 343.095V344.583H172.835V339.287C172.835 337.223 171.683 336.167 169.619 336.167ZM169.171 343.991C167.699 343.991 166.851 343.319 166.851 342.231C166.851 341.271 167.459 340.551 169.187 340.551H172.035V342.119C171.555 343.319 170.579 343.991 169.171 343.991ZM179.94 343.495C179.604 343.799 179.14 343.959 178.644 343.959C177.62 343.959 177.092 343.367 177.092 342.295V336.919H179.748V336.231H177.092V334.407H176.292V336.231H174.756V336.919H176.292V342.375C176.292 343.783 177.092 344.647 178.564 344.647C179.188 344.647 179.86 344.455 180.276 344.055L179.94 343.495ZM182.567 344.647C182.935 344.647 183.239 344.343 183.239 343.959C183.239 343.575 182.935 343.287 182.567 343.287C182.199 343.287 181.895 343.575 181.895 343.959C181.895 344.343 182.199 344.647 182.567 344.647ZM190.231 344.583H191.047V333.383H190.231V344.583ZM210.003 336.231L207.187 343.671L204.355 336.231H203.667L200.819 343.687L198.035 336.231H197.267L200.435 344.583H201.171L204.003 337.335L206.819 344.583H207.571L210.739 336.231H210.003ZM213 334.199C213.368 334.199 213.656 333.911 213.656 333.543C213.656 333.191 213.368 332.903 213 332.903C212.632 332.903 212.344 333.207 212.344 333.559C212.344 333.911 212.632 334.199 213 334.199ZM212.6 344.583H213.4V336.231H212.6V344.583ZM216.772 344.583H217.572V332.711H216.772V344.583ZM220.944 344.583H221.744V332.711H220.944V344.583ZM235.849 332.711V338.167C235.177 336.903 233.929 336.167 232.441 336.167C230.089 336.167 228.313 337.895 228.313 340.407C228.313 342.903 230.089 344.647 232.441 344.647C233.945 344.647 235.209 343.911 235.865 342.615V344.583H236.649V332.711H235.849ZM232.489 343.927C230.569 343.927 229.129 342.503 229.129 340.407C229.129 338.311 230.569 336.887 232.489 336.887C234.409 336.887 235.849 338.311 235.849 340.407C235.849 342.503 234.409 343.927 232.489 343.927ZM247.094 340.375C247.094 337.895 245.398 336.167 243.11 336.167C240.822 336.167 239.11 337.927 239.11 340.407C239.11 342.887 240.886 344.647 243.414 344.647C244.678 344.647 245.83 344.183 246.566 343.287L246.102 342.759C245.462 343.543 244.486 343.927 243.43 343.927C241.43 343.927 239.974 342.583 239.894 340.599H247.078C247.078 340.519 247.094 340.439 247.094 340.375ZM243.11 336.871C244.886 336.871 246.198 338.167 246.31 339.975H239.91C240.038 338.151 241.334 336.871 243.11 336.871ZM249.729 334.951V336.231H248.193V336.919H249.729V344.583H250.529V336.919H253.185V336.231H250.513V335.015C250.513 333.911 251.041 333.335 252.081 333.335C252.577 333.335 253.041 333.495 253.377 333.799L253.697 333.191C253.297 332.823 252.657 332.647 252.049 332.647C250.561 332.647 249.729 333.559 249.729 334.951ZM256.497 332.903C256.129 332.903 255.841 333.207 255.841 333.559C255.841 333.911 256.129 334.199 256.497 334.199C256.865 334.199 257.153 333.911 257.153 333.543C257.153 333.191 256.865 332.903 256.497 332.903ZM256.097 344.583H256.897V336.231H256.097V344.583ZM264.352 336.167C262.768 336.167 261.6 336.871 261.04 338.039V336.231H260.272V344.583H261.072V340.135C261.072 338.151 262.272 336.887 264.24 336.887C265.936 336.887 266.944 337.879 266.944 339.767V344.583H267.744V339.703C267.744 337.367 266.384 336.167 264.352 336.167ZM271.438 334.199C271.806 334.199 272.094 333.911 272.094 333.543C272.094 333.191 271.806 332.903 271.438 332.903C271.07 332.903 270.782 333.207 270.782 333.559C270.782 333.911 271.07 334.199 271.438 334.199ZM271.038 344.583H271.838V336.231H271.038V344.583ZM279.018 343.495C278.682 343.799 278.218 343.959 277.722 343.959C276.698 343.959 276.17 343.367 276.17 342.295V336.919H278.826V336.231H276.17V334.407H275.37V336.231H273.834V336.919H275.37V342.375C275.37 343.783 276.17 344.647 277.642 344.647C278.266 344.647 278.938 344.455 279.354 344.055L279.018 343.495ZM288.36 340.375C288.36 337.895 286.664 336.167 284.376 336.167C282.088 336.167 280.376 337.927 280.376 340.407C280.376 342.887 282.152 344.647 284.68 344.647C285.944 344.647 287.096 344.183 287.832 343.287L287.368 342.759C286.728 343.543 285.752 343.927 284.696 343.927C282.696 343.927 281.24 342.583 281.16 340.599H288.344C288.344 340.519 288.36 340.439 288.36 340.375ZM284.376 336.871C286.152 336.871 287.464 338.167 287.576 339.975H281.176C281.304 338.151 282.6 336.871 284.376 336.871ZM290.835 344.583H291.635V332.711H290.835V344.583ZM300.895 336.231L297.551 343.703L294.207 336.231H293.359L297.119 344.551L296.671 345.559C296.159 346.695 295.599 347.047 294.831 347.047C294.207 347.047 293.711 346.839 293.279 346.391L292.879 346.999C293.359 347.495 294.063 347.751 294.815 347.751C295.919 347.751 296.751 347.255 297.423 345.719L301.711 336.231H300.895ZM310.081 333.335C310.577 333.335 311.041 333.495 311.377 333.799L311.697 333.191C311.297 332.823 310.657 332.647 310.049 332.647C308.561 332.647 307.729 333.559 307.729 334.951V336.231H306.193V336.919H307.729V344.583H308.529V336.919H311.185V336.231H308.513V335.015C308.513 333.911 309.041 333.335 310.081 333.335ZM315.942 344.647C318.342 344.647 320.118 342.887 320.118 340.407C320.118 337.927 318.342 336.167 315.942 336.167C313.542 336.167 311.766 337.927 311.766 340.407C311.766 342.887 313.542 344.647 315.942 344.647ZM315.942 343.927C314.022 343.927 312.582 342.503 312.582 340.407C312.582 338.311 314.022 336.887 315.942 336.887C317.862 336.887 319.302 338.311 319.302 340.407C319.302 342.503 317.862 343.927 315.942 343.927ZM323.368 338.055V336.231H322.6V344.583H323.4V340.231C323.4 338.167 324.504 336.935 326.36 336.935C326.424 336.935 326.488 336.951 326.552 336.951V336.167C324.984 336.167 323.88 336.839 323.368 338.055ZM335.43 336.231V338.119C334.758 336.871 333.462 336.167 331.926 336.167C329.558 336.167 327.766 337.831 327.766 340.215C327.766 342.599 329.558 344.279 331.926 344.279C333.43 344.279 334.71 343.591 335.398 342.375V343.783C335.398 346.007 334.358 347.031 332.134 347.031C330.79 347.031 329.59 346.583 328.758 345.815L328.326 346.423C329.174 347.271 330.63 347.751 332.15 347.751C334.838 347.751 336.198 346.487 336.198 343.687V336.231H335.43ZM331.99 343.559C330.022 343.559 328.582 342.183 328.582 340.215C328.582 338.247 330.022 336.887 331.99 336.887C333.974 336.887 335.414 338.247 335.414 340.215C335.414 342.183 333.974 343.559 331.99 343.559ZM346.657 340.375C346.657 337.895 344.961 336.167 342.673 336.167C340.385 336.167 338.673 337.927 338.673 340.407C338.673 342.887 340.449 344.647 342.977 344.647C344.241 344.647 345.393 344.183 346.129 343.287L345.665 342.759C345.025 343.543 344.049 343.927 342.993 343.927C340.993 343.927 339.537 342.583 339.457 340.599H346.641C346.641 340.519 346.657 340.439 346.657 340.375ZM342.673 336.871C344.449 336.871 345.761 338.167 345.873 339.975H339.473C339.601 338.151 340.897 336.871 342.673 336.871ZM352.94 343.495C352.604 343.799 352.14 343.959 351.644 343.959C350.62 343.959 350.092 343.367 350.092 342.295V336.919H352.748V336.231H350.092V334.407H349.292V336.231H347.756V336.919H349.292V342.375C349.292 343.783 350.092 344.647 351.564 344.647C352.188 344.647 352.86 344.455 353.276 344.055L352.94 343.495ZM363.424 343.495C363.088 343.799 362.624 343.959 362.128 343.959C361.104 343.959 360.576 343.367 360.576 342.295V336.919H363.232V336.231H360.576V334.407H359.776V336.231H358.24V336.919H359.776V342.375C359.776 343.783 360.576 344.647 362.048 344.647C362.672 344.647 363.344 344.455 363.76 344.055L363.424 343.495ZM368.958 344.647C371.358 344.647 373.134 342.887 373.134 340.407C373.134 337.927 371.358 336.167 368.958 336.167C366.558 336.167 364.782 337.927 364.782 340.407C364.782 342.887 366.558 344.647 368.958 344.647ZM368.958 343.927C367.038 343.927 365.598 342.503 365.598 340.407C365.598 338.311 367.038 336.887 368.958 336.887C370.878 336.887 372.318 338.311 372.318 340.407C372.318 342.503 370.878 343.927 368.958 343.927ZM383.533 343.495C383.197 343.799 382.733 343.959 382.237 343.959C381.213 343.959 380.685 343.367 380.685 342.295V336.919H383.341V336.231H380.685V334.407H379.885V336.231H378.349V336.919H379.885V342.375C379.885 343.783 380.685 344.647 382.157 344.647C382.781 344.647 383.453 344.455 383.869 344.055L383.533 343.495ZM388.916 336.167C387.62 336.167 386.404 336.615 385.572 337.351L385.972 337.927C386.66 337.303 387.7 336.871 388.852 336.871C390.484 336.871 391.332 337.703 391.332 339.255V339.927H388.468C386.148 339.927 385.348 340.999 385.348 342.263C385.348 343.687 386.484 344.647 388.356 344.647C389.812 344.647 390.836 344.055 391.364 343.095V344.583H392.132V339.287C392.132 337.223 390.98 336.167 388.916 336.167ZM388.468 343.991C386.996 343.991 386.148 343.319 386.148 342.231C386.148 341.271 386.756 340.551 388.484 340.551H391.332V342.119C390.852 343.319 389.876 343.991 388.468 343.991ZM401.956 344.583H402.948L398.996 339.607L402.596 336.231H401.572L396.228 341.111V332.711H395.428V344.583H396.228V342.103L398.404 340.119L401.956 344.583ZM411.563 340.375C411.563 337.895 409.867 336.167 407.579 336.167C405.291 336.167 403.579 337.927 403.579 340.407C403.579 342.887 405.355 344.647 407.883 344.647C409.147 344.647 410.299 344.183 411.035 343.287L410.571 342.759C409.931 343.543 408.955 343.927 407.899 343.927C405.899 343.927 404.443 342.583 404.363 340.599H411.547C411.547 340.519 411.563 340.439 411.563 340.375ZM407.579 336.871C409.355 336.871 410.667 338.167 410.779 339.975H404.379C404.507 338.151 405.803 336.871 407.579 336.871ZM170.067 364.647C172.467 364.647 174.243 362.887 174.243 360.407C174.243 357.927 172.467 356.167 170.067 356.167C167.667 356.167 165.891 357.927 165.891 360.407C165.891 362.887 167.667 364.647 170.067 364.647ZM170.067 363.927C168.147 363.927 166.707 362.503 166.707 360.407C166.707 358.311 168.147 356.887 170.067 356.887C171.987 356.887 173.427 358.311 173.427 360.407C173.427 362.503 171.987 363.927 170.067 363.927ZM183.237 356.231V360.679C183.237 362.663 182.069 363.927 180.181 363.927C178.437 363.927 177.429 362.935 177.429 361.047V356.231H176.629V361.111C176.629 363.447 177.989 364.647 180.117 364.647C181.589 364.647 182.725 363.959 183.269 362.791V364.583H184.037V356.231H183.237ZM191.236 363.495C190.9 363.799 190.436 363.959 189.94 363.959C188.916 363.959 188.388 363.367 188.388 362.295V356.919H191.044V356.231H188.388V354.407H187.588V356.231H186.052V356.919H187.588V362.375C187.588 363.783 188.388 364.647 189.86 364.647C190.484 364.647 191.156 364.455 191.572 364.055L191.236 363.495ZM200.025 364.647C202.153 364.647 203.321 363.719 203.321 362.359C203.321 359.175 197.785 360.951 197.785 358.439C197.785 357.543 198.505 356.871 200.137 356.871C201.033 356.871 201.945 357.111 202.649 357.623L203.017 356.983C202.361 356.487 201.209 356.167 200.153 356.167C198.041 356.167 196.985 357.191 196.985 358.455C196.985 361.735 202.521 359.943 202.521 362.375C202.521 363.319 201.817 363.943 200.057 363.943C198.825 363.943 197.689 363.479 197.049 362.935L196.681 363.575C197.337 364.183 198.649 364.647 200.025 364.647ZM208.817 364.647C211.217 364.647 212.993 362.887 212.993 360.407C212.993 357.927 211.217 356.167 208.817 356.167C206.417 356.167 204.641 357.927 204.641 360.407C204.641 362.887 206.417 364.647 208.817 364.647ZM208.817 363.927C206.897 363.927 205.457 362.503 205.457 360.407C205.457 358.311 206.897 356.887 208.817 356.887C210.737 356.887 212.177 358.311 212.177 360.407C212.177 362.503 210.737 363.927 208.817 363.927ZM225.875 356.167C224.259 356.167 223.043 356.967 222.499 358.183C222.051 356.855 220.947 356.167 219.443 356.167C217.923 356.167 216.787 356.855 216.243 358.023V356.231H215.475V364.583H216.275V360.135C216.275 358.151 217.443 356.887 219.331 356.887C220.963 356.887 221.939 357.879 221.939 359.767V364.583H222.739V360.135C222.739 358.151 223.907 356.887 225.795 356.887C227.427 356.887 228.403 357.879 228.403 359.767V364.583H229.203V359.703C229.203 357.367 227.891 356.167 225.875 356.167ZM239.594 360.375C239.594 357.895 237.898 356.167 235.61 356.167C233.322 356.167 231.61 357.927 231.61 360.407C231.61 362.887 233.386 364.647 235.914 364.647C237.178 364.647 238.33 364.183 239.066 363.287L238.602 362.759C237.962 363.543 236.986 363.927 235.93 363.927C233.93 363.927 232.474 362.583 232.394 360.599H239.578C239.578 360.519 239.594 360.439 239.594 360.375ZM235.61 356.871C237.386 356.871 238.698 358.167 238.81 359.975H232.41C232.538 358.151 233.834 356.871 235.61 356.871ZM245.877 363.495C245.541 363.799 245.077 363.959 244.581 363.959C243.557 363.959 243.029 363.367 243.029 362.295V356.919H245.685V356.231H243.029V354.407H242.229V356.231H240.693V356.919H242.229V362.375C242.229 363.783 243.029 364.647 244.501 364.647C245.125 364.647 245.797 364.455 246.213 364.055L245.877 363.495ZM252.524 356.167C250.972 356.167 249.82 356.839 249.244 357.975V352.711H248.444V364.583H249.244V360.135C249.244 358.151 250.444 356.887 252.412 356.887C254.108 356.887 255.116 357.879 255.116 359.767V364.583H255.916V359.703C255.916 357.367 254.556 356.167 252.524 356.167ZM259.61 354.199C259.978 354.199 260.266 353.911 260.266 353.543C260.266 353.191 259.978 352.903 259.61 352.903C259.242 352.903 258.954 353.207 258.954 353.559C258.954 353.911 259.242 354.199 259.61 354.199ZM259.21 364.583H260.01V356.231H259.21V364.583ZM267.462 356.167C265.878 356.167 264.71 356.871 264.15 358.039V356.231H263.382V364.583H264.182V360.135C264.182 358.151 265.382 356.887 267.35 356.887C269.046 356.887 270.054 357.879 270.054 359.767V364.583H270.854V359.703C270.854 357.367 269.494 356.167 267.462 356.167ZM280.915 356.231V358.119C280.243 356.871 278.947 356.167 277.411 356.167C275.043 356.167 273.251 357.831 273.251 360.215C273.251 362.599 275.043 364.279 277.411 364.279C278.915 364.279 280.195 363.591 280.883 362.375V363.783C280.883 366.007 279.843 367.031 277.619 367.031C276.275 367.031 275.075 366.583 274.243 365.815L273.811 366.423C274.659 367.271 276.115 367.751 277.635 367.751C280.323 367.751 281.683 366.487 281.683 363.687V356.231H280.915ZM277.475 363.559C275.507 363.559 274.067 362.183 274.067 360.215C274.067 358.247 275.507 356.887 277.475 356.887C279.459 356.887 280.899 358.247 280.899 360.215C280.899 362.183 279.459 363.559 277.475 363.559ZM285.085 361.367H285.693L285.853 353.383H284.925L285.085 361.367ZM285.389 364.647C285.773 364.647 286.061 364.343 286.061 363.991C286.061 363.623 285.773 363.335 285.389 363.335C285.021 363.335 284.733 363.623 284.733 363.991C284.733 364.343 285.021 364.647 285.389 364.647Z" fill="black"/>
<g filter="url(#filter3_d)">
<path d="M150.332 433.018V390.771H192.578L150.332 433.018Z" fill="white"/>
</g>
<path d="M124.61 313.2L120.307 319.636C119.483 320.815 118.934 321.993 118.934 323.443C118.934 326.253 120.948 327.976 123.328 327.976C125.8 327.976 127.631 326.072 127.631 323.443C127.631 321.902 126.99 320.452 125.617 319.727L128.638 313.2H124.61ZM137.152 319.727L140.173 313.2H136.145L131.842 319.636C131.018 320.815 130.469 321.993 130.469 323.443C130.469 326.253 132.483 327.976 134.863 327.976C137.335 327.976 139.166 326.072 139.166 323.443C139.166 321.902 138.525 320.452 137.152 319.727Z" fill="black"/>
<defs>
<filter id="filter0_d" x="160" y="0.941895" width="550" height="306.204" filterUnits="userSpaceOnUse" color-interpolation-filters="sRGB">
<feFlood flood-opacity="0" result="BackgroundImageFix"/>
<feColorMatrix in="SourceAlpha" type="matrix" values="0 0 0 0 0 0 0 0 0 0 0 0 0 0 0 0 0 0 127 0"/>
<feOffset/>
<feGaussianBlur stdDeviation="47"/>
<feColorMatrix type="matrix" values="0 0 0 0 0.0705882 0 0 0 0 0.239843 0 0 0 0 0.396078 0 0 0 0.1 0"/>
<feBlend mode="normal" in2="BackgroundImageFix" result="effect1_dropShadow"/>
<feBlend mode="normal" in="SourceGraphic" in2="effect1_dropShadow" result="shape"/>
</filter>
<filter id="filter1_d" x="216.332" y="109.911" width="230.246" height="230.246" filterUnits="userSpaceOnUse" color-interpolation-filters="sRGB">
<feFlood flood-opacity="0" result="BackgroundImageFix"/>
<feColorMatrix in="SourceAlpha" type="matrix" values="0 0 0 0 0 0 0 0 0 0 0 0 0 0 0 0 0 0 127 0"/>
<feOffset/>
<feGaussianBlur stdDeviation="47"/>
<feColorMatrix type="matrix" values="0 0 0 0 0.0705882 0 0 0 0 0.239843 0 0 0 0 0.396078 0 0 0 0.1 0"/>
<feBlend mode="normal" in2="BackgroundImageFix" result="effect1_dropShadow"/>
<feBlend mode="normal" in="SourceGraphic" in2="effect1_dropShadow" result="shape"/>
</filter>
<filter id="filter2_d" x="0" y="187.802" width="550" height="306.204" filterUnits="userSpaceOnUse" color-interpolation-filters="sRGB">
<feFlood flood-opacity="0" result="BackgroundImageFix"/>
<feColorMatrix in="SourceAlpha" type="matrix" values="0 0 0 0 0 0 0 0 0 0 0 0 0 0 0 0 0 0 127 0"/>
<feOffset/>
<feGaussianBlur stdDeviation="47"/>
<feColorMatrix type="matrix" values="0 0 0 0 0.0705882 0 0 0 0 0.239843 0 0 0 0 0.396078 0 0 0 0.1 0"/>
<feBlend mode="normal" in2="BackgroundImageFix" result="effect1_dropShadow"/>
<feBlend mode="normal" in="SourceGraphic" in2="effect1_dropShadow" result="shape"/>
</filter>
<filter id="filter3_d" x="56.332" y="296.771" width="230.246" height="230.246" filterUnits="userSpaceOnUse" color-interpolation-filters="sRGB">
<feFlood flood-opacity="0" result="BackgroundImageFix"/>
<feColorMatrix in="SourceAlpha" type="matrix" values="0 0 0 0 0 0 0 0 0 0 0 0 0 0 0 0 0 0 127 0"/>
<feOffset/>
<feGaussianBlur stdDeviation="47"/>
<feColorMatrix type="matrix" values="0 0 0 0 0.0705882 0 0 0 0 0.239843 0 0 0 0 0.396078 0 0 0 0.1 0"/>
<feBlend mode="normal" in2="BackgroundImageFix" result="effect1_dropShadow"/>
<feBlend mode="normal" in="SourceGraphic" in2="effect1_dropShadow" result="shape"/>
</filter>
</defs>
</svg>
